<svg width="713" height="538" viewBox="0 0 713 538" fill="none" xmlns="http://www.w3.org/2000/svg">
<g filter="url(#filter0_d_1331_2367)">
<rect x="35" y="40" width="435" height="345" rx="10" fill="white"/>
<rect x="35" y="40" width="435" height="345" rx="10" stroke="#E0E0E0" stroke-width="1.25"/>
</g>
<path d="M65.7122 74.7302C65.7122 75.75 66.0845 76.5755 66.8292 77.223C67.5738 77.8543 68.545 78.1781 69.7591 78.1781C71.135 78.1781 72.3652 77.7572 73.1584 76.7374C73.5631 76.2194 73.7573 75.6043 73.7735 74.9082C73.8221 73.2733 72.8023 72.1402 70.7141 71.5413L69.3868 71.1204C68.5936 70.8938 68.1889 70.5215 68.1889 69.9873C68.1889 69.3398 68.7878 68.8704 69.6296 68.8704C70.5522 68.8704 71.0702 69.3722 71.0702 70.133H73.4336C73.4336 69.0808 73.0775 68.2552 72.3652 67.6401C71.6692 67.025 70.7627 66.7175 69.6619 66.7175C68.5774 66.7175 67.6547 67.025 66.9263 67.6563C66.1979 68.2714 65.8256 69.0646 65.8256 70.052C65.8256 71.5898 66.7806 72.6582 68.7069 73.2571L70.0504 73.6294C71.1026 73.937 71.4102 74.3255 71.394 74.892C71.3778 75.6043 70.7303 76.0737 69.7591 76.0737C68.7393 76.0737 68.1403 75.491 68.0918 74.7302H65.7122ZM80.7669 75.5072C80.3946 75.9766 79.8443 76.2194 79.1158 76.2194C78.2255 76.2194 77.3676 75.7823 77.2543 74.9568H82.7903C82.8065 74.6978 82.8227 74.4712 82.8227 74.2607C82.8227 73.0791 82.4504 72.124 81.7058 71.3956C80.9774 70.651 80.0547 70.2787 78.954 70.2787C77.837 70.2787 76.8982 70.6348 76.1374 71.3632C75.3766 72.0916 75.0043 73.0305 75.0043 74.196C75.0043 75.3615 75.3766 76.3165 76.1374 77.0611C76.8982 77.7896 77.837 78.1619 78.954 78.1619C80.5565 78.1619 81.7058 77.6439 82.4018 76.6241L80.7669 75.5072ZM77.2867 73.5485C77.6428 71.8165 80.3299 71.8326 80.5565 73.5485H77.2867ZM87.2402 67.543H85.0064V70.4405H83.6304V72.2211H85.0064V78H87.2402V72.2211H88.8266V70.4405H87.2402V67.543ZM96.1245 74.2445C96.1245 73.1924 96.9015 72.4154 97.8727 72.4154C98.844 72.4154 99.621 73.16 99.621 74.2445C99.621 75.2967 98.844 76.0413 97.8727 76.0413C96.9015 76.0413 96.1245 75.3453 96.1245 74.2445ZM93.8421 81.7069H96.0759V77.0773C96.4482 77.741 97.3224 78.1619 98.2936 78.1619C99.2972 78.1619 100.155 77.7896 100.867 77.0611C101.596 76.3327 101.952 75.3777 101.952 74.196C101.952 73.0467 101.596 72.1078 100.867 71.3794C100.155 70.651 99.2972 70.2787 98.2936 70.2787C97.3224 70.2787 96.4482 70.6833 96.0759 71.3794V70.4405H93.8421V81.7069ZM108.889 75.5072C108.517 75.9766 107.967 76.2194 107.238 76.2194C106.348 76.2194 105.49 75.7823 105.377 74.9568H110.913C110.929 74.6978 110.945 74.4712 110.945 74.2607C110.945 73.0791 110.573 72.124 109.828 71.3956C109.1 70.651 108.177 70.2787 107.076 70.2787C105.959 70.2787 105.02 70.6348 104.26 71.3632C103.499 72.0916 103.127 73.0305 103.127 74.196C103.127 75.3615 103.499 76.3165 104.26 77.0611C105.02 77.7896 105.959 78.1619 107.076 78.1619C108.679 78.1619 109.828 77.6439 110.524 76.6241L108.889 75.5072ZM105.409 73.5485C105.765 71.8165 108.452 71.8326 108.679 73.5485H105.409ZM114.73 75.3615C114.73 73.3542 115.361 72.3506 116.607 72.3506C117.061 72.3506 117.449 72.4316 117.757 72.5773L118.161 70.5538C117.789 70.3758 117.368 70.2787 116.866 70.2787C116.008 70.2787 115.102 70.9585 114.73 72.2697V70.4405H112.48V78H114.73V75.3615ZM127.677 72.4639C128.389 72.4639 128.923 73.0143 128.923 73.9694V78H131.157V73.7104C131.157 71.4603 130.073 70.2787 128.244 70.2787C127.289 70.2787 126.528 70.7319 125.977 71.6222C125.557 70.7319 124.747 70.2948 123.549 70.2948C122.708 70.2948 121.914 70.7643 121.574 71.5413V70.4405H119.324V78H121.574V74.0017C121.574 72.9172 122.125 72.4639 122.886 72.4639C123.582 72.4639 124.116 73.0143 124.132 73.9208V78H126.382V74.0017C126.382 72.9658 126.9 72.4639 127.677 72.4639ZM133.141 70.4405V78H135.374V70.4405H133.141ZM134.257 66.329C133.48 66.329 132.849 66.9117 132.849 67.6401C132.849 68.3686 133.48 68.9675 134.257 68.9675C135.018 68.9675 135.633 68.3686 135.633 67.6401C135.633 66.9117 135.018 66.329 134.257 66.329ZM140.386 75.151C140.921 75.2967 141.131 75.4748 141.131 75.7985C141.131 76.1708 140.726 76.4136 140.208 76.4298C139.609 76.4298 139.108 76.009 139.091 75.5557H136.987C137.003 76.3489 137.311 76.9964 137.942 77.4658C138.573 77.9353 139.318 78.1619 140.144 78.1619C141.018 78.1619 141.778 77.9514 142.426 77.5468C143.09 77.1421 143.413 76.5593 143.413 75.7985C143.413 75.3453 143.349 74.9244 142.685 74.2931C142.361 73.9856 141.924 73.7427 141.358 73.5971L140.079 73.2571C139.658 73.1438 139.431 72.9658 139.415 72.6906C139.399 72.3506 139.707 72.124 140.208 72.124C140.775 72.124 141.05 72.3506 141.066 72.7877H143.187C143.171 71.9298 142.863 71.2985 142.264 70.8938C141.665 70.4891 140.937 70.2787 140.079 70.2787C139.286 70.2787 138.606 70.5053 138.023 70.9423C137.44 71.3794 137.149 71.865 137.133 72.4316C137.117 72.901 137.149 73.16 137.392 73.678C137.651 74.1798 138.347 74.6169 139.399 74.892L140.386 75.151ZM147.943 75.151C148.477 75.2967 148.687 75.4748 148.687 75.7985C148.687 76.1708 148.282 76.4136 147.764 76.4298C147.166 76.4298 146.664 76.009 146.648 75.5557H144.543C144.559 76.3489 144.867 76.9964 145.498 77.4658C146.13 77.9353 146.874 78.1619 147.7 78.1619C148.574 78.1619 149.335 77.9514 149.982 77.5468C150.646 77.1421 150.97 76.5593 150.97 75.7985C150.97 75.3453 150.905 74.9244 150.241 74.2931C149.917 73.9856 149.48 73.7427 148.914 73.5971L147.635 73.2571C147.214 73.1438 146.988 72.9658 146.971 72.6906C146.955 72.3506 147.263 72.124 147.764 72.124C148.331 72.124 148.606 72.3506 148.622 72.7877H150.743C150.727 71.9298 150.419 71.2985 149.82 70.8938C149.221 70.4891 148.493 70.2787 147.635 70.2787C146.842 70.2787 146.162 70.5053 145.579 70.9423C144.996 71.3794 144.705 71.865 144.689 72.4316C144.673 72.901 144.705 73.16 144.948 73.678C145.207 74.1798 145.903 74.6169 146.955 74.892L147.943 75.151ZM152.553 70.4405V78H154.786V70.4405H152.553ZM153.67 66.329C152.893 66.329 152.261 66.9117 152.261 67.6401C152.261 68.3686 152.893 68.9675 153.67 68.9675C154.43 68.9675 155.045 68.3686 155.045 67.6401C155.045 66.9117 154.43 66.329 153.67 66.329ZM160.316 75.928C159.361 75.928 158.617 75.232 158.617 74.196C158.617 73.2086 159.361 72.4801 160.316 72.4801C161.272 72.4801 162.032 73.2086 162.032 74.196C162.032 75.232 161.288 75.928 160.316 75.928ZM163.101 77.0449C163.861 76.3165 164.25 75.3615 164.25 74.196C164.25 73.0305 163.861 72.0916 163.101 71.3632C162.34 70.6348 161.417 70.2787 160.316 70.2787C159.216 70.2787 158.293 70.6348 157.532 71.3632C156.771 72.0916 156.399 73.0305 156.399 74.196C156.399 75.3615 156.771 76.3165 157.532 77.0449C158.293 77.7734 159.216 78.1295 160.316 78.1295C161.417 78.1295 162.34 77.7734 163.101 77.0449ZM168.113 74.0017C168.113 72.9819 168.582 72.4639 169.505 72.4639C170.298 72.4639 170.816 72.9981 170.816 73.9694V78H173.066V73.4837C173.066 71.3632 172.046 70.2787 170.298 70.2787C169.408 70.2787 168.518 70.7805 168.113 71.5413V70.4405H165.863V78H168.113V74.0017ZM178.009 75.151C178.543 75.2967 178.754 75.4748 178.754 75.7985C178.754 76.1708 178.349 76.4136 177.831 76.4298C177.232 76.4298 176.73 76.009 176.714 75.5557H174.61C174.626 76.3489 174.934 76.9964 175.565 77.4658C176.196 77.9353 176.941 78.1619 177.766 78.1619C178.64 78.1619 179.401 77.9514 180.049 77.5468C180.712 77.1421 181.036 76.5593 181.036 75.7985C181.036 75.3453 180.971 74.9244 180.308 74.2931C179.984 73.9856 179.547 73.7427 178.98 73.5971L177.702 73.2571C177.281 73.1438 177.054 72.9658 177.038 72.6906C177.022 72.3506 177.329 72.124 177.831 72.124C178.398 72.124 178.673 72.3506 178.689 72.7877H180.81C180.793 71.9298 180.486 71.2985 179.887 70.8938C179.288 70.4891 178.56 70.2787 177.702 70.2787C176.908 70.2787 176.229 70.5053 175.646 70.9423C175.063 71.3794 174.772 71.865 174.756 72.4316C174.739 72.901 174.772 73.16 175.015 73.678C175.274 74.1798 175.97 74.6169 177.022 74.892L178.009 75.151Z" fill="#333333"/>
<path fill-rule="evenodd" clip-rule="evenodd" d="M438.525 70.6287L440.194 68.9592L444.535 73.2998L448.875 68.9592L450.545 70.6287L446.204 74.9693L450.545 79.3099L448.875 80.9794L444.535 76.6388L440.194 80.9794L438.525 79.3099L442.865 74.9693L438.525 70.6287Z" fill="#161823" fill-opacity="0.34"/>
<rect x="65" y="328.113" width="98.4234" height="28.2967" rx="14.1484" fill="white"/>
<path d="M102.387 343.732C101.945 344.378 101.243 344.809 100.438 344.809C99.7921 344.809 99.2596 344.571 98.829 344.106C98.3984 343.63 98.1831 343.052 98.1831 342.372C98.1831 341.681 98.3984 341.103 98.829 340.639C99.2596 340.163 99.7921 339.925 100.438 339.925C101.243 339.925 101.877 340.265 102.342 340.945L103.69 340.016C102.999 339.007 101.798 338.361 100.438 338.361C99.3276 338.361 98.3984 338.747 97.6392 339.528C96.8914 340.31 96.5174 341.251 96.5174 342.372C96.5174 343.483 96.8914 344.423 97.6392 345.205C98.3984 345.987 99.3276 346.372 100.438 346.372C101.832 346.372 103.033 345.715 103.724 344.661L102.387 343.732ZM110.185 346.259V340.967H108.622V341.557C108.259 341.047 107.579 340.854 107.081 340.854C106.367 340.854 105.743 341.115 105.2 341.625C104.656 342.135 104.384 342.792 104.384 343.608C104.384 344.423 104.656 345.092 105.2 345.602C105.743 346.112 106.367 346.361 107.081 346.361C107.33 346.361 107.613 346.304 107.919 346.18C108.236 346.055 108.474 345.885 108.622 345.658V346.259H110.185ZM107.341 344.865C106.99 344.865 106.684 344.752 106.412 344.514C106.151 344.276 106.015 343.97 106.015 343.608C106.015 343.245 106.151 342.95 106.412 342.712C106.684 342.474 106.99 342.35 107.341 342.35C108.021 342.35 108.622 342.848 108.622 343.608C108.622 344.367 108.021 344.865 107.341 344.865ZM113.214 343.46C113.214 342.746 113.543 342.384 114.189 342.384C114.744 342.384 115.106 342.758 115.106 343.438V346.259H116.681V343.098C116.681 341.613 115.968 340.854 114.744 340.854C114.121 340.854 113.497 341.205 113.214 341.738V340.967H111.639V346.259H113.214V343.46ZM120.64 340.854C119.858 340.854 119.178 341.115 118.612 341.625C118.045 342.135 117.762 342.792 117.762 343.596C117.762 344.401 118.045 345.069 118.612 345.59C119.178 346.112 119.858 346.372 120.64 346.372C121.592 346.372 122.442 345.953 122.94 345.239L121.66 344.333C121.433 344.684 121.093 344.865 120.64 344.865C120.289 344.865 119.983 344.752 119.722 344.514C119.462 344.276 119.326 343.97 119.326 343.596C119.326 343.234 119.462 342.939 119.722 342.712C119.983 342.474 120.289 342.361 120.64 342.361C121.093 342.361 121.433 342.542 121.66 342.894L122.94 341.976C122.43 341.262 121.581 340.854 120.64 340.854ZM127.683 344.514C127.422 344.843 127.037 345.013 126.527 345.013C125.904 345.013 125.303 344.707 125.224 344.129H129.099C129.11 343.947 129.122 343.789 129.122 343.642C129.122 342.814 128.861 342.146 128.34 341.636C127.83 341.115 127.184 340.854 126.414 340.854C125.632 340.854 124.975 341.103 124.442 341.613C123.909 342.123 123.649 342.78 123.649 343.596C123.649 344.412 123.909 345.081 124.442 345.602C124.975 346.112 125.632 346.372 126.414 346.372C127.535 346.372 128.34 346.01 128.827 345.296L127.683 344.514ZM125.246 343.143C125.496 341.931 127.377 341.942 127.535 343.143H125.246ZM130.196 346.259H131.771V338.089H130.196V346.259Z" fill="#161823"/>
<rect x="65.5" y="328.613" width="97.4234" height="27.2967" rx="13.6484" stroke="#161823" stroke-opacity="0.12"/>
<rect x="352.266" y="328" width="98.4234" height="28.5227" rx="14.2614" fill="#89b93f"/>
<path d="M388.009 339.376L388.837 342.096H387.216L388.009 339.376ZM390.06 345.382H391.805L388.916 337.575H387.114L384.213 345.382H385.981L386.672 343.535H389.369L390.06 345.382ZM394.538 343.388C394.912 343.49 395.059 343.614 395.059 343.841C395.059 344.101 394.776 344.271 394.413 344.283C393.994 344.283 393.643 343.988 393.632 343.671H392.159C392.17 344.226 392.385 344.679 392.827 345.008C393.269 345.337 393.79 345.495 394.368 345.495C394.98 345.495 395.513 345.348 395.966 345.065C396.43 344.781 396.657 344.373 396.657 343.841C396.657 343.524 396.612 343.229 396.147 342.787C395.92 342.572 395.615 342.402 395.218 342.3L394.323 342.062C394.028 341.983 393.87 341.858 393.858 341.665C393.847 341.427 394.062 341.269 394.413 341.269C394.81 341.269 395.003 341.427 395.014 341.733H396.498C396.487 341.133 396.272 340.691 395.853 340.407C395.433 340.124 394.923 339.977 394.323 339.977C393.768 339.977 393.292 340.136 392.884 340.441C392.476 340.747 392.272 341.087 392.261 341.484C392.249 341.813 392.272 341.994 392.442 342.356C392.623 342.708 393.11 343.014 393.847 343.206L394.538 343.388ZM399.827 343.388C400.201 343.49 400.349 343.614 400.349 343.841C400.349 344.101 400.065 344.271 399.703 344.283C399.284 344.283 398.932 343.988 398.921 343.671H397.448C397.459 344.226 397.675 344.679 398.116 345.008C398.558 345.337 399.08 345.495 399.657 345.495C400.269 345.495 400.802 345.348 401.255 345.065C401.72 344.781 401.946 344.373 401.946 343.841C401.946 343.524 401.901 343.229 401.436 342.787C401.21 342.572 400.904 342.402 400.507 342.3L399.612 342.062C399.318 341.983 399.159 341.858 399.148 341.665C399.136 341.427 399.352 341.269 399.703 341.269C400.099 341.269 400.292 341.427 400.303 341.733H401.788C401.776 341.133 401.561 340.691 401.142 340.407C400.723 340.124 400.213 339.977 399.612 339.977C399.057 339.977 398.581 340.136 398.173 340.441C397.765 340.747 397.561 341.087 397.55 341.484C397.539 341.813 397.561 341.994 397.731 342.356C397.912 342.708 398.4 343.014 399.136 343.206L399.827 343.388ZM403.054 340.09V345.382H404.618V340.09H403.054ZM403.836 337.212C403.292 337.212 402.851 337.62 402.851 338.13C402.851 338.64 403.292 339.059 403.836 339.059C404.369 339.059 404.799 338.64 404.799 338.13C404.799 337.62 404.369 337.212 403.836 337.212ZM409.94 342.719C409.94 343.093 409.815 343.399 409.554 343.648C409.294 343.886 408.999 344.011 408.659 344.011C407.968 344.011 407.39 343.49 407.39 342.719C407.39 341.994 407.968 341.473 408.659 341.473C409.35 341.473 409.94 341.96 409.94 342.719ZM405.906 346.379C406.359 347.376 407.345 348.022 408.512 348.022C410.427 348.022 411.503 346.878 411.503 344.645V340.09H409.974V340.747C409.713 340.283 409.067 339.977 408.387 339.977C407.673 339.977 407.061 340.238 406.529 340.759C406.008 341.269 405.747 341.937 405.747 342.753C405.747 343.558 406.008 344.215 406.529 344.725C407.061 345.235 407.673 345.495 408.387 345.495C409.067 345.495 409.736 345.189 409.974 344.725C410.053 345.982 409.566 346.606 408.512 346.606C407.968 346.606 407.356 346.243 407.175 345.756L405.906 346.379ZM414.533 342.583C414.533 341.869 414.862 341.507 415.508 341.507C416.063 341.507 416.425 341.881 416.425 342.56V345.382H418V342.22C418 340.736 417.287 339.977 416.063 339.977C415.44 339.977 414.816 340.328 414.533 340.861V340.09H412.958V345.382H414.533V342.583Z" fill="white"/>
<circle cx="100.5" cy="143.5" r="14.5" fill="#F0F0F0"/>
<circle cx="100.5" cy="191.5" r="14.5" fill="#F0F0F0"/>
<circle cx="100.5" cy="239.5" r="14.5" fill="#F0F0F0"/>
<circle cx="100.5" cy="287.5" r="14.5" fill="#F0F0F0"/>
<rect x="65" y="89" width="329" height="10" rx="5" fill="#F0F0F0"/>
<rect x="123" y="146" width="74" height="10" rx="5" fill="#F0F0F0"/>
<rect x="123" y="194" width="74" height="10" rx="5" fill="#F0F0F0"/>
<rect x="123" y="242" width="74" height="10" rx="5" fill="#F0F0F0"/>
<rect x="123" y="290" width="74" height="10" rx="5" fill="#F0F0F0"/>
<rect x="123" y="227" width="31" height="10" rx="5" fill="#F0F0F0"/>
<rect x="123" y="275" width="31" height="10" rx="5" fill="#F0F0F0"/>
<rect x="230" y="129" width="221" height="53" rx="5" fill="#F7F7F7"/>
<rect x="230" y="190" width="221" height="53" rx="5" fill="#F7F7F7"/>
<rect x="230" y="251" width="221" height="53" rx="5" fill="#F7F7F7"/>
<path d="M272.411 150L269.487 142.193H267.923L265 150H266.541L267.255 148.108H270.167L270.881 150H272.411ZM269.691 146.839H267.742L268.705 143.859L269.691 146.839ZM278.432 150V141.83H277.061V145.411C276.778 144.901 276.121 144.595 275.396 144.595C274.682 144.595 274.07 144.856 273.56 145.366C273.05 145.875 272.801 146.533 272.801 147.36C272.801 148.176 273.05 148.844 273.56 149.354C274.07 149.864 274.682 150.113 275.396 150.113C276.109 150.113 276.778 149.796 277.061 149.286V150H278.432ZM275.622 145.909C275.996 145.909 276.325 146.045 276.608 146.306C276.891 146.567 277.039 146.907 277.039 147.337C277.039 147.768 276.903 148.119 276.619 148.391C276.347 148.652 276.019 148.788 275.622 148.788C275.226 148.788 274.897 148.652 274.625 148.391C274.364 148.119 274.228 147.768 274.228 147.337C274.228 146.487 274.84 145.909 275.622 145.909ZM285.927 145.943C286.516 145.943 286.924 146.385 286.924 147.122V150H288.295V146.975C288.295 145.434 287.559 144.595 286.256 144.595C285.519 144.595 284.964 144.924 284.59 145.592C284.307 144.98 283.752 144.652 282.902 144.606C282.313 144.606 281.655 144.901 281.383 145.49V144.708H280.001V150H281.383V147.179C281.383 146.329 281.859 145.943 282.494 145.943C283.049 145.943 283.457 146.374 283.468 147.088V150H284.851V147.179C284.851 146.397 285.281 145.943 285.927 145.943ZM289.794 144.708V150H291.165V144.708H289.794ZM290.485 143.496C290.972 143.496 291.358 143.122 291.358 142.657C291.358 142.193 290.972 141.83 290.485 141.83C289.998 141.83 289.59 142.193 289.59 142.657C289.59 143.122 289.987 143.496 290.485 143.496ZM294.109 147.179C294.109 146.317 294.585 145.943 295.265 145.943C295.888 145.943 296.273 146.363 296.273 147.122V150H297.655V146.873C297.655 145.388 296.942 144.595 295.684 144.595C295.049 144.595 294.392 144.946 294.109 145.49V144.708H292.726V150H294.109V147.179Z" fill="#161823"/>
<path d="M128.303 134.193V139.269L125.323 134.193H123.974V142H125.414V136.867L128.428 142H129.753V134.193H128.303ZM136.789 142V136.708H135.406V137.366C135.055 136.833 134.352 136.595 133.763 136.595C133.027 136.595 132.392 136.856 131.86 137.366C131.327 137.875 131.066 138.533 131.066 139.349C131.066 140.164 131.338 140.833 131.871 141.343C132.403 141.853 133.038 142.102 133.763 142.102C134.352 142.102 135.089 141.819 135.406 141.32V142H136.789ZM135.406 139.349C135.463 140.663 133.763 141.218 132.925 140.38C132.641 140.108 132.494 139.768 132.494 139.349C132.494 138.929 132.641 138.589 132.925 138.329C133.219 138.057 133.559 137.921 133.956 137.921C134.341 137.921 134.681 138.045 134.964 138.306C135.259 138.567 135.406 138.907 135.406 139.349ZM144.281 137.943C144.871 137.943 145.278 138.385 145.278 139.122V142H146.65V138.975C146.65 137.434 145.913 136.595 144.61 136.595C143.873 136.595 143.318 136.924 142.944 137.592C142.661 136.98 142.106 136.652 141.256 136.606C140.667 136.606 140.009 136.901 139.738 137.49V136.708H138.355V142H139.738V139.179C139.738 138.329 140.213 137.943 140.848 137.943C141.403 137.943 141.811 138.374 141.822 139.088V142H143.205V139.179C143.205 138.397 143.635 137.943 144.281 137.943ZM153.247 139.337C153.247 138.521 152.987 137.864 152.477 137.354C151.967 136.844 151.332 136.595 150.562 136.595C149.791 136.595 149.145 136.844 148.613 137.354C148.08 137.864 147.82 138.521 147.82 139.337C147.82 140.153 148.08 140.822 148.613 141.343C149.145 141.853 149.791 142.113 150.562 142.113C151.615 142.113 152.579 141.694 153.032 140.833L151.978 140.266C151.74 140.708 151.208 140.946 150.652 140.946C149.87 140.946 149.281 140.504 149.191 139.813H153.224C153.236 139.643 153.247 139.484 153.247 139.337ZM149.179 138.873C149.281 138.181 149.836 137.751 150.573 137.751C151.264 137.751 151.797 138.159 151.899 138.873H149.179ZM156.882 136.912L158.128 136.414V142H159.522V134.499L156.882 135.666V136.912Z" fill="#161823"/>
<path d="M128.303 181.193V186.269L125.323 181.193H123.974V189H125.414V183.867L128.428 189H129.753V181.193H128.303ZM136.789 189V183.708H135.406V184.366C135.055 183.833 134.352 183.595 133.763 183.595C133.027 183.595 132.392 183.856 131.86 184.366C131.327 184.875 131.066 185.533 131.066 186.349C131.066 187.164 131.338 187.833 131.871 188.343C132.403 188.853 133.038 189.102 133.763 189.102C134.352 189.102 135.089 188.819 135.406 188.32V189H136.789ZM135.406 186.349C135.463 187.663 133.763 188.218 132.925 187.38C132.641 187.108 132.494 186.768 132.494 186.349C132.494 185.929 132.641 185.589 132.925 185.329C133.219 185.057 133.559 184.921 133.956 184.921C134.341 184.921 134.681 185.045 134.964 185.306C135.259 185.567 135.406 185.907 135.406 186.349ZM144.281 184.943C144.871 184.943 145.278 185.385 145.278 186.122V189H146.65V185.975C146.65 184.434 145.913 183.595 144.61 183.595C143.873 183.595 143.318 183.924 142.944 184.592C142.661 183.98 142.106 183.652 141.256 183.606C140.667 183.606 140.009 183.901 139.738 184.49V183.708H138.355V189H139.738V186.179C139.738 185.329 140.213 184.943 140.848 184.943C141.403 184.943 141.811 185.374 141.822 186.088V189H143.205V186.179C143.205 185.397 143.635 184.943 144.281 184.943ZM153.247 186.337C153.247 185.521 152.987 184.864 152.477 184.354C151.967 183.844 151.332 183.595 150.562 183.595C149.791 183.595 149.145 183.844 148.613 184.354C148.08 184.864 147.82 185.521 147.82 186.337C147.82 187.153 148.08 187.822 148.613 188.343C149.145 188.853 149.791 189.113 150.562 189.113C151.615 189.113 152.579 188.694 153.032 187.833L151.978 187.266C151.74 187.708 151.208 187.946 150.652 187.946C149.87 187.946 149.281 187.504 149.191 186.813H153.224C153.236 186.643 153.247 186.484 153.247 186.337ZM149.179 185.873C149.281 185.181 149.836 184.751 150.573 184.751C151.264 184.751 151.797 185.159 151.899 185.873H149.179ZM161.8 187.674H159.295L161.131 185.578C161.664 184.977 161.924 184.354 161.924 183.686C161.924 183.04 161.686 182.507 161.222 182.088C160.757 181.669 160.202 181.453 159.533 181.453C158.876 181.453 158.321 181.646 157.868 182.043C157.415 182.439 157.131 182.972 157.029 183.64L158.321 183.878C158.412 183.244 158.876 182.802 159.477 182.802C160.1 182.802 160.542 183.187 160.542 183.686C160.542 183.98 160.395 184.309 160.089 184.66L157.063 188.286V189H161.8V187.674Z" fill="#161823"/>
<rect x="243" y="167" width="167" height="7" rx="3.5" fill="#E0E0E0"/>
<rect x="243" y="228" width="167" height="7" rx="3.5" fill="#E0E0E0"/>
<rect x="264" y="202" width="43" height="7" rx="3.5" fill="#E0E0E0"/>
<rect x="264" y="263" width="34" height="7" rx="3.5" fill="#E0E0E0"/>
<rect x="243" y="289" width="167" height="7" rx="3.5" fill="#E0E0E0"/>
<rect x="65" y="138" width="12" height="12" rx="2" fill="black"/>
<rect x="65" y="186" width="12" height="12" rx="2" fill="black"/>
<rect x="65" y="234" width="12" height="12" rx="2" fill="#F0F0F0"/>
<rect x="65" y="282" width="12" height="12" rx="2" fill="#F0F0F0"/>
<path fill-rule="evenodd" clip-rule="evenodd" d="M75.3536 141.146C75.5488 141.342 75.5488 141.658 75.3536 141.854L70.3536 146.854C70.1583 147.049 69.8417 147.049 69.6464 146.854L67.1464 144.354C66.9512 144.158 66.9512 143.842 67.1464 143.646C67.3417 143.451 67.6583 143.451 67.8536 143.646L70 145.793L74.6464 141.146C74.8417 140.951 75.1583 140.951 75.3536 141.146Z" fill="white"/>
<path fill-rule="evenodd" clip-rule="evenodd" d="M75.3536 189.146C75.5488 189.342 75.5488 189.658 75.3536 189.854L70.3536 194.854C70.1583 195.049 69.8417 195.049 69.6464 194.854L67.1464 192.354C66.9512 192.158 66.9512 191.842 67.1464 191.646C67.3417 191.451 67.6583 191.451 67.8536 191.646L70 193.793L74.6464 189.146C74.8417 188.951 75.1583 188.951 75.3536 189.146Z" fill="white"/>
<rect x="243" y="140" width="13" height="13" rx="2.6" fill="#45464D"/>
<rect x="244.168" y="141.208" width="10.3948" height="10.3948" fill="#D8D8D8" fill-opacity="0.01"/>
<path fill-rule="evenodd" clip-rule="evenodd" d="M251.315 150.351L250.804 150.62L250.421 150.821C250.183 150.947 249.904 150.744 249.95 150.479L250.023 150.052L250.167 149.212L249.247 148.315C249.054 148.127 249.16 147.8 249.427 147.761L249.855 147.699L250.698 147.576L251.267 146.424C251.27 146.417 251.274 146.411 251.277 146.405H251.315V150.351ZM249.26 151.17H245.77C245.125 151.17 244.602 150.644 244.602 149.995V149.741C244.602 148.054 245.907 146.405 247.439 146.405H250.31L250.123 146.784L249.302 146.904C248.325 147.046 247.935 148.246 248.642 148.935L249.236 149.515L249.096 150.333C249.042 150.646 249.112 150.936 249.26 151.17Z" fill="#0CE5DE"/>
<path d="M251.558 150.224L250.421 150.822C250.183 150.947 249.904 150.745 249.95 150.479L250.167 149.213L249.246 148.315C249.054 148.128 249.16 147.8 249.426 147.761L250.698 147.577L251.267 146.424C251.386 146.183 251.731 146.183 251.85 146.424L252.419 147.577L253.691 147.761C253.957 147.8 254.063 148.128 253.871 148.315L252.95 149.213L253.167 150.479C253.213 150.745 252.934 150.947 252.696 150.822L251.558 150.224Z" fill="white"/>
<circle cx="248.85" cy="143.9" r="1.95" fill="#0CE5DE"/>
<rect x="422.25" y="138" width="17.5" height="10" rx="5" fill="#EBEBEB"/>
<path fill-rule="evenodd" clip-rule="evenodd" d="M427.25 146.75C429.321 146.75 431 145.071 431 143C431 140.929 429.321 139.25 427.25 139.25C425.179 139.25 423.5 140.929 423.5 143C423.5 145.071 425.179 146.75 427.25 146.75Z" fill="white"/>
<rect x="422.25" y="199" width="17.5" height="10" rx="5" fill="#EBEBEB"/>
<path fill-rule="evenodd" clip-rule="evenodd" d="M427.25 207.75C429.321 207.75 431 206.071 431 204C431 201.929 429.321 200.25 427.25 200.25C425.179 200.25 423.5 201.929 423.5 204C423.5 206.071 425.179 207.75 427.25 207.75Z" fill="white"/>
<rect x="422.25" y="260" width="17.5" height="10" rx="5" fill="#EBEBEB"/>
<path fill-rule="evenodd" clip-rule="evenodd" d="M427.25 268.75C429.321 268.75 431 267.071 431 265C431 262.929 429.321 261.25 427.25 261.25C425.179 261.25 423.5 262.929 423.5 265C423.5 267.071 425.179 268.75 427.25 268.75Z" fill="white"/>
<rect x="243" y="199" width="13" height="13" rx="2.6" fill="#E0E0E0"/>
<rect x="243" y="260" width="13" height="13" rx="2.6" fill="#E0E0E0"/>
<g filter="url(#filter1_d_1331_2367)">
<rect x="244" y="213" width="435" height="284" rx="10" fill="white"/>
<rect x="244" y="213" width="435" height="284" rx="10" stroke="#E0E0E0" stroke-width="1.25"/>
</g>
<path d="M279.326 244.421L280.507 248.306H278.193L279.326 244.421ZM282.256 253H284.748L280.621 241.847H278.047L273.903 253H276.428L277.416 250.361H281.268L282.256 253ZM291.018 249.196C291.018 250.248 290.241 251.025 289.269 251.025C288.298 251.025 287.521 250.297 287.521 249.196C287.521 248.144 288.298 247.399 289.269 247.399C290.241 247.399 291.018 248.095 291.018 249.196ZM293.3 241.329H291.066V246.363C290.694 245.7 289.82 245.279 288.849 245.279C287.845 245.279 286.987 245.651 286.259 246.379C285.546 247.108 285.19 248.063 285.19 249.245C285.19 250.394 285.546 251.349 286.259 252.077C286.987 252.806 287.845 253.162 288.849 253.162C289.82 253.162 290.694 252.757 291.066 252.061V253H293.3V241.329ZM300.755 249.196C300.755 250.248 299.978 251.025 299.007 251.025C298.036 251.025 297.259 250.297 297.259 249.196C297.259 248.144 298.036 247.399 299.007 247.399C299.978 247.399 300.755 248.095 300.755 249.196ZM303.038 241.329H300.804V246.363C300.432 245.7 299.557 245.279 298.586 245.279C297.583 245.279 296.725 245.651 295.996 246.379C295.284 247.108 294.928 248.063 294.928 249.245C294.928 250.394 295.284 251.349 295.996 252.077C296.725 252.806 297.583 253.162 298.586 253.162C299.557 253.162 300.432 252.757 300.804 252.061V253H303.038V241.329ZM316.889 253V245.441H314.655V246.282C314.137 245.554 313.166 245.279 312.454 245.279C311.434 245.279 310.544 245.651 309.767 246.379C308.99 247.108 308.601 248.047 308.601 249.212C308.601 250.378 308.99 251.333 309.767 252.061C310.544 252.79 311.434 253.146 312.454 253.146C312.81 253.146 313.215 253.065 313.652 252.887C314.105 252.709 314.445 252.466 314.655 252.142V253H316.889ZM312.826 251.009C312.324 251.009 311.887 250.847 311.499 250.507C311.127 250.167 310.932 249.73 310.932 249.212C310.932 248.694 311.127 248.273 311.499 247.933C311.887 247.593 312.324 247.415 312.826 247.415C313.797 247.415 314.655 248.128 314.655 249.212C314.655 250.297 313.797 251.009 312.826 251.009ZM324.357 249.196C324.357 250.248 323.58 251.025 322.608 251.025C321.637 251.025 320.86 250.297 320.86 249.196C320.86 248.144 321.637 247.399 322.608 247.399C323.58 247.399 324.357 248.095 324.357 249.196ZM326.639 241.329H324.405V246.363C324.033 245.7 323.159 245.279 322.187 245.279C321.184 245.279 320.326 245.651 319.597 246.379C318.885 247.108 318.529 248.063 318.529 249.245C318.529 250.394 318.885 251.349 319.597 252.077C320.326 252.806 321.184 253.162 322.187 253.162C323.159 253.162 324.033 252.757 324.405 252.061V253H326.639V241.329ZM332.832 253L336.037 245.441H333.625L331.877 250.135L330.112 245.441H327.716L330.905 253H332.832ZM342.265 250.507C341.893 250.977 341.342 251.219 340.614 251.219C339.724 251.219 338.866 250.782 338.752 249.957H344.288C344.305 249.698 344.321 249.471 344.321 249.261C344.321 248.079 343.948 247.124 343.204 246.396C342.475 245.651 341.553 245.279 340.452 245.279C339.335 245.279 338.396 245.635 337.635 246.363C336.875 247.092 336.502 248.031 336.502 249.196C336.502 250.361 336.875 251.317 337.635 252.061C338.396 252.79 339.335 253.162 340.452 253.162C342.055 253.162 343.204 252.644 343.9 251.624L342.265 250.507ZM338.785 248.548C339.141 246.816 341.828 246.833 342.055 248.548H338.785ZM348.105 250.361C348.105 248.354 348.737 247.351 349.983 247.351C350.436 247.351 350.825 247.432 351.132 247.577L351.537 245.554C351.165 245.376 350.744 245.279 350.242 245.279C349.384 245.279 348.478 245.959 348.105 247.27V245.441H345.855V253H348.105V250.361ZM355.646 242.543H353.412V245.441H352.037V247.221H353.412V253H355.646V247.221H357.233V245.441H355.646V242.543ZM358.612 245.441V253H360.846V245.441H358.612ZM359.729 241.329C358.952 241.329 358.321 241.912 358.321 242.64C358.321 243.369 358.952 243.967 359.729 243.967C360.49 243.967 361.105 243.369 361.105 242.64C361.105 241.912 360.49 241.329 359.729 241.329ZM365.858 250.151C366.392 250.297 366.603 250.475 366.603 250.799C366.603 251.171 366.198 251.414 365.68 251.43C365.081 251.43 364.579 251.009 364.563 250.556H362.459C362.475 251.349 362.783 251.996 363.414 252.466C364.045 252.935 364.79 253.162 365.615 253.162C366.49 253.162 367.25 252.951 367.898 252.547C368.561 252.142 368.885 251.559 368.885 250.799C368.885 250.345 368.82 249.924 368.157 249.293C367.833 248.986 367.396 248.743 366.829 248.597L365.551 248.257C365.13 248.144 364.903 247.966 364.887 247.691C364.871 247.351 365.178 247.124 365.68 247.124C366.247 247.124 366.522 247.351 366.538 247.788H368.659C368.642 246.93 368.335 246.298 367.736 245.894C367.137 245.489 366.409 245.279 365.551 245.279C364.757 245.279 364.078 245.505 363.495 245.942C362.912 246.379 362.621 246.865 362.605 247.432C362.588 247.901 362.621 248.16 362.864 248.678C363.123 249.18 363.819 249.617 364.871 249.892L365.858 250.151ZM375.778 250.507C375.405 250.977 374.855 251.219 374.127 251.219C373.236 251.219 372.378 250.782 372.265 249.957H377.801C377.817 249.698 377.834 249.471 377.834 249.261C377.834 248.079 377.461 247.124 376.717 246.396C375.988 245.651 375.065 245.279 373.965 245.279C372.848 245.279 371.909 245.635 371.148 246.363C370.387 247.092 370.015 248.031 370.015 249.196C370.015 250.361 370.387 251.317 371.148 252.061C371.909 252.79 372.848 253.162 373.965 253.162C375.567 253.162 376.717 252.644 377.413 251.624L375.778 250.507ZM372.297 248.548C372.654 246.816 375.341 246.833 375.567 248.548H372.297ZM381.618 250.361C381.618 248.354 382.249 247.351 383.496 247.351C383.949 247.351 384.338 247.432 384.645 247.577L385.05 245.554C384.678 245.376 384.257 245.279 383.755 245.279C382.897 245.279 381.99 245.959 381.618 247.27V245.441H379.368V253H381.618V250.361ZM397.62 253V245.441H395.386V246.282C394.868 245.554 393.897 245.279 393.185 245.279C392.165 245.279 391.275 245.651 390.498 246.379C389.721 247.108 389.332 248.047 389.332 249.212C389.332 250.378 389.721 251.333 390.498 252.061C391.275 252.79 392.165 253.146 393.185 253.146C393.541 253.146 393.946 253.065 394.383 252.887C394.836 252.709 395.176 252.466 395.386 252.142V253H397.62ZM393.557 251.009C393.055 251.009 392.618 250.847 392.23 250.507C391.858 250.167 391.663 249.73 391.663 249.212C391.663 248.694 391.858 248.273 392.23 247.933C392.618 247.593 393.055 247.415 393.557 247.415C394.528 247.415 395.386 248.128 395.386 249.212C395.386 250.297 394.528 251.009 393.557 251.009ZM403.355 245.279C402.239 245.279 401.267 245.651 400.458 246.379C399.649 247.108 399.244 248.047 399.244 249.196C399.244 250.345 399.649 251.3 400.458 252.045C401.267 252.79 402.239 253.162 403.355 253.162C404.715 253.162 405.929 252.563 406.641 251.543L404.812 250.248C404.489 250.75 404.003 251.009 403.355 251.009C402.854 251.009 402.417 250.847 402.044 250.507C401.672 250.167 401.478 249.73 401.478 249.196C401.478 248.678 401.672 248.257 402.044 247.933C402.417 247.593 402.854 247.432 403.355 247.432C404.003 247.432 404.489 247.691 404.812 248.192L406.641 246.881C405.913 245.861 404.699 245.279 403.355 245.279ZM411.765 245.279C410.648 245.279 409.677 245.651 408.868 246.379C408.058 247.108 407.654 248.047 407.654 249.196C407.654 250.345 408.058 251.3 408.868 252.045C409.677 252.79 410.648 253.162 411.765 253.162C413.125 253.162 414.339 252.563 415.051 251.543L413.222 250.248C412.898 250.75 412.413 251.009 411.765 251.009C411.263 251.009 410.826 250.847 410.454 250.507C410.082 250.167 409.888 249.73 409.888 249.196C409.888 248.678 410.082 248.257 410.454 247.933C410.826 247.593 411.263 247.432 411.765 247.432C412.413 247.432 412.898 247.691 413.222 248.192L415.051 246.881C414.323 245.861 413.109 245.279 411.765 245.279ZM419.981 250.928C419.026 250.928 418.281 250.232 418.281 249.196C418.281 248.209 419.026 247.48 419.981 247.48C420.936 247.48 421.697 248.209 421.697 249.196C421.697 250.232 420.952 250.928 419.981 250.928ZM422.765 252.045C423.526 251.317 423.914 250.361 423.914 249.196C423.914 248.031 423.526 247.092 422.765 246.363C422.004 245.635 421.082 245.279 419.981 245.279C418.88 245.279 417.957 245.635 417.197 246.363C416.436 247.092 416.063 248.031 416.063 249.196C416.063 250.361 416.436 251.317 417.197 252.045C417.957 252.773 418.88 253.129 419.981 253.129C421.082 253.129 422.004 252.773 422.765 252.045ZM430.4 249.439C430.4 250.491 429.817 250.977 429.04 250.977C428.376 250.977 427.696 250.556 427.696 249.471V245.441H425.446V249.957C425.446 252.029 426.677 253.162 428.441 253.162C429.202 253.162 430.011 252.692 430.4 251.964V253H432.65V245.441H430.4V249.439ZM436.977 249.002C436.977 247.982 437.447 247.464 438.37 247.464C439.163 247.464 439.681 247.998 439.681 248.969V253H441.931V248.484C441.931 246.363 440.911 245.279 439.163 245.279C438.272 245.279 437.382 245.78 436.977 246.541V245.441H434.727V253H436.977V249.002ZM446.874 242.543H444.64V245.441H443.264V247.221H444.64V253H446.874V247.221H448.46V245.441H446.874V242.543Z" fill="#333333"/>
<path fill-rule="evenodd" clip-rule="evenodd" d="M647.42 242.531L649.09 240.861L653.43 245.202L657.771 240.861L659.44 242.531L655.1 246.871L659.44 251.212L657.771 252.882L653.43 248.541L649.09 252.882L647.42 251.212L651.761 246.871L647.42 242.531Z" fill="#161823" fill-opacity="0.34"/>
<rect x="274" y="347" width="187" height="59" rx="6.70616" fill="#F0F0F0"/>
<rect x="473" y="347" width="187" height="59" rx="5" fill="#F0F0F0"/>
<rect x="453" y="438.113" width="98.4234" height="28.2967" rx="14.1484" fill="white"/>
<path d="M490.387 453.732C489.945 454.378 489.243 454.808 488.438 454.808C487.792 454.808 487.26 454.57 486.829 454.106C486.398 453.63 486.183 453.052 486.183 452.372C486.183 451.681 486.398 451.103 486.829 450.639C487.26 450.163 487.792 449.925 488.438 449.925C489.243 449.925 489.877 450.265 490.342 450.945L491.69 450.015C490.999 449.007 489.798 448.361 488.438 448.361C487.328 448.361 486.398 448.746 485.639 449.528C484.891 450.31 484.517 451.25 484.517 452.372C484.517 453.483 484.891 454.423 485.639 455.205C486.398 455.987 487.328 456.372 488.438 456.372C489.832 456.372 491.033 455.715 491.724 454.661L490.387 453.732ZM498.185 456.259V450.967H496.622V451.556C496.259 451.046 495.579 450.854 495.081 450.854C494.367 450.854 493.743 451.114 493.2 451.624C492.656 452.134 492.384 452.791 492.384 453.607C492.384 454.423 492.656 455.092 493.2 455.602C493.743 456.111 494.367 456.361 495.081 456.361C495.33 456.361 495.613 456.304 495.919 456.179C496.236 456.055 496.474 455.885 496.622 455.658V456.259H498.185ZM495.341 454.865C494.99 454.865 494.684 454.752 494.412 454.514C494.151 454.276 494.015 453.97 494.015 453.607C494.015 453.245 494.151 452.95 494.412 452.712C494.684 452.474 494.99 452.35 495.341 452.35C496.021 452.35 496.622 452.848 496.622 453.607C496.622 454.366 496.021 454.865 495.341 454.865ZM501.214 453.46C501.214 452.746 501.543 452.384 502.189 452.384C502.744 452.384 503.106 452.757 503.106 453.437V456.259H504.681V453.097C504.681 451.613 503.968 450.854 502.744 450.854C502.121 450.854 501.497 451.205 501.214 451.738V450.967H499.639V456.259H501.214V453.46ZM508.64 450.854C507.858 450.854 507.178 451.114 506.612 451.624C506.045 452.134 505.762 452.791 505.762 453.596C505.762 454.4 506.045 455.069 506.612 455.59C507.178 456.111 507.858 456.372 508.64 456.372C509.592 456.372 510.442 455.953 510.94 455.239L509.66 454.333C509.433 454.684 509.093 454.865 508.64 454.865C508.289 454.865 507.983 454.752 507.722 454.514C507.462 454.276 507.326 453.97 507.326 453.596C507.326 453.233 507.462 452.939 507.722 452.712C507.983 452.474 508.289 452.361 508.64 452.361C509.093 452.361 509.433 452.542 509.66 452.893L510.94 451.976C510.43 451.262 509.581 450.854 508.64 450.854ZM515.683 454.514C515.422 454.842 515.037 455.012 514.527 455.012C513.904 455.012 513.303 454.706 513.224 454.129H517.099C517.11 453.947 517.122 453.789 517.122 453.641C517.122 452.814 516.861 452.146 516.34 451.636C515.83 451.114 515.184 450.854 514.414 450.854C513.632 450.854 512.975 451.103 512.442 451.613C511.909 452.123 511.649 452.78 511.649 453.596C511.649 454.412 511.909 455.08 512.442 455.602C512.975 456.111 513.632 456.372 514.414 456.372C515.535 456.372 516.34 456.01 516.827 455.296L515.683 454.514ZM513.246 453.143C513.496 451.93 515.377 451.942 515.535 453.143H513.246ZM518.196 456.259H519.771V448.089H518.196V456.259Z" fill="#161823"/>
<rect x="453.5" y="438.613" width="97.4234" height="27.2967" rx="13.6484" stroke="#161823" stroke-opacity="0.12"/>
<path d="M297.583 377.938C297.051 378.618 296.348 378.958 295.476 378.958C294.705 378.958 294.059 378.686 293.527 378.13C292.994 377.575 292.734 376.907 292.734 376.113C292.734 375.32 292.994 374.652 293.527 374.096C294.059 373.541 294.705 373.258 295.476 373.258C296.292 373.258 296.983 373.587 297.561 374.232L298.49 373.507C297.776 372.635 296.7 372.102 295.476 372.102C294.377 372.102 293.436 372.499 292.677 373.281C291.918 374.062 291.533 375.003 291.533 376.113C291.533 377.224 291.918 378.164 292.677 378.946C293.436 379.728 294.377 380.113 295.476 380.113C296.734 380.113 297.821 379.581 298.513 378.674L297.583 377.938ZM300.729 378.096C300.729 376.612 301.193 375.694 302.145 375.694C302.428 375.694 302.689 375.751 302.927 375.875L303.12 374.799C302.916 374.663 302.598 374.595 302.179 374.595C301.465 374.595 300.989 375.037 300.729 375.921V374.708H299.562V380H300.729V378.096ZM309.008 377.337C309.008 376.51 308.759 375.853 308.26 375.354C307.761 374.844 307.127 374.595 306.356 374.595C305.586 374.595 304.94 374.844 304.419 375.354C303.898 375.853 303.637 376.51 303.637 377.337C303.637 378.164 303.898 378.833 304.419 379.343C304.94 379.853 305.586 380.113 306.356 380.113C307.41 380.113 308.351 379.649 308.804 378.754L307.852 378.334C307.58 378.822 307.014 379.094 306.413 379.094C305.552 379.094 304.895 378.584 304.793 377.768H308.997C309.008 377.688 309.008 377.552 309.008 377.337ZM304.793 376.918C304.895 376.113 305.529 375.615 306.356 375.615C307.161 375.615 307.761 376.102 307.863 376.918H304.793ZM315.52 380V374.708H314.364V375.456C314.013 374.901 313.277 374.595 312.585 374.595C311.849 374.595 311.214 374.856 310.682 375.366C310.161 375.875 309.9 376.533 309.9 377.349C309.9 378.164 310.161 378.833 310.682 379.343C311.214 379.853 311.849 380.113 312.585 380.113C313.277 380.113 314.036 379.785 314.364 379.241V380H315.52ZM314.353 377.337C314.353 378.334 313.628 378.98 312.721 378.98C312.268 378.98 311.883 378.822 311.566 378.516C311.26 378.21 311.101 377.813 311.101 377.337C311.101 376.861 311.26 376.476 311.566 376.181C311.883 375.875 312.268 375.728 312.721 375.728C313.152 375.728 313.526 375.875 313.855 376.17C314.183 376.453 314.353 376.85 314.353 377.337ZM317.575 372.703V374.708H316.623V375.672H317.575V380H318.742V375.672H319.864V374.708H318.742V372.703H317.575ZM325.916 377.337C325.916 376.51 325.667 375.853 325.168 375.354C324.67 374.844 324.035 374.595 323.265 374.595C322.494 374.595 321.848 374.844 321.327 375.354C320.806 375.853 320.545 376.51 320.545 377.337C320.545 378.164 320.806 378.833 321.327 379.343C321.848 379.853 322.494 380.113 323.265 380.113C324.318 380.113 325.259 379.649 325.712 378.754L324.76 378.334C324.488 378.822 323.922 379.094 323.321 379.094C322.46 379.094 321.803 378.584 321.701 377.768H325.905C325.916 377.688 325.916 377.552 325.916 377.337ZM321.701 376.918C321.803 376.113 322.437 375.615 323.265 375.615C324.069 375.615 324.67 376.102 324.772 376.918H321.701ZM334.705 372.193V377.734L331.385 372.193H330.229V380H331.43V374.414L334.784 380H335.906V372.193H334.705ZM342.647 377.337C342.647 376.51 342.398 375.853 341.899 375.354C341.401 374.844 340.766 374.595 339.996 374.595C339.225 374.595 338.579 374.844 338.058 375.354C337.537 375.853 337.276 376.51 337.276 377.337C337.276 378.164 337.537 378.833 338.058 379.343C338.579 379.853 339.225 380.113 339.996 380.113C341.049 380.113 341.99 379.649 342.443 378.754L341.491 378.334C341.219 378.822 340.653 379.094 340.052 379.094C339.191 379.094 338.534 378.584 338.432 377.768H342.636C342.647 377.688 342.647 377.552 342.647 377.337ZM338.432 376.918C338.534 376.113 339.168 375.615 339.996 375.615C340.8 375.615 341.401 376.102 341.503 376.918H338.432ZM350.396 374.708L349.161 378.278L347.938 374.708H346.85L345.626 378.278L344.402 374.708H343.156L345.15 380H346.102L347.394 376.249L348.742 380H349.705L351.643 374.708H350.396Z" fill="#161823"/>
<path d="M494.023 373.303C495.586 373.235 495.609 376.113 493.977 376.034H492.232V373.303H494.023ZM494.43 377.088C495.099 377.009 495.609 376.748 495.938 376.295C496.277 375.841 496.447 375.298 496.447 374.674C496.447 373.983 496.243 373.405 495.847 372.918C495.45 372.431 494.85 372.193 494.068 372.193H491.02V380H492.232V377.133H493.071L495.02 380H496.481L494.43 377.088ZM502.652 377.337C502.652 376.51 502.403 375.853 501.904 375.354C501.406 374.844 500.771 374.595 500.001 374.595C499.23 374.595 498.584 374.844 498.063 375.354C497.542 375.853 497.281 376.51 497.281 377.337C497.281 378.164 497.542 378.833 498.063 379.343C498.584 379.853 499.23 380.113 500.001 380.113C501.054 380.113 501.995 379.649 502.448 378.754L501.496 378.334C501.224 378.822 500.658 379.094 500.057 379.094C499.196 379.094 498.539 378.584 498.437 377.768H502.641C502.652 377.688 502.652 377.552 502.652 377.337ZM498.437 376.918C498.539 376.113 499.174 375.615 500.001 375.615C500.805 375.615 501.406 376.102 501.508 376.918H498.437ZM507.941 377.383C507.941 377.87 507.782 378.266 507.454 378.561C507.136 378.844 506.762 378.992 506.332 378.992C505.425 378.992 504.757 378.334 504.757 377.383C504.757 376.895 504.904 376.499 505.21 376.193C505.516 375.887 505.89 375.728 506.332 375.728C507.238 375.728 507.941 376.385 507.941 377.383ZM507.952 375.49C507.646 374.935 506.921 374.595 506.184 374.595C505.448 374.595 504.825 374.856 504.315 375.366C503.805 375.875 503.556 376.544 503.556 377.36C503.556 378.187 503.805 378.844 504.315 379.354C504.825 379.864 505.448 380.113 506.184 380.113C506.944 380.113 507.646 379.796 507.952 379.241V382.572H509.119V374.708H507.952V375.49ZM514.337 377.552C514.337 378.538 513.747 378.98 512.977 378.98C512.331 378.98 511.878 378.504 511.878 377.654V374.708H510.711V377.79C510.699 379.275 511.458 380.113 512.762 380.113C513.362 380.113 514.053 379.785 514.337 379.229V380H515.504V374.708H514.337V377.552ZM522.15 377.337C522.15 376.51 521.9 375.853 521.402 375.354C520.903 374.844 520.269 374.595 519.498 374.595C518.728 374.595 518.082 374.844 517.561 375.354C517.039 375.853 516.779 376.51 516.779 377.337C516.779 378.164 517.039 378.833 517.561 379.343C518.082 379.853 518.728 380.113 519.498 380.113C520.552 380.113 521.492 379.649 521.946 378.754L520.994 378.334C520.722 378.822 520.155 379.094 519.555 379.094C518.694 379.094 518.036 378.584 517.934 377.768H522.138C522.15 377.688 522.15 377.552 522.15 377.337ZM517.934 376.918C518.036 376.113 518.671 375.615 519.498 375.615C520.303 375.615 520.903 376.102 521.005 376.918H517.934ZM525.331 377.881C525.818 377.994 526.067 378.198 526.067 378.504C526.067 378.901 525.671 379.139 525.127 379.139C524.526 379.139 524.141 378.844 524.084 378.38H523.008C523.019 378.912 523.223 379.331 523.631 379.649C524.039 379.955 524.503 380.113 525.036 380.113C526.271 380.113 527.144 379.513 527.144 378.516C527.144 377.711 526.679 377.201 525.761 376.975L524.945 376.771C524.571 376.669 524.356 376.533 524.3 376.363C524.243 376.193 524.254 376.034 524.345 375.887C524.447 375.706 524.787 375.592 525.093 375.592C525.489 375.592 525.818 375.785 525.863 376.159H526.974C526.917 375.105 526.09 374.595 525.047 374.595C524.56 374.595 524.13 374.731 523.756 375.003C523.382 375.264 523.189 375.592 523.155 375.989C523.076 376.861 523.518 377.405 524.617 377.711L525.331 377.881ZM528.836 372.703V374.708H527.884V375.672H528.836V380H530.003V375.672H531.125V374.708H530.003V372.703H528.836ZM540.972 380L538.026 372.193H536.723L533.777 380H535.057L535.805 378.051H538.955L539.703 380H540.972ZM538.547 376.975H536.213L537.38 373.7L538.547 376.975ZM544.265 374.595C543.483 374.595 542.815 374.844 542.26 375.354C541.716 375.864 541.444 376.521 541.444 377.337C541.444 378.153 541.716 378.822 542.271 379.343C542.826 379.853 543.483 380.113 544.265 380.113C545.149 380.113 545.852 379.807 546.373 379.184L545.455 378.47C545.149 378.822 544.752 378.992 544.265 378.992C543.812 378.992 543.415 378.833 543.087 378.527C542.758 378.221 542.6 377.824 542.6 377.337C542.6 376.861 542.758 376.476 543.087 376.181C543.415 375.875 543.801 375.728 544.265 375.728C544.764 375.728 545.16 375.898 545.455 376.238L546.361 375.513C545.84 374.901 545.138 374.595 544.265 374.595ZM549.975 374.595C549.193 374.595 548.525 374.844 547.969 375.354C547.426 375.864 547.154 376.521 547.154 377.337C547.154 378.153 547.426 378.822 547.981 379.343C548.536 379.853 549.193 380.113 549.975 380.113C550.859 380.113 551.561 379.807 552.083 379.184L551.165 378.47C550.859 378.822 550.462 378.992 549.975 378.992C549.522 378.992 549.125 378.833 548.797 378.527C548.468 378.221 548.309 377.824 548.309 377.337C548.309 376.861 548.468 376.476 548.797 376.181C549.125 375.875 549.51 375.728 549.975 375.728C550.474 375.728 550.87 375.898 551.165 376.238L552.071 375.513C551.55 374.901 550.848 374.595 549.975 374.595ZM558.234 377.337C558.234 376.51 557.985 375.853 557.486 375.354C556.988 374.844 556.353 374.595 555.583 374.595C554.812 374.595 554.166 374.844 553.645 375.354C553.124 375.853 552.863 376.51 552.863 377.337C552.863 378.164 553.124 378.833 553.645 379.343C554.166 379.853 554.812 380.113 555.583 380.113C556.637 380.113 557.577 379.649 558.03 378.754L557.079 378.334C556.807 378.822 556.24 379.094 555.64 379.094C554.778 379.094 554.121 378.584 554.019 377.768H558.223C558.234 377.688 558.234 377.552 558.234 377.337ZM554.019 376.918C554.121 376.113 554.756 375.615 555.583 375.615C556.387 375.615 556.988 376.102 557.09 376.918H554.019ZM561.415 377.881C561.903 377.994 562.152 378.198 562.152 378.504C562.152 378.901 561.755 379.139 561.211 379.139C560.611 379.139 560.226 378.844 560.169 378.38H559.092C559.104 378.912 559.308 379.331 559.716 379.649C560.124 379.955 560.588 380.113 561.121 380.113C562.356 380.113 563.228 379.513 563.228 378.516C563.228 377.711 562.764 377.201 561.846 376.975L561.03 376.771C560.656 376.669 560.441 376.533 560.384 376.363C560.328 376.193 560.339 376.034 560.43 375.887C560.532 375.706 560.871 375.592 561.177 375.592C561.574 375.592 561.903 375.785 561.948 376.159H563.058C563.002 375.105 562.175 374.595 561.132 374.595C560.645 374.595 560.214 374.731 559.84 375.003C559.466 375.264 559.274 375.592 559.24 375.989C559.16 376.861 559.602 377.405 560.701 377.711L561.415 377.881ZM566.45 377.881C566.937 377.994 567.187 378.198 567.187 378.504C567.187 378.901 566.79 379.139 566.246 379.139C565.646 379.139 565.26 378.844 565.204 378.38H564.127C564.139 378.912 564.343 379.331 564.751 379.649C565.158 379.955 565.623 380.113 566.156 380.113C567.391 380.113 568.263 379.513 568.263 378.516C568.263 377.711 567.799 377.201 566.881 376.975L566.065 376.771C565.691 376.669 565.476 376.533 565.419 376.363C565.362 376.193 565.374 376.034 565.464 375.887C565.566 375.706 565.906 375.592 566.212 375.592C566.609 375.592 566.937 375.785 566.983 376.159H568.093C568.037 375.105 567.209 374.595 566.167 374.595C565.68 374.595 565.249 374.731 564.875 375.003C564.501 375.264 564.309 375.592 564.275 375.989C564.195 376.861 564.637 377.405 565.736 377.711L566.45 377.881Z" fill="#161823"/>
<rect x="561.266" y="438" width="98.4234" height="28.5227" rx="14.2614" fill="#89b93f"/>
<path d="M603.676 447.575V452.243L601.001 447.575H599.483V455.382H601.137V450.657L603.857 455.382H605.341V447.575H603.676ZM610.576 453.637C610.315 453.965 609.93 454.135 609.42 454.135C608.797 454.135 608.196 453.829 608.117 453.252H611.992C612.004 453.07 612.015 452.912 612.015 452.764C612.015 451.937 611.754 451.269 611.233 450.759C610.723 450.238 610.077 449.977 609.307 449.977C608.525 449.977 607.868 450.226 607.335 450.736C606.803 451.246 606.542 451.903 606.542 452.719C606.542 453.535 606.803 454.203 607.335 454.725C607.868 455.235 608.525 455.495 609.307 455.495C610.429 455.495 611.233 455.133 611.72 454.419L610.576 453.637ZM608.14 452.266C608.389 451.053 610.27 451.065 610.429 452.266H608.14ZM612.288 455.382H614.112L615.245 453.761L616.367 455.382H618.191L616.117 452.515L617.862 450.09H616.038L615.256 451.257L614.463 450.09H612.627L614.372 452.515L612.288 455.382ZM621.038 448.062H619.475V450.09H618.511V451.337H619.475V455.382H621.038V451.337H622.149V450.09H621.038V448.062Z" fill="white"/>
<rect x="274" y="285" width="260" height="10" rx="5" fill="#F0F0F0"/>
<rect x="274" y="305" width="220" height="10" rx="5" fill="#F0F0F0"/>
<path d="M633.358 363.781V369.252" stroke="white" stroke-width="2" stroke-linecap="round" stroke-linejoin="round"/>
<path fill-rule="evenodd" clip-rule="evenodd" d="M631.99 376.09L645.667 378.826L641.564 381.561L645.667 385.664L641.564 389.768L637.461 385.664L634.725 389.768L631.99 376.09Z" stroke="white" stroke-width="2" stroke-linecap="round" stroke-linejoin="round"/>
<path d="M643.029 367.787L639.16 371.656" stroke="white" stroke-width="2" stroke-linecap="round" stroke-linejoin="round"/>
<path d="M623.686 387.129L627.555 383.26" stroke="white" stroke-width="2" stroke-linecap="round" stroke-linejoin="round"/>
<path d="M619.68 377.458H625.151" stroke="white" stroke-width="2" stroke-linecap="round" stroke-linejoin="round"/>
<path d="M623.686 367.787L627.555 371.656" stroke="white" stroke-width="2" stroke-linecap="round" stroke-linejoin="round"/>
<circle cx="433" cy="377" r="13" stroke="white" stroke-width="2"/>
<path d="M432.8 370.778L432.784 382.772" stroke="white" stroke-width="2" stroke-linecap="round" stroke-linejoin="round"/>
<path d="M426.777 376.774H438.771" stroke="white" stroke-width="2" stroke-linecap="round" stroke-linejoin="round"/>
<path fill-rule="evenodd" clip-rule="evenodd" d="M392.314 389.979L419.377 405.848C420.713 406.684 420.212 408.688 418.708 408.855L405.177 411.027L398.495 423.054C397.827 424.224 395.822 424.057 395.655 422.553L389.808 391.65C389.641 390.314 391.145 389.311 392.314 389.98L392.314 389.979Z" fill="black"/>
<defs>
<filter id="filter0_d_1331_2367" x="12.327" y="39.375" width="476.337" height="386.337" filterUnits="userSpaceOnUse" color-interpolation-filters="sRGB">
<feFlood flood-opacity="0" result="BackgroundImageFix"/>
<feColorMatrix in="SourceAlpha" type="matrix" values="0 0 0 0 0 0 0 0 0 0 0 0 0 0 0 0 0 0 127 0" result="hardAlpha"/>
<feOffset dx="-2.00436" dy="20.0436"/>
<feGaussianBlur stdDeviation="10.0218"/>
<feComposite in2="hardAlpha" operator="out"/>
<feColorMatrix type="matrix" values="0 0 0 0 0 0 0 0 0 0 0 0 0 0 0 0 0 0 0.05 0"/>
<feBlend mode="normal" in2="BackgroundImageFix" result="effect1_dropShadow_1331_2367"/>
<feBlend mode="normal" in="SourceGraphic" in2="effect1_dropShadow_1331_2367" result="shape"/>
</filter>
<filter id="filter1_d_1331_2367" x="221.327" y="212.375" width="476.337" height="325.337" filterUnits="userSpaceOnUse" color-interpolation-filters="sRGB">
<feFlood flood-opacity="0" result="BackgroundImageFix"/>
<feColorMatrix in="SourceAlpha" type="matrix" values="0 0 0 0 0 0 0 0 0 0 0 0 0 0 0 0 0 0 127 0" result="hardAlpha"/>
<feOffset dx="-2.00436" dy="20.0436"/>
<feGaussianBlur stdDeviation="10.0218"/>
<feComposite in2="hardAlpha" operator="out"/>
<feColorMatrix type="matrix" values="0 0 0 0 0 0 0 0 0 0 0 0 0 0 0 0 0 0 0.05 0"/>
<feBlend mode="normal" in2="BackgroundImageFix" result="effect1_dropShadow_1331_2367"/>
<feBlend mode="normal" in="SourceGraphic" in2="effect1_dropShadow_1331_2367" result="shape"/>
</filter>
</defs>
</svg>
