<svg width="18" height="18" viewBox="0 0 18 18" fill="none" xmlns="http://www.w3.org/2000/svg">
<path d="M1.71788 1.92969C2.16022 1.92969 2.58912 2.08176 2.93268 2.3604C3.27623 2.63903 3.51356 3.0273 3.60488 3.46012L3.87016 4.7154H3.87445L4.73588 8.8404L5.38859 12.0011H13.4689L14.7075 6.00112H5.01874L4.75002 4.7154H14.7079C14.8988 4.7154 15.0873 4.75791 15.2597 4.83985C15.4322 4.9218 15.5842 5.04111 15.7048 5.18914C15.8253 5.33716 15.9114 5.51018 15.9568 5.69563C16.0022 5.88107 16.0057 6.07429 15.967 6.26126L14.7285 12.2613C14.6686 12.551 14.5106 12.8113 14.2811 12.9981C14.0517 13.185 13.7648 13.2869 13.4689 13.2868H5.38859C5.09276 13.2868 4.80598 13.1848 4.57661 12.998C4.34724 12.8112 4.18931 12.551 4.12945 12.2613L2.91231 6.36669L2.90416 6.3684L2.34702 3.7254C2.31655 3.58113 2.2374 3.45172 2.12286 3.35887C2.00831 3.26602 1.86533 3.21536 1.71788 3.2154H0.618164V1.92969H1.71788ZM12.4287 8.14397V9.42969H6.42874V8.14397H12.4287ZM5.35731 16.2868C5.49802 16.2868 5.63736 16.2591 5.76737 16.2053C5.89738 16.1515 6.0155 16.0726 6.11501 15.9731C6.21452 15.8736 6.29345 15.7555 6.3473 15.6255C6.40116 15.4955 6.42887 15.3561 6.42887 15.2154C6.42887 15.0747 6.40116 14.9354 6.3473 14.8054C6.29345 14.6754 6.21452 14.5572 6.11501 14.4577C6.0155 14.3582 5.89738 14.2793 5.76737 14.2255C5.63736 14.1717 5.49802 14.144 5.35731 14.144C5.07317 14.144 4.80068 14.2569 4.59978 14.4578C4.39888 14.6588 4.28602 14.9313 4.28602 15.2154C4.28602 15.4995 4.39888 15.772 4.59978 15.973C4.80068 16.1739 5.07317 16.2868 5.35731 16.2868ZM13.0716 16.2868C13.2123 16.2868 13.3516 16.2591 13.4817 16.2053C13.6117 16.1515 13.7298 16.0726 13.8293 15.9731C13.9288 15.8736 14.0077 15.7555 14.0616 15.6255C14.1154 15.4955 14.1432 15.3561 14.1432 15.2154C14.1432 15.0747 14.1154 14.9354 14.0616 14.8054C14.0077 14.6754 13.9288 14.5572 13.8293 14.4577C13.7298 14.3582 13.6117 14.2793 13.4817 14.2255C13.3516 14.1717 13.2123 14.144 13.0716 14.144C12.7875 14.144 12.515 14.2569 12.3141 14.4578C12.1132 14.6588 12.0003 14.9313 12.0003 15.2154C12.0003 15.4995 12.1132 15.772 12.3141 15.973C12.515 16.1739 12.7875 16.2868 13.0716 16.2868Z" fill="black"/>
</svg>
