<svg width="713" height="529" viewBox="0 0 713 529" fill="none" xmlns="http://www.w3.org/2000/svg">
<g filter="url(#filter0_d_1331_2319)">
<rect x="35" y="61" width="435" height="276" rx="10" fill="white"/>
<rect x="35" y="61" width="435" height="276" rx="10" stroke="#E0E0E0" stroke-width="1.25"/>
</g>
<path d="M70.3256 90.4207L71.5073 94.3057H69.1925L70.3256 90.4207ZM73.2555 99H75.7484L71.6206 87.847H69.0468L64.9029 99H67.4281L68.4155 96.3615H72.2681L73.2555 99ZM82.0177 95.196C82.0177 96.2482 81.2407 97.0251 80.2694 97.0251C79.2982 97.0251 78.5212 96.2967 78.5212 95.196C78.5212 94.1438 79.2982 93.3992 80.2694 93.3992C81.2407 93.3992 82.0177 94.0952 82.0177 95.196ZM84.3001 87.329H82.0662V92.3632C81.6939 91.6995 80.8198 91.2787 79.8486 91.2787C78.8449 91.2787 77.987 91.651 77.2586 92.3794C76.5463 93.1078 76.1902 94.0629 76.1902 95.2445C76.1902 96.3938 76.5463 97.3489 77.2586 98.0773C77.987 98.8058 78.8449 99.1619 79.8486 99.1619C80.8198 99.1619 81.6939 98.7572 82.0662 98.0611V99H84.3001V87.329ZM91.7553 95.196C91.7553 96.2482 90.9783 97.0251 90.0071 97.0251C89.0359 97.0251 88.2589 96.2967 88.2589 95.196C88.2589 94.1438 89.0359 93.3992 90.0071 93.3992C90.9783 93.3992 91.7553 94.0952 91.7553 95.196ZM94.0377 87.329H91.8039V92.3632C91.4316 91.6995 90.5575 91.2787 89.5862 91.2787C88.5826 91.2787 87.7247 91.651 86.9963 92.3794C86.284 93.1078 85.9279 94.0629 85.9279 95.2445C85.9279 96.3938 86.284 97.3489 86.9963 98.0773C87.7247 98.8058 88.5826 99.1619 89.5862 99.1619C90.5575 99.1619 91.4316 98.7572 91.8039 98.0611V99H94.0377V87.329ZM102.337 95.2445C102.337 94.1924 103.114 93.4154 104.085 93.4154C105.056 93.4154 105.833 94.16 105.833 95.2445C105.833 96.2967 105.056 97.0413 104.085 97.0413C103.114 97.0413 102.337 96.3453 102.337 95.2445ZM100.055 102.707H102.288V98.0773C102.661 98.741 103.535 99.1619 104.506 99.1619C105.51 99.1619 106.368 98.7896 107.08 98.0611C107.808 97.3327 108.164 96.3777 108.164 95.196C108.164 94.0467 107.808 93.1078 107.08 92.3794C106.368 91.651 105.51 91.2787 104.506 91.2787C103.535 91.2787 102.661 91.6833 102.288 92.3794V91.4405H100.055V102.707ZM117.627 99V91.4405H115.393V92.2823C114.875 91.5538 113.904 91.2787 113.192 91.2787C112.172 91.2787 111.281 91.651 110.505 92.3794C109.728 93.1078 109.339 94.0467 109.339 95.2122C109.339 96.3777 109.728 97.3327 110.505 98.0611C111.281 98.7896 112.172 99.1457 113.192 99.1457C113.548 99.1457 113.952 99.0647 114.389 98.8867C114.843 98.7086 115.183 98.4658 115.393 98.1421V99H117.627ZM113.564 97.009C113.062 97.009 112.625 96.8471 112.237 96.5072C111.864 96.1672 111.67 95.7302 111.67 95.2122C111.67 94.6942 111.864 94.2733 112.237 93.9334C112.625 93.5934 113.062 93.4154 113.564 93.4154C114.535 93.4154 115.393 94.1276 115.393 95.2122C115.393 96.2967 114.535 97.009 113.564 97.009ZM121.954 96.3615C121.954 94.3542 122.585 93.3506 123.832 93.3506C124.285 93.3506 124.673 93.4316 124.981 93.5773L125.386 91.5538C125.013 91.3758 124.592 91.2787 124.091 91.2787C123.233 91.2787 122.326 91.9585 121.954 93.2697V91.4405H119.704V99H121.954V96.3615ZM129.495 88.543H127.261V91.4405H125.885V93.2211H127.261V99H129.495V93.2211H131.081V91.4405H129.495V88.543ZM134.711 95.0017C134.711 93.9819 135.18 93.4639 136.103 93.4639C136.896 93.4639 137.414 93.9981 137.414 94.9694V99H139.664V94.4837C139.664 92.3632 138.644 91.2787 136.896 91.2787C136.006 91.2787 135.116 91.7805 134.711 92.5413V91.4405H132.461V99H134.711V95.0017ZM146.97 96.5072C146.598 96.9766 146.048 97.2194 145.319 97.2194C144.429 97.2194 143.571 96.7823 143.458 95.9568H148.994C149.01 95.6978 149.026 95.4712 149.026 95.2607C149.026 94.0791 148.654 93.124 147.909 92.3956C147.181 91.651 146.258 91.2787 145.157 91.2787C144.041 91.2787 143.102 91.6348 142.341 92.3632C141.58 93.0916 141.208 94.0305 141.208 95.196C141.208 96.3615 141.58 97.3165 142.341 98.0611C143.102 98.7896 144.041 99.1619 145.157 99.1619C146.76 99.1619 147.909 98.6439 148.605 97.6241L146.97 96.5072ZM143.49 94.5485C143.846 92.8165 146.533 92.8326 146.76 94.5485H143.49ZM152.811 96.3615C152.811 94.3542 153.442 93.3506 154.689 93.3506C155.142 93.3506 155.53 93.4316 155.838 93.5773L156.243 91.5538C155.87 91.3758 155.449 91.2787 154.948 91.2787C154.09 91.2787 153.183 91.9585 152.811 93.2697V91.4405H150.561V99H152.811V96.3615Z" fill="#333333"/>
<path fill-rule="evenodd" clip-rule="evenodd" d="M438.525 82.6219L440.194 80.9524L444.535 85.293L448.875 80.9524L450.545 82.6219L446.204 86.9625L450.545 91.3031L448.875 92.9726L444.535 88.6319L440.194 92.9726L438.525 91.3031L442.865 86.9625L438.525 82.6219Z" fill="#161823" fill-opacity="0.34"/>
<rect x="65" y="204" width="386" height="43" rx="5" fill="#F7F7F7"/>
<rect x="244" y="278.113" width="98.4234" height="28.2967" rx="14.1484" fill="white"/>
<path d="M281.387 293.732C280.945 294.378 280.243 294.809 279.438 294.809C278.792 294.809 278.26 294.571 277.829 294.106C277.398 293.63 277.183 293.052 277.183 292.372C277.183 291.681 277.398 291.103 277.829 290.639C278.26 290.163 278.792 289.925 279.438 289.925C280.243 289.925 280.877 290.265 281.342 290.945L282.69 290.016C281.999 289.007 280.798 288.361 279.438 288.361C278.328 288.361 277.398 288.747 276.639 289.528C275.891 290.31 275.517 291.251 275.517 292.372C275.517 293.483 275.891 294.423 276.639 295.205C277.398 295.987 278.328 296.372 279.438 296.372C280.832 296.372 282.033 295.715 282.724 294.661L281.387 293.732ZM289.185 296.259V290.967H287.622V291.557C287.259 291.047 286.579 290.854 286.081 290.854C285.367 290.854 284.743 291.115 284.2 291.625C283.656 292.135 283.384 292.792 283.384 293.608C283.384 294.423 283.656 295.092 284.2 295.602C284.743 296.112 285.367 296.361 286.081 296.361C286.33 296.361 286.613 296.304 286.919 296.18C287.236 296.055 287.474 295.885 287.622 295.658V296.259H289.185ZM286.341 294.865C285.99 294.865 285.684 294.752 285.412 294.514C285.151 294.276 285.015 293.97 285.015 293.608C285.015 293.245 285.151 292.95 285.412 292.712C285.684 292.474 285.99 292.35 286.341 292.35C287.021 292.35 287.622 292.848 287.622 293.608C287.622 294.367 287.021 294.865 286.341 294.865ZM292.214 293.46C292.214 292.746 292.543 292.384 293.189 292.384C293.744 292.384 294.106 292.758 294.106 293.438V296.259H295.681V293.098C295.681 291.613 294.968 290.854 293.744 290.854C293.121 290.854 292.497 291.205 292.214 291.738V290.967H290.639V296.259H292.214V293.46ZM299.64 290.854C298.858 290.854 298.178 291.115 297.612 291.625C297.045 292.135 296.762 292.792 296.762 293.596C296.762 294.401 297.045 295.069 297.612 295.59C298.178 296.112 298.858 296.372 299.64 296.372C300.592 296.372 301.442 295.953 301.94 295.239L300.66 294.333C300.433 294.684 300.093 294.865 299.64 294.865C299.289 294.865 298.983 294.752 298.722 294.514C298.462 294.276 298.326 293.97 298.326 293.596C298.326 293.234 298.462 292.939 298.722 292.712C298.983 292.474 299.289 292.361 299.64 292.361C300.093 292.361 300.433 292.542 300.66 292.894L301.94 291.976C301.43 291.262 300.581 290.854 299.64 290.854ZM306.683 294.514C306.422 294.843 306.037 295.013 305.527 295.013C304.904 295.013 304.303 294.707 304.224 294.129H308.099C308.11 293.947 308.122 293.789 308.122 293.642C308.122 292.814 307.861 292.146 307.34 291.636C306.83 291.115 306.184 290.854 305.414 290.854C304.632 290.854 303.975 291.103 303.442 291.613C302.909 292.123 302.649 292.78 302.649 293.596C302.649 294.412 302.909 295.081 303.442 295.602C303.975 296.112 304.632 296.372 305.414 296.372C306.535 296.372 307.34 296.01 307.827 295.296L306.683 294.514ZM304.246 293.143C304.496 291.931 306.377 291.942 306.535 293.143H304.246ZM309.196 296.259H310.771V288.089H309.196V296.259Z" fill="#161823"/>
<rect x="244.5" y="278.613" width="97.4234" height="27.2967" rx="13.6484" stroke="#161823" stroke-opacity="0.12"/>
<path d="M69.1245 184.485C69.8044 184.485 70.1783 185.085 70.1783 185.72C70.1783 186.354 69.7704 186.932 69.0792 186.932H67.4249V184.485H69.1245ZM67.4249 191V188.224H69.1472C69.963 188.224 70.5749 187.986 70.9942 187.499C71.4134 187.011 71.6287 186.411 71.6287 185.72C71.6287 185.029 71.4134 184.428 70.9942 183.941C70.5749 183.442 69.963 183.193 69.1472 183.193H65.9745V191H67.4249ZM77.9254 191V185.708H76.543V186.366C76.1918 185.833 75.4892 185.595 74.9 185.595C74.1635 185.595 73.529 185.856 72.9964 186.366C72.4638 186.875 72.2032 187.533 72.2032 188.349C72.2032 189.164 72.4752 189.833 73.0077 190.343C73.5403 190.853 74.1748 191.102 74.9 191.102C75.4892 191.102 76.2258 190.819 76.543 190.32V191H77.9254ZM76.543 188.349C76.5997 189.663 74.9 190.218 74.0615 189.38C73.7782 189.108 73.6309 188.768 73.6309 188.349C73.6309 187.929 73.7782 187.589 74.0615 187.329C74.3561 187.057 74.6961 186.921 75.0927 186.921C75.4779 186.921 75.8178 187.045 76.1011 187.306C76.3957 187.567 76.543 187.907 76.543 188.349ZM80.8744 189.13C80.8744 187.635 81.3164 186.887 82.2002 186.887C82.5174 186.887 82.7894 186.932 83.0047 187.034L83.2426 185.788C83.0047 185.663 82.7101 185.595 82.3701 185.595C81.7243 185.595 81.1351 186.048 80.8744 186.955V185.708H79.492V191H80.8744V189.13ZM84.5925 183.691V185.708H83.6294V186.819H84.5925V191H85.9636V186.819H87.0854V185.708H85.9636V183.691H84.5925ZM89.5056 188.179C89.5056 187.317 89.9815 186.943 90.6613 186.943C91.2845 186.943 91.6698 187.363 91.6698 188.122V191H93.0522V187.873C93.0522 186.388 92.3383 185.595 91.0806 185.595C90.446 185.595 89.7888 185.946 89.5056 186.49V185.708H88.1232V191H89.5056V188.179ZM99.6512 188.337C99.6512 187.521 99.3906 186.864 98.8807 186.354C98.3708 185.844 97.7363 185.595 96.9658 185.595C96.1952 185.595 95.5494 185.844 95.0168 186.354C94.4842 186.864 94.2236 187.521 94.2236 188.337C94.2236 189.153 94.4842 189.822 95.0168 190.343C95.5494 190.853 96.1952 191.113 96.9658 191.113C98.0196 191.113 98.9827 190.694 99.4359 189.833L98.3821 189.266C98.1442 189.708 97.6116 189.946 97.0564 189.946C96.2746 189.946 95.6853 189.504 95.5947 188.813H99.6286C99.6399 188.643 99.6512 188.484 99.6512 188.337ZM95.5834 187.873C95.6853 187.181 96.2406 186.751 96.9771 186.751C97.6683 186.751 98.2008 187.159 98.3028 187.873H95.5834ZM102.198 189.13C102.198 187.635 102.64 186.887 103.523 186.887C103.841 186.887 104.113 186.932 104.328 187.034L104.566 185.788C104.328 185.663 104.033 185.595 103.693 185.595C103.048 185.595 102.458 186.048 102.198 186.955V185.708H100.815V191H102.198V189.13ZM105.769 186.23C106.097 185.969 106.426 185.561 106.754 184.983C107.083 184.405 107.264 183.805 107.276 183.182H106.108C106.108 184.009 105.848 184.813 105.61 185.221C105.497 185.414 105.349 185.652 105.157 185.924L105.769 186.23ZM110.168 188.972C110.576 189.062 110.758 189.21 110.746 189.47C110.746 189.776 110.452 189.992 110.055 190.003C109.557 190.014 109.115 189.708 109.081 189.334H107.789C107.8 189.878 108.016 190.309 108.435 190.637C108.865 190.955 109.364 191.113 109.919 191.113C110.508 191.113 111.018 190.966 111.438 190.683C111.868 190.399 112.083 189.992 112.083 189.482C112.083 189.062 111.913 188.213 110.701 187.895L109.817 187.68C109.443 187.578 109.262 187.431 109.262 187.238C109.262 186.887 109.489 186.717 109.93 186.717C110.293 186.717 110.633 186.898 110.644 187.261H111.959C111.936 186.694 111.721 186.275 111.324 186.003C110.928 185.731 110.452 185.595 109.896 185.595C109.364 185.595 108.911 185.754 108.525 186.071C108.14 186.377 107.948 186.751 107.948 187.17C107.948 187.805 108.084 188.405 109.443 188.79L110.168 188.972ZM121.615 185.312C121.615 184.009 120.742 183.193 119.371 183.193H116.312V191H119.609C120.345 191 120.923 190.773 121.365 190.32C121.807 189.867 122.034 189.312 122.034 188.654C122.034 188.281 121.909 187.907 121.649 187.544C121.388 187.181 121.037 186.943 120.583 186.83C121.309 186.558 121.615 185.958 121.615 185.312ZM117.762 184.485H119.224C119.779 184.485 120.108 184.836 120.108 185.391C120.108 185.935 119.779 186.332 119.269 186.332H117.762V184.485ZM119.496 187.544C120.13 187.544 120.515 188.077 120.515 188.632C120.515 189.21 120.13 189.708 119.53 189.708H117.762V187.544H119.496ZM126.779 188.53C126.779 189.38 126.281 189.765 125.635 189.765C125.079 189.765 124.626 189.391 124.626 188.586V185.708H123.233V188.836C123.233 190.297 124.037 191.113 125.317 191.113C125.873 191.113 126.496 190.796 126.779 190.252V191H128.162V185.708H126.779V188.53ZM131.735 188.972C132.143 189.062 132.324 189.21 132.313 189.47C132.313 189.776 132.018 189.992 131.622 190.003C131.123 190.014 130.681 189.708 130.647 189.334H129.356C129.367 189.878 129.582 190.309 130.002 190.637C130.432 190.955 130.931 191.113 131.486 191.113C132.075 191.113 132.585 190.966 133.004 190.683C133.435 190.399 133.65 189.992 133.65 189.482C133.65 189.062 133.48 188.213 132.268 187.895L131.384 187.68C131.01 187.578 130.829 187.431 130.829 187.238C130.829 186.887 131.055 186.717 131.497 186.717C131.86 186.717 132.2 186.898 132.211 187.261H133.525C133.503 186.694 133.288 186.275 132.891 186.003C132.494 185.731 132.018 185.595 131.463 185.595C130.931 185.595 130.477 185.754 130.092 186.071C129.707 186.377 129.514 186.751 129.514 187.17C129.514 187.805 129.65 188.405 131.01 188.79L131.735 188.972ZM134.875 185.708V191H136.246V185.708H134.875ZM135.566 184.496C136.053 184.496 136.439 184.122 136.439 183.657C136.439 183.193 136.053 182.83 135.566 182.83C135.079 182.83 134.671 183.193 134.671 183.657C134.671 184.122 135.068 184.496 135.566 184.496ZM139.19 188.179C139.19 187.317 139.666 186.943 140.346 186.943C140.969 186.943 141.354 187.363 141.354 188.122V191H142.736V187.873C142.736 186.388 142.023 185.595 140.765 185.595C140.13 185.595 139.473 185.946 139.19 186.49V185.708H137.807V191H139.19V188.179ZM149.335 188.337C149.335 187.521 149.075 186.864 148.565 186.354C148.055 185.844 147.421 185.595 146.65 185.595C145.879 185.595 145.234 185.844 144.701 186.354C144.168 186.864 143.908 187.521 143.908 188.337C143.908 189.153 144.168 189.822 144.701 190.343C145.234 190.853 145.879 191.113 146.65 191.113C147.704 191.113 148.667 190.694 149.12 189.833L148.066 189.266C147.828 189.708 147.296 189.946 146.741 189.946C145.959 189.946 145.37 189.504 145.279 188.813H149.313C149.324 188.643 149.335 188.484 149.335 188.337ZM145.268 187.873C145.37 187.181 145.925 186.751 146.661 186.751C147.353 186.751 147.885 187.159 147.987 187.873H145.268ZM152.505 188.972C152.913 189.062 153.094 189.21 153.083 189.47C153.083 189.776 152.788 189.992 152.392 190.003C151.893 190.014 151.451 189.708 151.417 189.334H150.126C150.137 189.878 150.352 190.309 150.772 190.637C151.202 190.955 151.701 191.113 152.256 191.113C152.845 191.113 153.355 190.966 153.774 190.683C154.205 190.399 154.42 189.992 154.42 189.482C154.42 189.062 154.25 188.213 153.038 187.895L152.154 187.68C151.78 187.578 151.599 187.431 151.599 187.238C151.599 186.887 151.825 186.717 152.267 186.717C152.63 186.717 152.97 186.898 152.981 187.261H154.295C154.273 186.694 154.058 186.275 153.661 186.003C153.264 185.731 152.788 185.595 152.233 185.595C151.701 185.595 151.247 185.754 150.862 186.071C150.477 186.377 150.284 186.751 150.284 187.17C150.284 187.805 150.42 188.405 151.78 188.79L152.505 188.972ZM157.651 188.972C158.059 189.062 158.24 189.21 158.229 189.47C158.229 189.776 157.934 189.992 157.537 190.003C157.039 190.014 156.597 189.708 156.563 189.334H155.271C155.282 189.878 155.498 190.309 155.917 190.637C156.348 190.955 156.846 191.113 157.401 191.113C157.991 191.113 158.5 190.966 158.92 190.683C159.35 190.399 159.566 189.992 159.566 189.482C159.566 189.062 159.396 188.213 158.183 187.895L157.299 187.68C156.925 187.578 156.744 187.431 156.744 187.238C156.744 186.887 156.971 186.717 157.413 186.717C157.775 186.717 158.115 186.898 158.127 187.261H159.441C159.418 186.694 159.203 186.275 158.806 186.003C158.41 185.731 157.934 185.595 157.379 185.595C156.846 185.595 156.393 185.754 156.008 186.071C155.622 186.377 155.43 186.751 155.43 187.17C155.43 187.805 155.566 188.405 156.925 188.79L157.651 188.972ZM169.278 188.688C168.813 189.334 168.066 189.742 167.25 189.742C166.547 189.742 165.958 189.493 165.482 188.983C165.006 188.473 164.768 187.85 164.768 187.113C164.768 186.377 165.006 185.754 165.482 185.244C165.958 184.734 166.547 184.473 167.25 184.473C168.054 184.473 168.723 184.802 169.233 185.47L170.388 184.643C169.697 183.691 168.553 183.102 167.25 183.102C166.151 183.102 165.21 183.487 164.451 184.269C163.692 185.051 163.318 185.992 163.318 187.113C163.318 188.213 163.692 189.164 164.451 189.946C165.21 190.728 166.151 191.113 167.25 191.113C168.576 191.113 169.731 190.513 170.422 189.527L169.278 188.688ZM176.557 188.337C176.557 187.521 176.296 186.864 175.786 186.354C175.276 185.844 174.642 185.595 173.871 185.595C173.101 185.595 172.455 185.844 171.922 186.354C171.39 186.864 171.129 187.521 171.129 188.337C171.129 189.153 171.39 189.822 171.922 190.343C172.455 190.853 173.101 191.113 173.871 191.113C174.925 191.113 175.888 190.694 176.341 189.833L175.288 189.266C175.05 189.708 174.517 189.946 173.962 189.946C173.18 189.946 172.591 189.504 172.5 188.813H176.534C176.545 188.643 176.557 188.484 176.557 188.337ZM172.489 187.873C172.591 187.181 173.146 186.751 173.883 186.751C174.574 186.751 175.106 187.159 175.208 187.873H172.489ZM179.103 188.179C179.103 187.317 179.579 186.943 180.259 186.943C180.882 186.943 181.267 187.363 181.267 188.122V191H182.65V187.873C182.65 186.388 181.936 185.595 180.678 185.595C180.044 185.595 179.386 185.946 179.103 186.49V185.708H177.721V191H179.103V188.179ZM184.592 183.691V185.708H183.629V186.819H184.592V191H185.963V186.819H187.085V185.708H185.963V183.691H184.592ZM193.155 188.337C193.155 187.521 192.894 186.864 192.384 186.354C191.875 185.844 191.24 185.595 190.47 185.595C189.699 185.595 189.053 185.844 188.521 186.354C187.988 186.864 187.727 187.521 187.727 188.337C187.727 189.153 187.988 189.822 188.521 190.343C189.053 190.853 189.699 191.113 190.47 191.113C191.523 191.113 192.486 190.694 192.94 189.833L191.886 189.266C191.648 189.708 191.115 189.946 190.56 189.946C189.778 189.946 189.189 189.504 189.098 188.813H193.132C193.144 188.643 193.155 188.484 193.155 188.337ZM189.087 187.873C189.189 187.181 189.744 186.751 190.481 186.751C191.172 186.751 191.705 187.159 191.807 187.873H189.087ZM195.701 189.13C195.701 187.635 196.143 186.887 197.027 186.887C197.344 186.887 197.616 186.932 197.832 187.034L198.07 185.788C197.832 185.663 197.537 185.595 197.197 185.595C196.551 185.595 195.962 186.048 195.701 186.955V185.708H194.319V191H195.701V189.13ZM203.154 191V183.193H201.715V191H203.154ZM208.149 184.519C208.818 184.519 209.328 184.768 209.679 185.255C210.042 185.742 210.223 186.366 210.223 187.113C210.223 187.85 210.042 188.462 209.679 188.949C209.328 189.436 208.818 189.674 208.149 189.674H206.552V184.519H208.149ZM208.149 191C209.237 191 210.098 190.637 210.722 189.912C211.356 189.176 211.673 188.247 211.673 187.113C211.673 185.969 211.356 185.04 210.722 184.303C210.098 183.567 209.237 183.193 208.149 183.193H205.101V191H208.149Z" fill="#161823"/>
<rect x="352.266" y="278" width="98.4234" height="28.5227" rx="14.2614" fill="#89b93f"/>
<path d="M394.676 287.575V292.243L392.001 287.575H390.483V295.382H392.137V290.657L394.857 295.382H396.341V287.575H394.676ZM401.576 293.637C401.315 293.965 400.93 294.135 400.42 294.135C399.797 294.135 399.196 293.829 399.117 293.252H402.992C403.004 293.07 403.015 292.912 403.015 292.764C403.015 291.937 402.754 291.269 402.233 290.759C401.723 290.238 401.077 289.977 400.307 289.977C399.525 289.977 398.868 290.226 398.335 290.736C397.803 291.246 397.542 291.903 397.542 292.719C397.542 293.535 397.803 294.203 398.335 294.725C398.868 295.235 399.525 295.495 400.307 295.495C401.429 295.495 402.233 295.133 402.72 294.419L401.576 293.637ZM399.14 292.266C399.389 291.053 401.27 291.065 401.429 292.266H399.14ZM403.288 295.382H405.112L406.245 293.761L407.367 295.382H409.191L407.117 292.515L408.862 290.09H407.038L406.256 291.257L405.463 290.09H403.627L405.372 292.515L403.288 295.382ZM412.038 288.062H410.475V290.09H409.511V291.337H410.475V295.382H412.038V291.337H413.149V290.09H412.038V288.062Z" fill="white"/>
<rect x="65" y="118" width="260" height="10" rx="5" fill="#F0F0F0"/>
<rect x="65" y="138" width="220" height="10" rx="5" fill="#F0F0F0"/>
<path d="M79 237L79 215" stroke="#E0E0E0"/>
<circle cx="578.714" cy="170.714" r="9.71436" fill="#64666B"/>
<g filter="url(#filter1_d_1331_2319)">
<rect x="244" y="108" width="435" height="361" rx="10" fill="white"/>
<rect x="244" y="108" width="435" height="361" rx="10" stroke="#E0E0E0" stroke-width="1.25"/>
</g>
<path d="M275.311 146H277.675V134.847H275.311V146ZM282.266 142.002C282.266 140.982 282.735 140.464 283.658 140.464C284.451 140.464 284.969 140.998 284.969 141.969V146H287.219V141.484C287.219 139.363 286.199 138.279 284.451 138.279C283.56 138.279 282.67 138.78 282.266 139.541V138.441H280.015V146H282.266V142.002ZM293.233 146L296.438 138.441H294.026L292.278 143.135L290.513 138.441H288.118L291.306 146H293.233ZM297.515 138.441V146H299.749V138.441H297.515ZM298.632 134.329C297.855 134.329 297.223 134.912 297.223 135.64C297.223 136.369 297.855 136.967 298.632 136.967C299.393 136.967 300.008 136.369 300.008 135.64C300.008 134.912 299.393 134.329 298.632 134.329ZM304.761 135.543H302.527V138.441H301.151V140.221H302.527V146H304.761V140.221H306.347V138.441H304.761V135.543ZM312.926 143.507C312.553 143.977 312.003 144.219 311.274 144.219C310.384 144.219 309.526 143.782 309.413 142.957H314.949C314.965 142.698 314.981 142.471 314.981 142.261C314.981 141.079 314.609 140.124 313.864 139.396C313.136 138.651 312.213 138.279 311.113 138.279C309.996 138.279 309.057 138.635 308.296 139.363C307.535 140.092 307.163 141.031 307.163 142.196C307.163 143.361 307.535 144.317 308.296 145.061C309.057 145.79 309.996 146.162 311.113 146.162C312.715 146.162 313.864 145.644 314.56 144.624L312.926 143.507ZM309.445 141.548C309.801 139.816 312.488 139.833 312.715 141.548H309.445ZM322.718 142.002C322.718 140.982 323.187 140.464 324.11 140.464C324.903 140.464 325.421 140.998 325.421 141.969V146H327.671V141.484C327.671 139.363 326.651 138.279 324.903 138.279C324.013 138.279 323.123 138.78 322.718 139.541V138.441H320.468V146H322.718V142.002ZM334.978 143.507C334.605 143.977 334.055 144.219 333.326 144.219C332.436 144.219 331.578 143.782 331.465 142.957H337.001C337.017 142.698 337.033 142.471 337.033 142.261C337.033 141.079 336.661 140.124 335.916 139.396C335.188 138.651 334.265 138.279 333.165 138.279C332.048 138.279 331.109 138.635 330.348 139.363C329.587 140.092 329.215 141.031 329.215 142.196C329.215 143.361 329.587 144.317 330.348 145.061C331.109 145.79 332.048 146.162 333.165 146.162C334.767 146.162 335.916 145.644 336.612 144.624L334.978 143.507ZM331.497 141.548C331.853 139.816 334.54 139.833 334.767 141.548H331.497ZM347.23 138.441L345.887 142.941L344.56 138.441H342.633L341.306 142.941L339.962 138.441H337.567L340.302 146H342.18L343.604 141.192L345.094 146H346.971L349.626 138.441H347.23ZM362.744 140.464C363.457 140.464 363.991 141.014 363.991 141.969V146H366.225V141.71C366.225 139.46 365.14 138.279 363.311 138.279C362.356 138.279 361.595 138.732 361.045 139.622C360.624 138.732 359.814 138.295 358.617 138.295C357.775 138.295 356.982 138.764 356.642 139.541V138.441H354.392V146H356.642V142.002C356.642 140.917 357.192 140.464 357.953 140.464C358.649 140.464 359.183 141.014 359.199 141.921V146H361.449V142.002C361.449 140.966 361.967 140.464 362.744 140.464ZM373.517 143.507C373.145 143.977 372.595 144.219 371.866 144.219C370.976 144.219 370.118 143.782 370.005 142.957H375.541C375.557 142.698 375.573 142.471 375.573 142.261C375.573 141.079 375.201 140.124 374.456 139.396C373.728 138.651 372.805 138.279 371.704 138.279C370.587 138.279 369.648 138.635 368.888 139.363C368.127 140.092 367.755 141.031 367.755 142.196C367.755 143.361 368.127 144.317 368.888 145.061C369.648 145.79 370.587 146.162 371.704 146.162C373.307 146.162 374.456 145.644 375.152 144.624L373.517 143.507ZM370.037 141.548C370.393 139.816 373.08 139.833 373.307 141.548H370.037ZM385.46 140.464C386.173 140.464 386.707 141.014 386.707 141.969V146H388.941V141.71C388.941 139.46 387.856 138.279 386.027 138.279C385.072 138.279 384.311 138.732 383.761 139.622C383.34 138.732 382.53 138.295 381.333 138.295C380.491 138.295 379.698 138.764 379.358 139.541V138.441H377.108V146H379.358V142.002C379.358 140.917 379.908 140.464 380.669 140.464C381.365 140.464 381.899 141.014 381.915 141.921V146H384.165V142.002C384.165 140.966 384.683 140.464 385.46 140.464ZM393.206 142.196C393.206 141.095 393.983 140.399 394.954 140.399C395.926 140.399 396.703 141.144 396.703 142.196C396.703 143.297 395.926 144.025 394.954 144.025C393.983 144.025 393.206 143.248 393.206 142.196ZM393.158 145.061C393.53 145.757 394.404 146.162 395.375 146.162C396.379 146.162 397.237 145.806 397.949 145.077C398.677 144.349 399.034 143.394 399.034 142.245C399.034 141.063 398.677 140.108 397.949 139.379C397.237 138.651 396.379 138.279 395.375 138.279C394.404 138.279 393.53 138.7 393.158 139.363V134.329H390.924V146H393.158V145.061ZM405.971 143.507C405.599 143.977 405.048 144.219 404.32 144.219C403.429 144.219 402.571 143.782 402.458 142.957H407.994C408.01 142.698 408.027 142.471 408.027 142.261C408.027 141.079 407.654 140.124 406.91 139.396C406.181 138.651 405.259 138.279 404.158 138.279C403.041 138.279 402.102 138.635 401.341 139.363C400.58 140.092 400.208 141.031 400.208 142.196C400.208 143.361 400.58 144.317 401.341 145.061C402.102 145.79 403.041 146.162 404.158 146.162C405.76 146.162 406.91 145.644 407.606 144.624L405.971 143.507ZM402.491 141.548C402.847 139.816 405.534 139.833 405.76 141.548H402.491ZM411.811 143.361C411.811 141.354 412.443 140.351 413.689 140.351C414.142 140.351 414.531 140.432 414.838 140.577L415.243 138.554C414.871 138.376 414.45 138.279 413.948 138.279C413.09 138.279 412.184 138.959 411.811 140.27V138.441H409.561V146H411.811V143.361Z" fill="#333333"/>
<path fill-rule="evenodd" clip-rule="evenodd" d="M647.42 138.59L649.09 136.92L653.43 141.261L657.771 136.92L659.44 138.59L655.1 142.93L659.44 147.271L657.771 148.941L653.43 144.6L649.09 148.941L647.42 147.271L651.761 142.93L647.42 138.59Z" fill="#161823" fill-opacity="0.34"/>
<rect x="453" y="418.113" width="98.4234" height="28.2967" rx="14.1484" fill="white"/>
<path d="M490.387 433.732C489.945 434.378 489.243 434.808 488.438 434.808C487.792 434.808 487.26 434.57 486.829 434.106C486.398 433.63 486.183 433.052 486.183 432.372C486.183 431.681 486.398 431.103 486.829 430.639C487.26 430.163 487.792 429.925 488.438 429.925C489.243 429.925 489.877 430.265 490.342 430.945L491.69 430.015C490.999 429.007 489.798 428.361 488.438 428.361C487.328 428.361 486.398 428.746 485.639 429.528C484.891 430.31 484.517 431.25 484.517 432.372C484.517 433.483 484.891 434.423 485.639 435.205C486.398 435.987 487.328 436.372 488.438 436.372C489.832 436.372 491.033 435.715 491.724 434.661L490.387 433.732ZM498.185 436.259V430.967H496.622V431.556C496.259 431.046 495.579 430.854 495.081 430.854C494.367 430.854 493.743 431.114 493.2 431.624C492.656 432.134 492.384 432.791 492.384 433.607C492.384 434.423 492.656 435.092 493.2 435.602C493.743 436.111 494.367 436.361 495.081 436.361C495.33 436.361 495.613 436.304 495.919 436.179C496.236 436.055 496.474 435.885 496.622 435.658V436.259H498.185ZM495.341 434.865C494.99 434.865 494.684 434.752 494.412 434.514C494.151 434.276 494.015 433.97 494.015 433.607C494.015 433.245 494.151 432.95 494.412 432.712C494.684 432.474 494.99 432.35 495.341 432.35C496.021 432.35 496.622 432.848 496.622 433.607C496.622 434.366 496.021 434.865 495.341 434.865ZM501.214 433.46C501.214 432.746 501.543 432.384 502.189 432.384C502.744 432.384 503.106 432.757 503.106 433.437V436.259H504.681V433.097C504.681 431.613 503.968 430.854 502.744 430.854C502.121 430.854 501.497 431.205 501.214 431.738V430.967H499.639V436.259H501.214V433.46ZM508.64 430.854C507.858 430.854 507.178 431.114 506.612 431.624C506.045 432.134 505.762 432.791 505.762 433.596C505.762 434.4 506.045 435.069 506.612 435.59C507.178 436.111 507.858 436.372 508.64 436.372C509.592 436.372 510.442 435.953 510.94 435.239L509.66 434.333C509.433 434.684 509.093 434.865 508.64 434.865C508.289 434.865 507.983 434.752 507.722 434.514C507.462 434.276 507.326 433.97 507.326 433.596C507.326 433.233 507.462 432.939 507.722 432.712C507.983 432.474 508.289 432.361 508.64 432.361C509.093 432.361 509.433 432.542 509.66 432.893L510.94 431.976C510.43 431.262 509.581 430.854 508.64 430.854ZM515.683 434.514C515.422 434.842 515.037 435.012 514.527 435.012C513.904 435.012 513.303 434.706 513.224 434.129H517.099C517.11 433.947 517.122 433.789 517.122 433.641C517.122 432.814 516.861 432.146 516.34 431.636C515.83 431.114 515.184 430.854 514.414 430.854C513.632 430.854 512.975 431.103 512.442 431.613C511.909 432.123 511.649 432.78 511.649 433.596C511.649 434.412 511.909 435.08 512.442 435.602C512.975 436.111 513.632 436.372 514.414 436.372C515.535 436.372 516.34 436.01 516.827 435.296L515.683 434.514ZM513.246 433.143C513.496 431.93 515.377 431.942 515.535 433.143H513.246ZM518.196 436.259H519.771V428.089H518.196V436.259Z" fill="#161823"/>
<rect x="453.5" y="418.613" width="97.4234" height="27.2967" rx="13.6484" stroke="#161823" stroke-opacity="0.12"/>
<rect x="561.266" y="418" width="98.4234" height="28.5227" rx="14.2614" fill="#89b93f"/>
<path d="M603.676 427.575V432.243L601.001 427.575H599.483V435.382H601.137V430.657L603.857 435.382H605.341V427.575H603.676ZM610.576 433.637C610.315 433.965 609.93 434.135 609.42 434.135C608.797 434.135 608.196 433.829 608.117 433.252H611.992C612.004 433.07 612.015 432.912 612.015 432.764C612.015 431.937 611.754 431.269 611.233 430.759C610.723 430.238 610.077 429.977 609.307 429.977C608.525 429.977 607.868 430.226 607.335 430.736C606.803 431.246 606.542 431.903 606.542 432.719C606.542 433.535 606.803 434.203 607.335 434.725C607.868 435.235 608.525 435.495 609.307 435.495C610.429 435.495 611.233 435.133 611.72 434.419L610.576 433.637ZM608.14 432.266C608.389 431.053 610.27 431.065 610.429 432.266H608.14ZM612.288 435.382H614.112L615.245 433.761L616.367 435.382H618.191L616.117 432.515L617.862 430.09H616.038L615.256 431.257L614.463 430.09H612.627L614.372 432.515L612.288 435.382ZM621.038 428.062H619.475V430.09H618.511V431.337H619.475V435.382H621.038V431.337H622.149V430.09H621.038V428.062Z" fill="white"/>
<rect x="316" y="181" width="63" height="10" rx="5" fill="#F0F0F0"/>
<rect x="540" y="181" width="63" height="10" rx="5" fill="#F0F0F0"/>
<circle cx="290.5" cy="185.5" r="14.5" fill="black"/>
<circle cx="513.5" cy="185.5" r="14.5" fill="#F0F0F0"/>
<path d="M287.631 182.194V184.185L289.444 183.408V191H291.711V180.252L287.631 182.194Z" fill="white"/>
<path d="M517.024 188.863H513.754L516.199 186.095C516.943 185.254 517.315 184.363 517.315 183.408C517.315 182.469 516.976 181.692 516.296 181.093C515.632 180.494 514.806 180.187 513.851 180.187C511.86 180.187 510.468 181.449 510.144 183.473L512.216 183.829C512.346 182.971 512.929 182.356 513.722 182.356C514.547 182.356 515.049 182.825 515.049 183.408C515.049 183.78 514.855 184.169 514.483 184.606L510.128 189.77V191H517.024V188.863Z" fill="#C2C2C2"/>
<path d="M389.795 185.883H487.746" stroke="#E0E0E0" stroke-width="2" stroke-linecap="square" stroke-dasharray="2.62 5.24"/>
<rect x="274" y="221" width="329" height="10" rx="5" fill="#F0F0F0"/>
<rect x="274" y="241" width="278.385" height="10" rx="5" fill="#F0F0F0"/>
<path d="M279.326 290.421L280.507 294.306H278.193L279.326 290.421ZM282.256 299H284.748L280.621 287.847H278.047L273.903 299H276.428L277.416 296.361H281.268L282.256 299ZM289.286 291.279C288.169 291.279 287.197 291.651 286.388 292.379C285.579 293.108 285.174 294.047 285.174 295.196C285.174 296.345 285.579 297.3 286.388 298.045C287.197 298.79 288.169 299.162 289.286 299.162C290.645 299.162 291.859 298.563 292.572 297.543L290.742 296.248C290.419 296.75 289.933 297.009 289.286 297.009C288.784 297.009 288.347 296.847 287.974 296.507C287.602 296.167 287.408 295.73 287.408 295.196C287.408 294.678 287.602 294.257 287.974 293.933C288.347 293.593 288.784 293.432 289.286 293.432C289.933 293.432 290.419 293.691 290.742 294.192L292.572 292.881C291.843 291.861 290.629 291.279 289.286 291.279ZM297.695 291.279C296.578 291.279 295.607 291.651 294.798 292.379C293.989 293.108 293.584 294.047 293.584 295.196C293.584 296.345 293.989 297.3 294.798 298.045C295.607 298.79 296.578 299.162 297.695 299.162C299.055 299.162 300.269 298.563 300.981 297.543L299.152 296.248C298.829 296.75 298.343 297.009 297.695 297.009C297.194 297.009 296.757 296.847 296.384 296.507C296.012 296.167 295.818 295.73 295.818 295.196C295.818 294.678 296.012 294.257 296.384 293.933C296.757 293.593 297.194 293.432 297.695 293.432C298.343 293.432 298.829 293.691 299.152 294.192L300.981 292.881C300.253 291.861 299.039 291.279 297.695 291.279ZM307.756 296.507C307.384 296.977 306.834 297.219 306.105 297.219C305.215 297.219 304.357 296.782 304.244 295.957H309.78C309.796 295.698 309.812 295.471 309.812 295.261C309.812 294.079 309.44 293.124 308.695 292.396C307.967 291.651 307.044 291.279 305.943 291.279C304.826 291.279 303.888 291.635 303.127 292.363C302.366 293.092 301.994 294.031 301.994 295.196C301.994 296.361 302.366 297.317 303.127 298.061C303.888 298.79 304.826 299.162 305.943 299.162C307.546 299.162 308.695 298.644 309.391 297.624L307.756 296.507ZM304.276 294.548C304.632 292.816 307.319 292.833 307.546 294.548H304.276ZM314.293 296.151C314.827 296.297 315.037 296.475 315.037 296.799C315.037 297.171 314.633 297.414 314.115 297.43C313.516 297.43 313.014 297.009 312.998 296.556H310.893C310.91 297.349 311.217 297.996 311.849 298.466C312.48 298.935 313.224 299.162 314.05 299.162C314.924 299.162 315.685 298.951 316.332 298.547C316.996 298.142 317.32 297.559 317.32 296.799C317.32 296.345 317.255 295.924 316.591 295.293C316.268 294.986 315.831 294.743 315.264 294.597L313.985 294.257C313.564 294.144 313.338 293.966 313.322 293.691C313.305 293.351 313.613 293.124 314.115 293.124C314.681 293.124 314.957 293.351 314.973 293.788H317.093C317.077 292.93 316.769 292.298 316.171 291.894C315.572 291.489 314.843 291.279 313.985 291.279C313.192 291.279 312.512 291.505 311.929 291.942C311.347 292.379 311.055 292.865 311.039 293.432C311.023 293.901 311.055 294.16 311.298 294.678C311.557 295.18 312.253 295.617 313.305 295.892L314.293 296.151ZM321.849 296.151C322.383 296.297 322.594 296.475 322.594 296.799C322.594 297.171 322.189 297.414 321.671 297.43C321.072 297.43 320.57 297.009 320.554 296.556H318.45C318.466 297.349 318.773 297.996 319.405 298.466C320.036 298.935 320.781 299.162 321.606 299.162C322.48 299.162 323.241 298.951 323.889 298.547C324.552 298.142 324.876 297.559 324.876 296.799C324.876 296.345 324.811 295.924 324.148 295.293C323.824 294.986 323.387 294.743 322.82 294.597L321.541 294.257C321.121 294.144 320.894 293.966 320.878 293.691C320.862 293.351 321.169 293.124 321.671 293.124C322.238 293.124 322.513 293.351 322.529 293.788H324.649C324.633 292.93 324.326 292.298 323.727 291.894C323.128 291.489 322.399 291.279 321.541 291.279C320.748 291.279 320.068 291.505 319.486 291.942C318.903 292.379 318.612 292.865 318.595 293.432C318.579 293.901 318.612 294.16 318.854 294.678C319.113 295.18 319.809 295.617 320.862 295.892L321.849 296.151ZM333.357 296.151C333.891 296.297 334.102 296.475 334.102 296.799C334.102 297.171 333.697 297.414 333.179 297.43C332.58 297.43 332.078 297.009 332.062 296.556H329.958C329.974 297.349 330.282 297.996 330.913 298.466C331.544 298.935 332.289 299.162 333.114 299.162C333.988 299.162 334.749 298.951 335.397 298.547C336.06 298.142 336.384 297.559 336.384 296.799C336.384 296.345 336.319 295.924 335.656 295.293C335.332 294.986 334.895 294.743 334.328 294.597L333.05 294.257C332.629 294.144 332.402 293.966 332.386 293.691C332.37 293.351 332.677 293.124 333.179 293.124C333.746 293.124 334.021 293.351 334.037 293.788H336.158C336.141 292.93 335.834 292.298 335.235 291.894C334.636 291.489 333.908 291.279 333.05 291.279C332.256 291.279 331.577 291.505 330.994 291.942C330.411 292.379 330.12 292.865 330.104 293.432C330.087 293.901 330.12 294.16 330.363 294.678C330.622 295.18 331.318 295.617 332.37 295.892L333.357 296.151ZM343.277 296.507C342.904 296.977 342.354 297.219 341.626 297.219C340.735 297.219 339.877 296.782 339.764 295.957H345.3C345.316 295.698 345.332 295.471 345.332 295.261C345.332 294.079 344.96 293.124 344.216 292.396C343.487 291.651 342.564 291.279 341.464 291.279C340.347 291.279 339.408 291.635 338.647 292.363C337.886 293.092 337.514 294.031 337.514 295.196C337.514 296.361 337.886 297.317 338.647 298.061C339.408 298.79 340.347 299.162 341.464 299.162C343.066 299.162 344.216 298.644 344.912 297.624L343.277 296.507ZM339.796 294.548C340.153 292.816 342.84 292.833 343.066 294.548H339.796ZM349.75 288.543H347.516V291.441H346.14V293.221H347.516V299H349.75V293.221H351.336V291.441H349.75V288.543ZM355.662 288.543H353.428V291.441H352.052V293.221H353.428V299H355.662V293.221H357.248V291.441H355.662V288.543ZM358.628 291.441V299H360.862V291.441H358.628ZM359.745 287.329C358.968 287.329 358.337 287.912 358.337 288.64C358.337 289.369 358.968 289.967 359.745 289.967C360.506 289.967 361.121 289.369 361.121 288.64C361.121 287.912 360.506 287.329 359.745 287.329ZM365.178 295.002C365.178 293.982 365.647 293.464 366.57 293.464C367.363 293.464 367.881 293.998 367.881 294.969V299H370.131V294.484C370.131 292.363 369.111 291.279 367.363 291.279C366.473 291.279 365.583 291.78 365.178 292.541V291.441H362.928V299H365.178V295.002ZM377.664 295.196C377.664 295.73 377.486 296.167 377.114 296.523C376.742 296.863 376.321 297.041 375.835 297.041C374.848 297.041 374.022 296.297 374.022 295.196C374.022 294.16 374.848 293.415 375.835 293.415C376.822 293.415 377.664 294.111 377.664 295.196ZM371.902 300.424C372.549 301.849 373.957 302.772 375.625 302.772C378.36 302.772 379.898 301.137 379.898 297.948V291.441H377.713V292.379C377.34 291.716 376.418 291.279 375.447 291.279C374.427 291.279 373.553 291.651 372.792 292.396C372.047 293.124 371.675 294.079 371.675 295.245C371.675 296.394 372.047 297.333 372.792 298.061C373.553 298.79 374.427 299.162 375.447 299.162C376.418 299.162 377.373 298.725 377.713 298.061C377.826 299.858 377.13 300.748 375.625 300.748C374.848 300.748 373.973 300.23 373.714 299.534L371.902 300.424ZM384.923 296.151C385.457 296.297 385.667 296.475 385.667 296.799C385.667 297.171 385.262 297.414 384.744 297.43C384.146 297.43 383.644 297.009 383.628 296.556H381.523C381.539 297.349 381.847 297.996 382.478 298.466C383.11 298.935 383.854 299.162 384.68 299.162C385.554 299.162 386.315 298.951 386.962 298.547C387.626 298.142 387.95 297.559 387.95 296.799C387.95 296.345 387.885 295.924 387.221 295.293C386.897 294.986 386.46 294.743 385.894 294.597L384.615 294.257C384.194 294.144 383.967 293.966 383.951 293.691C383.935 293.351 384.243 293.124 384.744 293.124C385.311 293.124 385.586 293.351 385.602 293.788H387.723C387.707 292.93 387.399 292.298 386.8 291.894C386.201 291.489 385.473 291.279 384.615 291.279C383.822 291.279 383.142 291.505 382.559 291.942C381.976 292.379 381.685 292.865 381.669 293.432C381.653 293.901 381.685 294.16 381.928 294.678C382.187 295.18 382.883 295.617 383.935 295.892L384.923 296.151Z" fill="#333333"/>
<rect x="274.5" y="316.5" width="186" height="76" rx="6.20616" fill="#F0F0F0" stroke="#89b93f"/>
<rect x="473" y="316" width="187" height="77" rx="6.70616" fill="#F0F0F0"/>
<path d="M298.411 342L295.487 334.193H293.923L291 342H292.541L293.255 340.108H296.167L296.881 342H298.411ZM295.691 338.839H293.742L294.705 335.859L295.691 338.839ZM304.432 342V333.83H303.061V337.411C302.778 336.901 302.121 336.595 301.396 336.595C300.682 336.595 300.07 336.856 299.56 337.366C299.05 337.875 298.801 338.533 298.801 339.36C298.801 340.176 299.05 340.844 299.56 341.354C300.07 341.864 300.682 342.113 301.396 342.113C302.109 342.113 302.778 341.796 303.061 341.286V342H304.432ZM301.622 337.909C301.996 337.909 302.325 338.045 302.608 338.306C302.891 338.567 303.039 338.907 303.039 339.337C303.039 339.768 302.903 340.119 302.619 340.391C302.347 340.652 302.019 340.788 301.622 340.788C301.226 340.788 300.897 340.652 300.625 340.391C300.364 340.119 300.228 339.768 300.228 339.337C300.228 338.487 300.84 337.909 301.622 337.909ZM311.927 337.943C312.516 337.943 312.924 338.385 312.924 339.122V342H314.295V338.975C314.295 337.434 313.559 336.595 312.256 336.595C311.519 336.595 310.964 336.924 310.59 337.592C310.307 336.98 309.752 336.652 308.902 336.606C308.313 336.606 307.655 336.901 307.383 337.49V336.708H306.001V342H307.383V339.179C307.383 338.329 307.859 337.943 308.494 337.943C309.049 337.943 309.457 338.374 309.468 339.088V342H310.851V339.179C310.851 338.397 311.281 337.943 311.927 337.943ZM315.794 336.708V342H317.165V336.708H315.794ZM316.485 335.496C316.972 335.496 317.358 335.122 317.358 334.657C317.358 334.193 316.972 333.83 316.485 333.83C315.998 333.83 315.59 334.193 315.59 334.657C315.59 335.122 315.987 335.496 316.485 335.496ZM320.109 339.179C320.109 338.317 320.585 337.943 321.265 337.943C321.888 337.943 322.273 338.363 322.273 339.122V342H323.655V338.873C323.655 337.388 322.942 336.595 321.684 336.595C321.049 336.595 320.392 336.946 320.109 337.49V336.708H318.726V342H320.109V339.179Z" fill="#161823"/>
<path d="M490.521 339.722C490.521 340.402 490.782 340.969 491.303 341.433C491.824 341.898 492.493 342.125 493.32 342.125C494.068 342.125 494.702 341.932 495.224 341.535C495.756 341.139 496.028 340.595 496.062 339.915C496.141 338.873 495.552 337.977 493.932 337.536L492.969 337.252C492.346 337.082 492.04 336.788 492.04 336.357C492.04 335.813 492.538 335.439 493.207 335.439C493.932 335.439 494.374 335.836 494.374 336.459H495.824C495.824 335.745 495.575 335.167 495.088 334.748C494.6 334.318 493.989 334.102 493.229 334.102C492.493 334.102 491.87 334.318 491.36 334.748C490.85 335.167 490.601 335.723 490.601 336.391C490.601 337.456 491.258 338.181 492.572 338.567L493.535 338.816C494.294 339.031 494.646 339.371 494.612 339.881C494.578 340.425 494.079 340.822 493.32 340.822C492.516 340.822 492.006 340.323 491.972 339.722H490.521ZM497.708 334.691V336.708H496.745V337.819H497.708V342H499.079V337.819H500.201V336.708H499.079V334.691H497.708ZM506.566 342V336.708H505.184V337.366C504.832 336.833 504.13 336.595 503.541 336.595C502.804 336.595 502.17 336.856 501.637 337.366C501.104 337.875 500.844 338.533 500.844 339.349C500.844 340.164 501.116 340.833 501.648 341.343C502.181 341.853 502.815 342.102 503.541 342.102C504.13 342.102 504.866 341.819 505.184 341.32V342H506.566ZM505.184 339.349C505.24 340.663 503.541 341.218 502.702 340.38C502.419 340.108 502.271 339.768 502.271 339.349C502.271 338.929 502.419 338.589 502.702 338.329C502.997 338.057 503.337 337.921 503.733 337.921C504.118 337.921 504.458 338.045 504.742 338.306C505.036 338.567 505.184 338.907 505.184 339.349ZM509.515 339.179C509.515 338.317 509.991 337.943 510.671 337.943C511.294 337.943 511.679 338.363 511.679 339.122V342H513.062V338.873C513.062 337.388 512.348 336.595 511.09 336.595C510.455 336.595 509.798 336.946 509.515 337.49V336.708H508.133V342H509.515V339.179ZM519.865 342V333.83H518.494V337.411C518.21 336.901 517.553 336.595 516.828 336.595C516.114 336.595 515.502 336.856 514.992 337.366C514.482 337.875 514.233 338.533 514.233 339.36C514.233 340.176 514.482 340.844 514.992 341.354C515.502 341.864 516.114 342.113 516.828 342.113C517.542 342.113 518.21 341.796 518.494 341.286V342H519.865ZM517.055 337.909C517.428 337.909 517.757 338.045 518.04 338.306C518.324 338.567 518.471 338.907 518.471 339.337C518.471 339.768 518.335 340.119 518.052 340.391C517.78 340.652 517.451 340.788 517.055 340.788C516.658 340.788 516.329 340.652 516.057 340.391C515.797 340.119 515.661 339.768 515.661 339.337C515.661 338.487 516.273 337.909 517.055 337.909ZM526.827 342V336.708H525.445V337.366C525.093 336.833 524.391 336.595 523.802 336.595C523.065 336.595 522.431 336.856 521.898 337.366C521.365 337.875 521.105 338.533 521.105 339.349C521.105 340.164 521.377 340.833 521.909 341.343C522.442 341.853 523.076 342.102 523.802 342.102C524.391 342.102 525.127 341.819 525.445 341.32V342H526.827ZM525.445 339.349C525.501 340.663 523.802 341.218 522.963 340.38C522.68 340.108 522.532 339.768 522.532 339.349C522.532 338.929 522.68 338.589 522.963 338.329C523.258 338.057 523.598 337.921 523.994 337.921C524.379 337.921 524.719 338.045 525.003 338.306C525.297 338.567 525.445 338.907 525.445 339.349ZM529.776 340.13C529.776 338.635 530.218 337.887 531.102 337.887C531.419 337.887 531.691 337.932 531.906 338.034L532.144 336.788C531.906 336.663 531.612 336.595 531.272 336.595C530.626 336.595 530.037 337.048 529.776 337.955V336.708H528.394V342H529.776V340.13ZM538.244 342V333.83H536.873V337.411C536.59 336.901 535.933 336.595 535.208 336.595C534.494 336.595 533.882 336.856 533.372 337.366C532.862 337.875 532.613 338.533 532.613 339.36C532.613 340.176 532.862 340.844 533.372 341.354C533.882 341.864 534.494 342.113 535.208 342.113C535.922 342.113 536.59 341.796 536.873 341.286V342H538.244ZM535.434 337.909C535.808 337.909 536.137 338.045 536.42 338.306C536.703 338.567 536.851 338.907 536.851 339.337C536.851 339.768 536.715 340.119 536.432 340.391C536.16 340.652 535.831 340.788 535.434 340.788C535.038 340.788 534.709 340.652 534.437 340.391C534.177 340.119 534.041 339.768 534.041 339.337C534.041 338.487 534.653 337.909 535.434 337.909Z" fill="#161823"/>
<rect x="291" y="355" width="129" height="10" rx="5" fill="#E0E0E0"/>
<rect x="490" y="355" width="129" height="10" rx="5" fill="#E0E0E0"/>
<path fill-rule="evenodd" clip-rule="evenodd" d="M376.322 383.983L403.384 399.852C404.721 400.687 404.22 402.692 402.716 402.858L389.185 405.03L382.503 417.057C381.834 418.227 379.83 418.06 379.662 416.556L373.816 385.653C373.648 384.317 375.152 383.314 376.321 383.983L376.322 383.983Z" fill="black"/>
<defs>
<filter id="filter0_d_1331_2319" x="12.327" y="60.375" width="476.337" height="317.337" filterUnits="userSpaceOnUse" color-interpolation-filters="sRGB">
<feFlood flood-opacity="0" result="BackgroundImageFix"/>
<feColorMatrix in="SourceAlpha" type="matrix" values="0 0 0 0 0 0 0 0 0 0 0 0 0 0 0 0 0 0 127 0" result="hardAlpha"/>
<feOffset dx="-2.00436" dy="20.0436"/>
<feGaussianBlur stdDeviation="10.0218"/>
<feComposite in2="hardAlpha" operator="out"/>
<feColorMatrix type="matrix" values="0 0 0 0 0 0 0 0 0 0 0 0 0 0 0 0 0 0 0.05 0"/>
<feBlend mode="normal" in2="BackgroundImageFix" result="effect1_dropShadow_1331_2319"/>
<feBlend mode="normal" in="SourceGraphic" in2="effect1_dropShadow_1331_2319" result="shape"/>
</filter>
<filter id="filter1_d_1331_2319" x="221.327" y="107.375" width="476.337" height="402.337" filterUnits="userSpaceOnUse" color-interpolation-filters="sRGB">
<feFlood flood-opacity="0" result="BackgroundImageFix"/>
<feColorMatrix in="SourceAlpha" type="matrix" values="0 0 0 0 0 0 0 0 0 0 0 0 0 0 0 0 0 0 127 0" result="hardAlpha"/>
<feOffset dx="-2.00436" dy="20.0436"/>
<feGaussianBlur stdDeviation="10.0218"/>
<feComposite in2="hardAlpha" operator="out"/>
<feColorMatrix type="matrix" values="0 0 0 0 0 0 0 0 0 0 0 0 0 0 0 0 0 0 0.05 0"/>
<feBlend mode="normal" in2="BackgroundImageFix" result="effect1_dropShadow_1331_2319"/>
<feBlend mode="normal" in="SourceGraphic" in2="effect1_dropShadow_1331_2319" result="shape"/>
</filter>
</defs>
</svg>
