<svg width="713" height="529" viewBox="0 0 713 529" fill="none" xmlns="http://www.w3.org/2000/svg">
<g filter="url(#filter0_d_335_55)">
<path d="M223.113 68.3755H55.4123C48.0049 68.3755 42 74.3804 42 81.7879V301.588C42 308.995 48.0049 315 55.4123 315H327.588C334.995 315 341 308.995 341 301.588V60.4123C341 53.0049 334.995 47 327.588 47H251.001C246.236 47 241.828 49.5284 239.423 53.642L234.691 61.7336C232.286 65.8471 227.879 68.3755 223.113 68.3755Z" fill="white"/>
<path d="M223.113 68.3755H55.4123C48.0049 68.3755 42 74.3804 42 81.7879V301.588C42 308.995 48.0049 315 55.4123 315H327.588C334.995 315 341 308.995 341 301.588V60.4123C341 53.0049 334.995 47 327.588 47H251.001C246.236 47 241.828 49.5284 239.423 53.642L234.691 61.7336C232.286 65.8471 227.879 68.3755 223.113 68.3755Z" stroke="#E0E0E0" stroke-width="1.67654"/>
</g>
<path d="M311.294 114H71.7062C68.0025 114 65 117.002 65 120.706V243.294C65 246.998 68.0025 250 71.7062 250H311.294C314.998 250 318 246.998 318 243.294V120.706C318 117.002 314.998 114 311.294 114Z" fill="#F0F0F0"/>
<path d="M135.25 140H122.75C120.679 140 119 141.679 119 143.75V156.25C119 158.321 120.679 160 122.75 160H135.25C137.321 160 139 158.321 139 156.25V143.75C139 141.679 137.321 140 135.25 140Z" fill="#121212"/>
<path d="M123.688 150.625L124 146.875H134V150.625L128.688 152.812L123.688 150.625Z" fill="white"/>
<path fill-rule="evenodd" clip-rule="evenodd" d="M127.177 144.271C126.601 144.271 126.135 144.737 126.135 145.312V146.093H124.833C123.97 146.093 123.271 146.793 123.271 147.656V154.166C123.271 155.029 123.97 155.729 124.833 155.729H133.166C134.029 155.729 134.729 155.029 134.729 154.166V147.656C134.729 146.793 134.029 146.093 133.166 146.093H131.864V145.312C131.864 144.737 131.398 144.271 130.823 144.271H127.177ZM130.823 146.093H127.177V145.312H130.823V146.093ZM127.177 147.135H130.823H133.166C133.454 147.135 133.687 147.368 133.687 147.656V150.398L129.105 152.496C128.962 152.561 128.797 152.559 128.656 152.489L124.312 150.329V147.656C124.312 147.368 124.545 147.135 124.833 147.135H127.177ZM124.312 154.166V151.492L128.192 153.421C128.615 153.631 129.109 153.639 129.538 153.443L133.687 151.544V154.166C133.687 154.454 133.454 154.687 133.166 154.687H124.833C124.545 154.687 124.312 154.454 124.312 154.166ZM129.781 149.739C129.781 149.308 129.431 148.958 129 148.958C128.568 148.958 128.218 149.308 128.218 149.739C128.218 150.171 128.568 150.521 129 150.521C129.431 150.521 129.781 150.171 129.781 149.739Z" fill="white"/>
<path d="M130.041 149.999C130.041 149.423 129.575 148.957 129 148.957C128.424 148.957 127.958 149.423 127.958 149.999C127.958 150.574 128.424 151.04 129 151.04C129.575 151.04 130.041 150.574 130.041 149.999Z" fill="black"/>
<path d="M135.25 172H122.75C120.679 172 119 173.679 119 175.75V188.25C119 190.321 120.679 192 122.75 192H135.25C137.321 192 139 190.321 139 188.25V175.75C139 173.679 137.321 172 135.25 172Z" fill="#E0E0E0"/>
<path d="M135.25 204H122.75C120.679 204 119 205.679 119 207.75V220.25C119 222.321 120.679 224 122.75 224H135.25C137.321 224 139 222.321 139 220.25V207.75C139 205.679 137.321 204 135.25 204Z" fill="#E0E0E0"/>
<path d="M70.1651 94.9966L73.6128 90.1027H71.366L69.1966 93.4342L67.0531 90.1027H64.8063L68.2411 94.9707V98.9995H70.1651V94.9966ZM75.7145 97.3467C74.9526 97.3467 74.3586 96.7914 74.3586 95.965C74.3586 95.1773 74.9526 94.5963 75.7145 94.5963C76.4763 94.5963 77.0832 95.1773 77.0832 95.965C77.0832 96.7914 76.4892 97.3467 75.7145 97.3467ZM77.9355 98.2376C78.5424 97.6566 78.8523 96.8947 78.8523 95.965C78.8523 95.0353 78.5424 94.2864 77.9355 93.7054C77.3286 93.1243 76.5925 92.8401 75.7145 92.8401C74.8364 92.8401 74.1004 93.1243 73.4935 93.7054C72.8866 94.2864 72.5896 95.0353 72.5896 95.965C72.5896 96.8947 72.8866 97.6566 73.4935 98.2376C74.1004 98.8187 74.8364 99.1029 75.7145 99.1029C76.5925 99.1029 77.3286 98.8187 77.9355 98.2376ZM84.0256 96.1588C84.0256 96.9981 83.5608 97.3855 82.941 97.3855C82.4116 97.3855 81.8692 97.0497 81.8692 96.1845V92.9693H80.0743V96.572C80.0743 98.2248 81.0557 99.1286 82.4632 99.1286C83.0701 99.1286 83.7157 98.7542 84.0256 98.1731V98.9995H85.8205V92.9693H84.0256V96.1588ZM97.3137 92.9693L96.2419 96.5591L95.1831 92.9693H93.6465L92.5876 96.5591L91.5159 92.9693H89.6048L91.787 98.9995H93.2849L94.4212 95.1645L95.6092 98.9995H97.1071L99.2248 92.9693H97.3137ZM100.176 92.9693V98.9995H101.958V92.9693H100.176ZM101.067 89.6895C100.448 89.6895 99.944 90.1544 99.944 90.7354C99.944 91.3165 100.448 91.7943 101.067 91.7943C101.674 91.7943 102.165 91.3165 102.165 90.7354C102.165 90.1544 101.674 89.6895 101.067 89.6895ZM103.606 98.9995H105.401V89.6895H103.606V98.9995ZM107.049 98.9995H108.844V89.6895H107.049V98.9995ZM116.562 92.8401C115.671 92.8401 114.897 93.1371 114.251 93.7182C113.605 94.2993 113.282 95.0482 113.282 95.965C113.282 96.8818 113.605 97.6437 114.251 98.2376C114.897 98.8316 115.671 99.1286 116.562 99.1286C117.647 99.1286 118.615 98.6509 119.184 97.8374L117.724 96.8044C117.466 97.2047 117.079 97.4112 116.562 97.4112C116.162 97.4112 115.813 97.2821 115.516 97.0109C115.219 96.7398 115.064 96.3911 115.064 95.965C115.064 95.5518 115.219 95.2161 115.516 94.9578C115.813 94.6866 116.162 94.5575 116.562 94.5575C117.079 94.5575 117.466 94.7642 117.724 95.1645L119.184 94.1186C118.602 93.3051 117.634 92.8401 116.562 92.8401ZM122.223 96.8948C122.223 95.2936 122.727 94.493 123.721 94.493C124.083 94.493 124.392 94.5576 124.638 94.6738L124.961 93.0596C124.664 92.9176 124.328 92.8401 123.928 92.8401C123.243 92.8401 122.52 93.3825 122.223 94.4285V92.9693H120.428V98.9995H122.223V96.8948ZM130.023 97.0109C129.726 97.3854 129.287 97.5791 128.706 97.5791C127.996 97.5791 127.311 97.2306 127.221 96.572H131.637C131.65 96.3654 131.663 96.1845 131.663 96.0167C131.663 95.074 131.366 94.3122 130.772 93.7311C130.191 93.1371 129.455 92.8401 128.577 92.8401C127.686 92.8401 126.937 93.1243 126.33 93.7054C125.723 94.2864 125.426 95.0353 125.426 95.965C125.426 96.8947 125.723 97.6566 126.33 98.2506C126.937 98.8316 127.686 99.1286 128.577 99.1286C129.855 99.1286 130.772 98.7154 131.327 97.9019L130.023 97.0109ZM127.247 95.4485C127.531 94.0668 129.674 94.0797 129.855 95.4485H127.247ZM139.137 98.9995V92.9693H137.355V93.6407C136.942 93.0596 136.167 92.8401 135.599 92.8401C134.785 92.8401 134.075 93.1371 133.455 93.7182C132.835 94.2993 132.525 95.0483 132.525 95.978C132.525 96.9077 132.835 97.6695 133.455 98.2506C134.075 98.8316 134.785 99.1158 135.599 99.1158C135.883 99.1158 136.206 99.0512 136.554 98.9091C136.916 98.7671 137.187 98.5734 137.355 98.3151V98.9995H139.137ZM135.896 97.4112C135.495 97.4112 135.147 97.2821 134.837 97.0109C134.54 96.7398 134.385 96.3912 134.385 95.978C134.385 95.5648 134.54 95.229 134.837 94.9578C135.147 94.6866 135.495 94.5446 135.896 94.5446C136.67 94.5446 137.355 95.1129 137.355 95.978C137.355 96.8432 136.67 97.4112 135.896 97.4112ZM143.144 90.658H141.362V92.9693H140.264V94.3896H141.362V98.9995H143.144V94.3896H144.409V92.9693H143.144V90.658ZM149.657 97.0109C149.36 97.3854 148.921 97.5791 148.34 97.5791C147.63 97.5791 146.945 97.2306 146.855 96.572H151.271C151.284 96.3654 151.297 96.1845 151.297 96.0167C151.297 95.074 151 94.3122 150.406 93.7311C149.825 93.1371 149.089 92.8401 148.211 92.8401C147.32 92.8401 146.571 93.1243 145.964 93.7054C145.357 94.2864 145.06 95.0353 145.06 95.965C145.06 96.8947 145.357 97.6566 145.964 98.2506C146.571 98.8316 147.32 99.1286 148.211 99.1286C149.489 99.1286 150.406 98.7154 150.961 97.9019L149.657 97.0109ZM146.881 95.4485C147.165 94.0668 149.308 94.0797 149.489 95.4485H146.881ZM157.835 90.658H156.053V92.9693H154.955V94.3896H156.053V98.9995H157.835V94.3896H159.1V92.9693H157.835V90.658ZM161.995 95.8101C161.995 94.9708 162.538 94.5834 163.196 94.5834C163.777 94.5834 164.307 95.0482 164.307 95.7842V98.9995H166.102V95.7197C166.102 93.8731 165.249 92.8401 163.687 92.8401C163.364 92.8401 163.028 92.9306 162.68 93.1243C162.331 93.3051 162.112 93.5632 161.995 93.9119V89.6895H160.201V98.9995H161.995V95.8101ZM171.914 97.0109C171.617 97.3854 171.178 97.5791 170.597 97.5791C169.886 97.5791 169.202 97.2306 169.112 96.572H173.528C173.541 96.3654 173.554 96.1845 173.554 96.0167C173.554 95.074 173.257 94.3122 172.663 93.7311C172.082 93.1371 171.346 92.8401 170.468 92.8401C169.577 92.8401 168.828 93.1243 168.221 93.7054C167.614 94.2864 167.317 95.0353 167.317 95.965C167.317 96.8947 167.614 97.6566 168.221 98.2506C168.828 98.8316 169.577 99.1286 170.468 99.1286C171.746 99.1286 172.663 98.7154 173.218 97.9019L171.914 97.0109ZM169.138 95.4485C169.422 94.0668 171.565 94.0797 171.746 95.4485H169.138ZM184.348 92.5819C184.348 91.0711 183.315 90.1027 181.714 90.1027H178.15V98.9995H181.972C182.837 98.9995 183.522 98.7413 184.038 98.2119C184.555 97.6825 184.813 97.0368 184.813 96.2749C184.813 95.8617 184.671 95.4614 184.374 95.0611C184.09 94.6608 183.677 94.3897 183.134 94.2477C183.974 93.9249 184.348 93.2533 184.348 92.5819ZM180.048 91.7684H181.52C182.075 91.7684 182.359 92.13 182.359 92.6982C182.359 93.2276 182.011 93.615 181.533 93.615H180.048V91.7684ZM181.83 95.1774C182.45 95.1774 182.824 95.681 182.824 96.2363C182.824 96.8173 182.476 97.3338 181.869 97.3338H180.048V95.1774H181.83ZM190.039 96.1588C190.039 96.9981 189.574 97.3855 188.954 97.3855C188.425 97.3855 187.883 97.0497 187.883 96.1845V92.9693H186.088V96.572C186.088 98.2248 187.069 99.1286 188.476 99.1286C189.083 99.1286 189.729 98.7542 190.039 98.1731V98.9995H191.834V92.9693H190.039V96.1588ZM195.841 96.727C196.268 96.8432 196.435 96.9851 196.435 97.2434C196.435 97.5404 196.113 97.734 195.699 97.747C195.222 97.747 194.821 97.4113 194.808 97.0498H193.13C193.143 97.6825 193.388 98.1989 193.892 98.5734C194.395 98.9478 194.989 99.1286 195.648 99.1286C196.345 99.1286 196.952 98.9608 197.468 98.6379C197.998 98.3151 198.256 97.8503 198.256 97.2434C198.256 96.8818 198.204 96.5461 197.675 96.0425C197.417 95.7971 197.068 95.6035 196.616 95.4873L195.596 95.2161C195.26 95.1257 195.08 94.9837 195.067 94.7642C195.054 94.493 195.299 94.3122 195.699 94.3122C196.151 94.3122 196.371 94.493 196.384 94.8417H198.075C198.062 94.1573 197.817 93.6536 197.339 93.3308C196.862 93.008 196.28 92.8401 195.596 92.8401C194.963 92.8401 194.421 93.021 193.956 93.3696C193.491 93.7183 193.259 94.1056 193.246 94.5575C193.233 94.932 193.259 95.1386 193.453 95.5518C193.659 95.9521 194.214 96.3007 195.054 96.5202L195.841 96.727ZM199.519 92.9693V98.9995H201.301V92.9693H199.519ZM200.41 89.6895C199.79 89.6895 199.286 90.1544 199.286 90.7354C199.286 91.3165 199.79 91.7943 200.41 91.7943C201.017 91.7943 201.507 91.3165 201.507 90.7354C201.507 90.1544 201.017 89.6895 200.41 89.6895ZM204.744 95.8101C204.744 94.9966 205.118 94.5834 205.854 94.5834C206.487 94.5834 206.9 95.0095 206.9 95.7842V98.9995H208.695V95.3969C208.695 93.7054 207.882 92.8401 206.487 92.8401C205.777 92.8401 205.067 93.2405 204.744 93.8474V92.9693H202.949V98.9995H204.744V95.8101ZM214.523 97.0109C214.226 97.3854 213.787 97.5791 213.206 97.5791C212.496 97.5791 211.812 97.2306 211.721 96.572H216.137C216.15 96.3654 216.163 96.1845 216.163 96.0167C216.163 95.074 215.866 94.3122 215.272 93.7311C214.691 93.1371 213.955 92.8401 213.077 92.8401C212.186 92.8401 211.437 93.1243 210.83 93.7054C210.223 94.2864 209.926 95.0353 209.926 95.965C209.926 96.8947 210.223 97.6566 210.83 98.2506C211.437 98.8316 212.186 99.1286 213.077 99.1286C214.355 99.1286 215.272 98.7154 215.828 97.9019L214.523 97.0109ZM211.747 95.4485C212.031 94.0668 214.175 94.0797 214.355 95.4485H211.747ZM219.738 96.727C220.164 96.8432 220.332 96.9851 220.332 97.2434C220.332 97.5404 220.009 97.734 219.596 97.747C219.118 97.747 218.717 97.4113 218.705 97.0498H217.026C217.039 97.6825 217.284 98.1989 217.788 98.5734C218.291 98.9478 218.885 99.1286 219.544 99.1286C220.241 99.1286 220.848 98.9608 221.365 98.6379C221.894 98.3151 222.152 97.8503 222.152 97.2434C222.152 96.8818 222.101 96.5461 221.571 96.0425C221.313 95.7971 220.964 95.6035 220.512 95.4873L219.492 95.2161C219.157 95.1257 218.976 94.9837 218.963 94.7642C218.95 94.493 219.195 94.3122 219.596 94.3122C220.047 94.3122 220.267 94.493 220.28 94.8417H221.971C221.959 94.1573 221.713 93.6536 221.235 93.3308C220.758 93.008 220.177 92.8401 219.492 92.8401C218.86 92.8401 218.317 93.021 217.852 93.3696C217.387 93.7183 217.155 94.1056 217.142 94.5575C217.129 94.932 217.155 95.1386 217.349 95.5518C217.555 95.9521 218.111 96.3007 218.95 96.5202L219.738 96.727ZM225.765 96.727C226.191 96.8432 226.359 96.9851 226.359 97.2434C226.359 97.5404 226.036 97.734 225.623 97.747C225.145 97.747 224.745 97.4113 224.732 97.0498H223.054C223.066 97.6825 223.312 98.1989 223.815 98.5734C224.319 98.9478 224.913 99.1286 225.572 99.1286C226.269 99.1286 226.876 98.9608 227.392 98.6379C227.922 98.3151 228.18 97.8503 228.18 97.2434C228.18 96.8818 228.128 96.5461 227.599 96.0425C227.341 95.7971 226.992 95.6035 226.54 95.4873L225.52 95.2161C225.184 95.1257 225.003 94.9837 224.99 94.7642C224.978 94.493 225.223 94.3122 225.623 94.3122C226.075 94.3122 226.295 94.493 226.308 94.8417H227.999C227.986 94.1573 227.741 93.6536 227.263 93.3308C226.785 93.008 226.204 92.8401 225.52 92.8401C224.887 92.8401 224.345 93.021 223.88 93.3696C223.415 93.7183 223.183 94.1056 223.17 94.5575C223.157 94.932 223.183 95.1386 223.376 95.5518C223.583 95.9521 224.138 96.3007 224.978 96.5202L225.765 96.727ZM238.987 96.12C238.483 96.856 237.683 97.3467 236.766 97.3467C236.03 97.3467 235.423 97.0756 234.932 96.5462C234.442 96.0038 234.196 95.3452 234.196 94.5704C234.196 93.7827 234.442 93.1242 234.932 92.5948C235.423 92.0524 236.03 91.7813 236.766 91.7813C237.683 91.7813 238.406 92.1687 238.935 92.9435L240.472 91.8847C239.684 90.7354 238.316 89.9994 236.766 89.9994C235.501 89.9994 234.442 90.4384 233.577 91.3294C232.724 92.2204 232.298 93.2921 232.298 94.5704C232.298 95.8359 232.724 96.9077 233.577 97.7987C234.442 98.6897 235.501 99.1286 236.766 99.1286C238.354 99.1286 239.723 98.3797 240.511 97.1788L238.987 96.12ZM245.86 97.0109C245.563 97.3854 245.123 97.5791 244.542 97.5791C243.832 97.5791 243.148 97.2306 243.057 96.572H247.474C247.487 96.3654 247.499 96.1845 247.499 96.0167C247.499 95.074 247.202 94.3122 246.608 93.7311C246.027 93.1371 245.291 92.8401 244.413 92.8401C243.522 92.8401 242.773 93.1243 242.166 93.7054C241.56 94.2864 241.263 95.0353 241.263 95.965C241.263 96.8947 241.56 97.6566 242.166 98.2506C242.773 98.8316 243.522 99.1286 244.413 99.1286C245.692 99.1286 246.608 98.7154 247.164 97.9019L245.86 97.0109ZM243.083 95.4485C243.367 94.0668 245.511 94.0797 245.692 95.4485H243.083ZM250.518 95.8101C250.518 94.9966 250.893 94.5834 251.629 94.5834C252.262 94.5834 252.675 95.0095 252.675 95.7842V98.9995H254.47V95.3969C254.47 93.7054 253.656 92.8401 252.262 92.8401C251.552 92.8401 250.841 93.2405 250.518 93.8474V92.9693H248.724V98.9995H250.518V95.8101ZM258.413 90.658H256.631V92.9693H255.533V94.3896H256.631V98.9995H258.413V94.3896H259.678V92.9693H258.413V90.658ZM264.926 97.0109C264.629 97.3854 264.19 97.5791 263.609 97.5791C262.899 97.5791 262.214 97.2306 262.124 96.572H266.54C266.553 96.3654 266.566 96.1845 266.566 96.0167C266.566 95.074 266.269 94.3122 265.675 93.7311C265.094 93.1371 264.358 92.8401 263.48 92.8401C262.589 92.8401 261.84 93.1243 261.233 93.7054C260.626 94.2864 260.329 95.0353 260.329 95.965C260.329 96.8947 260.626 97.6566 261.233 98.2506C261.84 98.8316 262.589 99.1286 263.48 99.1286C264.758 99.1286 265.675 98.7154 266.23 97.9019L264.926 97.0109ZM262.15 95.4485C262.434 94.0668 264.577 94.0797 264.758 95.4485H262.15ZM269.585 96.8948C269.585 95.2936 270.089 94.493 271.083 94.493C271.444 94.493 271.754 94.5576 272 94.6738L272.322 93.0596C272.026 92.9176 271.69 92.8401 271.289 92.8401C270.605 92.8401 269.882 93.3825 269.585 94.4285V92.9693H267.79V98.9995H269.585V96.8948ZM279.205 89.6895C277.461 89.6895 276.48 90.7096 276.48 92.5561V92.9693H275.344V94.3896H276.48V98.9995H278.288V94.3896H279.502V92.9693H278.288V92.5561C278.288 91.7943 278.598 91.4069 279.205 91.4069H279.863V89.6895H279.205ZM283.29 97.3467C282.528 97.3467 281.934 96.7914 281.934 95.965C281.934 95.1773 282.528 94.5963 283.29 94.5963C284.052 94.5963 284.658 95.1773 284.658 95.965C284.658 96.7914 284.064 97.3467 283.29 97.3467ZM285.511 98.2376C286.118 97.6566 286.427 96.8947 286.427 95.965C286.427 95.0353 286.118 94.2864 285.511 93.7054C284.904 93.1243 284.168 92.8401 283.29 92.8401C282.412 92.8401 281.676 93.1243 281.069 93.7054C280.462 94.2864 280.165 95.0353 280.165 95.965C280.165 96.8947 280.462 97.6566 281.069 98.2376C281.676 98.8187 282.412 99.1029 283.29 99.1029C284.168 99.1029 284.904 98.8187 285.511 98.2376ZM289.509 96.8948C289.509 95.2936 290.013 94.493 291.007 94.493C291.368 94.493 291.678 94.5576 291.924 94.6738L292.246 93.0596C291.949 92.9176 291.614 92.8401 291.213 92.8401C290.529 92.8401 289.806 93.3825 289.509 94.4285V92.9693H287.714V98.9995H289.509V96.8948Z" fill="#333333"/>
<path d="M308.683 61H271.989C269.786 61 268 62.7857 268 64.9885C268 67.1914 269.786 68.9771 271.989 68.9771H308.683C310.886 68.9771 312.672 67.1914 312.672 64.9885C312.672 62.7857 310.886 61 308.683 61Z" fill="#F0F0F0"/>
<path d="M261 152H156C153.791 152 152 153.791 152 156C152 158.209 153.791 160 156 160H261C263.209 160 265 158.209 265 156C265 153.791 263.209 152 261 152Z" fill="white"/>
<path d="M261 178H156C153.791 178 152 179.791 152 182C152 184.209 153.791 186 156 186H261C263.209 186 265 184.209 265 182C265 179.791 263.209 178 261 178Z" fill="white"/>
<path d="M261 210H156C153.791 210 152 211.791 152 214C152 216.209 153.791 218 156 218H261C263.209 218 265 216.209 265 214C265 211.791 263.209 210 261 210Z" fill="white"/>
<path d="M132.137 264H76.3764C70.0934 264 65 269.093 65 275.376C65 281.659 70.0934 286.753 76.3764 286.753H132.137C138.42 286.753 143.513 281.659 143.513 275.376C143.513 269.093 138.42 264 132.137 264Z" fill="#89b93f"/>
<path d="M86.3791 272.61C85.8277 271.968 84.9781 271.588 84.038 271.588C83.1432 271.588 82.3929 271.905 81.7692 272.528C81.1546 273.152 80.8473 273.902 80.8473 274.788C80.8473 275.665 81.1546 276.424 81.7692 277.048C82.3929 277.671 83.1432 277.979 84.038 277.979C84.969 277.979 85.7102 277.699 86.2525 277.147C86.8039 276.587 87.0751 275.746 87.0751 274.616H83.8753V275.692H85.5475C85.5385 276.008 85.3758 276.261 85.0594 276.469C84.743 276.668 84.3996 276.768 84.038 276.768C83.5228 276.768 83.0799 276.578 82.7183 276.189C82.3568 275.8 82.176 275.33 82.176 274.788C82.176 274.246 82.3568 273.785 82.7093 273.396C83.0708 273.007 83.5138 272.818 84.038 272.818C84.5713 272.818 85.0323 273.025 85.4029 273.45L86.3791 272.61ZM90.8521 276.496C90.6442 276.759 90.3369 276.894 89.9301 276.894C89.433 276.894 88.9539 276.65 88.8906 276.189H91.982C91.991 276.044 92 275.918 92 275.8C92 275.141 91.7921 274.607 91.3764 274.201C90.9696 273.785 90.4544 273.577 89.8397 273.577C89.216 273.577 88.6918 273.776 88.267 274.182C87.8421 274.589 87.6342 275.113 87.6342 275.764C87.6342 276.415 87.8421 276.948 88.267 277.364C88.6918 277.771 89.216 277.979 89.8397 277.979C90.7346 277.979 91.3764 277.69 91.765 277.12L90.8521 276.496ZM88.9087 275.403C89.1076 274.436 90.608 274.445 90.7346 275.403H88.9087ZM94.4668 272.049H93.2194V273.667H92.4511V274.662H93.2194V277.888H94.4668V274.662H95.3526V273.667H94.4668V272.049ZM99.7983 276.298C100.097 276.379 100.214 276.478 100.214 276.659C100.214 276.867 99.9881 277.003 99.6989 277.012C99.3644 277.012 99.0842 276.777 99.0752 276.524H97.9001C97.9092 276.966 98.0809 277.328 98.4334 277.59C98.7859 277.852 99.2017 277.979 99.6627 277.979C100.151 277.979 100.576 277.861 100.937 277.635C101.308 277.409 101.489 277.084 101.489 276.659C101.489 276.406 101.452 276.171 101.082 275.819C100.901 275.647 100.657 275.511 100.341 275.43L99.6266 275.24C99.3916 275.177 99.265 275.077 99.256 274.924C99.2469 274.734 99.4187 274.607 99.6989 274.607C100.015 274.607 100.169 274.734 100.178 274.978H101.362C101.353 274.499 101.181 274.146 100.847 273.92C100.512 273.694 100.106 273.577 99.6266 273.577C99.1837 273.577 98.804 273.703 98.4786 273.947C98.1532 274.192 97.9905 274.463 97.9815 274.779C97.9724 275.041 97.9905 275.186 98.1261 275.475C98.2707 275.755 98.6594 275.999 99.2469 276.153L99.7983 276.298ZM104.018 272.049H102.77V273.667H102.002V274.662H102.77V277.888H104.018V274.662H104.903V273.667H104.018V272.049ZM109.987 277.888V273.667H108.74V274.137C108.45 273.731 107.908 273.577 107.51 273.577C106.941 273.577 106.444 273.785 106.01 274.192C105.576 274.598 105.359 275.123 105.359 275.773C105.359 276.424 105.576 276.957 106.01 277.364C106.444 277.771 106.941 277.97 107.51 277.97C107.709 277.97 107.935 277.925 108.179 277.825C108.432 277.726 108.622 277.59 108.74 277.409V277.888H109.987ZM107.718 276.777C107.438 276.777 107.194 276.686 106.977 276.496C106.769 276.307 106.661 276.063 106.661 275.773C106.661 275.484 106.769 275.249 106.977 275.059C107.194 274.869 107.438 274.77 107.718 274.77C108.261 274.77 108.74 275.168 108.74 275.773C108.74 276.379 108.261 276.777 107.718 276.777ZM112.403 276.415C112.403 275.294 112.756 274.734 113.452 274.734C113.705 274.734 113.922 274.779 114.093 274.86L114.319 273.731C114.111 273.631 113.876 273.577 113.596 273.577C113.117 273.577 112.611 273.956 112.403 274.689V273.667H111.147V277.888H112.403V276.415ZM116.614 272.049H115.367V273.667H114.598V274.662H115.367V277.888H116.614V274.662H117.5V273.667H116.614V272.049ZM121.173 276.496C120.965 276.759 120.658 276.894 120.251 276.894C119.754 276.894 119.275 276.65 119.212 276.189H122.303C122.312 276.044 122.321 275.918 122.321 275.8C122.321 275.141 122.113 274.607 121.697 274.201C121.291 273.785 120.775 273.577 120.161 273.577C119.537 273.577 119.013 273.776 118.588 274.182C118.163 274.589 117.955 275.113 117.955 275.764C117.955 276.415 118.163 276.948 118.588 277.364C119.013 277.771 119.537 277.979 120.161 277.979C121.056 277.979 121.697 277.69 122.086 277.12L121.173 276.496ZM119.23 275.403C119.429 274.436 120.929 274.445 121.056 275.403H119.23ZM126.188 275.764C126.188 276.352 125.754 276.786 125.212 276.786C124.669 276.786 124.236 276.379 124.236 275.764C124.236 275.177 124.669 274.761 125.212 274.761C125.754 274.761 126.188 275.15 126.188 275.764ZM127.462 271.371H126.215V274.182C126.007 273.812 125.519 273.577 124.977 273.577C124.416 273.577 123.937 273.785 123.531 274.192C123.133 274.598 122.934 275.132 122.934 275.791C122.934 276.433 123.133 276.966 123.531 277.373C123.937 277.78 124.416 277.979 124.977 277.979C125.519 277.979 126.007 277.753 126.215 277.364V277.888H127.462V271.371Z" fill="white"/>
<path d="M155.87 143.879L158.53 140.109H157L155.21 142.759L153.44 140.109H151.92L154.56 143.859V146.999H155.87V143.879ZM161.47 144.649C161.47 145.399 160.94 145.899 160.25 145.899C159.56 145.899 159.03 145.399 159.03 144.649C159.03 143.929 159.56 143.429 160.25 143.429C160.94 143.429 161.47 143.929 161.47 144.649ZM161.97 146.409C162.44 145.959 162.68 145.369 162.68 144.649C162.68 143.929 162.44 143.349 161.97 142.899C161.5 142.449 160.93 142.229 160.25 142.229C159.57 142.229 158.99 142.449 158.52 142.899C158.05 143.349 157.82 143.929 157.82 144.649C157.82 145.369 158.05 145.959 158.52 146.409C158.99 146.859 159.57 147.089 160.25 147.089C160.93 147.089 161.5 146.859 161.97 146.409ZM166.844 144.819C166.844 145.569 166.404 145.909 165.834 145.909C165.344 145.909 164.944 145.579 164.944 144.869V142.329H163.714V145.089C163.714 146.379 164.424 147.099 165.554 147.099C166.044 147.099 166.594 146.819 166.844 146.339V146.999H168.064V142.329H166.844V144.819ZM170.668 145.349C170.668 144.029 171.058 143.369 171.838 143.369C172.118 143.369 172.358 143.409 172.548 143.499L172.758 142.399C172.548 142.289 172.288 142.229 171.988 142.229C171.418 142.229 170.898 142.629 170.668 143.429V142.329H169.448V146.999H170.668V145.349ZM178.025 142.229C177.335 142.229 176.735 142.459 176.245 142.909C175.755 143.359 175.505 143.939 175.505 144.649C175.505 145.359 175.755 145.949 176.245 146.409C176.735 146.869 177.335 147.099 178.025 147.099C178.815 147.099 179.535 146.769 179.975 146.179L178.995 145.459C178.765 145.769 178.445 145.929 178.025 145.929C177.675 145.929 177.365 145.809 177.105 145.569C176.845 145.319 176.715 145.019 176.715 144.649C176.715 144.279 176.845 143.989 177.105 143.759C177.365 143.529 177.675 143.409 178.025 143.409C178.445 143.409 178.765 143.559 178.995 143.869L179.965 143.139C179.525 142.569 178.815 142.229 178.025 142.229ZM184.292 144.649C184.292 145.399 183.762 145.899 183.072 145.899C182.382 145.899 181.852 145.399 181.852 144.649C181.852 143.929 182.382 143.429 183.072 143.429C183.762 143.429 184.292 143.929 184.292 144.649ZM184.792 146.409C185.262 145.959 185.502 145.369 185.502 144.649C185.502 143.929 185.262 143.349 184.792 142.899C184.322 142.449 183.752 142.229 183.072 142.229C182.392 142.229 181.812 142.449 181.342 142.899C180.872 143.349 180.642 143.929 180.642 144.649C180.642 145.369 180.872 145.959 181.342 146.409C181.812 146.859 182.392 147.089 183.072 147.089C183.752 147.089 184.322 146.859 184.792 146.409ZM191.826 143.419C192.346 143.419 192.706 143.809 192.706 144.459V146.999H193.916V144.329C193.916 142.969 193.266 142.229 192.116 142.229C191.466 142.229 190.976 142.519 190.646 143.109C190.396 142.569 189.906 142.279 189.156 142.239C188.636 142.239 188.056 142.499 187.816 143.019V142.329H186.596V146.999H187.816V144.509C187.816 143.759 188.236 143.419 188.796 143.419C189.286 143.419 189.646 143.799 189.656 144.429V146.999H190.876V144.509C190.876 143.819 191.256 143.419 191.826 143.419ZM195.239 142.329V149.269H196.459V146.379C196.699 146.829 197.289 147.099 197.919 147.099C198.549 147.099 199.089 146.879 199.529 146.429C199.979 145.979 200.199 145.389 200.199 144.659C200.199 143.949 199.979 143.359 199.529 142.909C199.079 142.459 198.549 142.229 197.919 142.229C197.289 142.229 196.699 142.509 196.459 142.959V142.329H195.239ZM196.479 144.679C196.479 143.919 197.029 143.399 197.719 143.399C198.059 143.399 198.349 143.519 198.589 143.759C198.829 143.999 198.949 144.309 198.949 144.679C198.949 145.429 198.409 145.939 197.719 145.939C197.039 145.939 196.479 145.449 196.479 144.679ZM206.054 146.999V142.329H204.834V142.909C204.524 142.439 203.904 142.229 203.384 142.229C202.734 142.229 202.174 142.459 201.704 142.909C201.234 143.359 201.004 143.939 201.004 144.659C201.004 145.379 201.244 145.969 201.714 146.419C202.184 146.869 202.744 147.089 203.384 147.089C203.904 147.089 204.554 146.839 204.834 146.399V146.999H206.054ZM204.834 144.659C204.884 145.819 203.384 146.309 202.644 145.569C202.394 145.329 202.264 145.029 202.264 144.659C202.264 144.289 202.394 143.989 202.644 143.759C202.904 143.519 203.204 143.399 203.554 143.399C203.894 143.399 204.194 143.509 204.444 143.739C204.704 143.969 204.834 144.269 204.834 144.659ZM208.656 144.509C208.656 143.749 209.076 143.419 209.676 143.419C210.226 143.419 210.566 143.789 210.566 144.459V146.999H211.786V144.239C211.786 142.929 211.156 142.229 210.046 142.229C209.486 142.229 208.906 142.539 208.656 143.019V142.329H207.436V146.999H208.656V144.509ZM216.072 142.329L214.902 145.239L213.742 142.329H212.442L214.262 146.639L213.192 149.279H214.482L217.372 142.329H216.072Z" fill="#121212" fill-opacity="0.5"/>
<path d="M268 131.61C268 126.855 271.855 123 276.61 123H661.39C666.145 123 670 126.855 670 131.61V450.39C670 455.145 666.145 459 661.39 459H276.61C271.855 459 268 455.145 268 450.39V131.61Z" fill="white"/>
<path d="M268.499 131.609C268.499 127.129 272.13 123.498 276.61 123.498H660.48C664.96 123.498 668.592 127.129 668.592 131.609V449.389C668.592 453.869 664.96 457.5 660.48 457.5H276.61C272.13 457.5 268.499 453.869 268.499 449.389V131.609Z" fill="url(#paint0_linear_335_55)" stroke="white" stroke-width="0.997137"/>
<path d="M268.91 132.61C268.91 127.855 272.764 124 277.52 124H661.39C666.145 124 670 127.855 670 132.61V204H268.91V132.61Z" fill="black"/>
<path d="M542.611 171.66H509.959C507.756 171.66 505.97 173.446 505.97 175.649C505.97 177.852 507.756 179.637 509.959 179.637H542.611C544.813 179.637 546.599 177.852 546.599 175.649C546.599 173.446 544.813 171.66 542.611 171.66Z" fill="#F0F0F0"/>
<path d="M611.797 405H563.141C556.858 405 551.765 410.093 551.765 416.376C551.765 422.659 556.858 427.753 563.141 427.753H611.797C618.08 427.753 623.173 422.659 623.173 416.376C623.173 410.093 618.08 405 611.797 405Z" fill="#89b93f"/>
<path d="M572.348 417.063C572.348 417.632 572.556 418.093 572.972 418.455C573.388 418.807 573.93 418.988 574.608 418.988C575.376 418.988 576.063 418.753 576.506 418.183C576.732 417.894 576.841 417.551 576.85 417.162C576.877 416.249 576.307 415.616 575.141 415.282L574.4 415.047C573.957 414.92 573.731 414.712 573.731 414.414C573.731 414.053 574.066 413.79 574.536 413.79C575.051 413.79 575.34 414.071 575.34 414.496H576.66C576.66 413.908 576.461 413.447 576.063 413.104C575.675 412.76 575.169 412.588 574.554 412.588C573.948 412.588 573.433 412.76 573.026 413.113C572.62 413.456 572.412 413.899 572.412 414.45C572.412 415.309 572.945 415.906 574.021 416.24L574.771 416.448C575.358 416.62 575.53 416.837 575.521 417.153C575.512 417.551 575.15 417.813 574.608 417.813C574.039 417.813 573.704 417.487 573.677 417.063H572.348ZM577.746 414.667V418.888H578.993V414.667H577.746ZM578.37 412.371C577.936 412.371 577.583 412.697 577.583 413.104C577.583 413.51 577.936 413.845 578.37 413.845C578.794 413.845 579.138 413.51 579.138 413.104C579.138 412.697 578.794 412.371 578.37 412.371ZM583.238 416.764C583.238 417.063 583.139 417.307 582.931 417.505C582.723 417.695 582.488 417.795 582.217 417.795C581.665 417.795 581.204 417.379 581.204 416.764C581.204 416.186 581.665 415.77 582.217 415.77C582.768 415.77 583.238 416.159 583.238 416.764ZM580.02 419.684C580.382 420.479 581.168 420.994 582.099 420.994C583.627 420.994 584.486 420.082 584.486 418.301V414.667H583.265V415.192C583.057 414.821 582.542 414.577 582 414.577C581.43 414.577 580.942 414.785 580.518 415.201C580.102 415.607 579.894 416.141 579.894 416.791C579.894 417.433 580.102 417.957 580.518 418.364C580.942 418.771 581.43 418.979 582 418.979C582.542 418.979 583.076 418.735 583.265 418.364C583.329 419.367 582.94 419.865 582.099 419.865C581.665 419.865 581.177 419.575 581.033 419.187L580.02 419.684ZM586.903 416.656C586.903 416.086 587.165 415.797 587.68 415.797C588.123 415.797 588.412 416.095 588.412 416.638V418.888H589.669V416.367C589.669 415.182 589.099 414.577 588.123 414.577C587.626 414.577 587.129 414.857 586.903 415.282V414.667H585.646V418.888H586.903V416.656ZM595.711 416.9C595.711 417.487 595.386 417.759 594.952 417.759C594.581 417.759 594.202 417.524 594.202 416.918V414.667H592.945V417.189C592.945 418.346 593.632 418.979 594.617 418.979C595.042 418.979 595.494 418.717 595.711 418.31V418.888H596.967V414.667H595.711V416.9ZM599.402 416.791C599.402 416.204 599.836 415.77 600.378 415.77C600.921 415.77 601.355 416.186 601.355 416.791C601.355 417.379 600.921 417.795 600.378 417.795C599.836 417.795 599.402 417.406 599.402 416.791ZM598.128 420.958H599.375V418.373C599.583 418.744 600.071 418.979 600.613 418.979C601.174 418.979 601.653 418.771 602.051 418.364C602.457 417.957 602.656 417.424 602.656 416.764C602.656 416.123 602.457 415.598 602.051 415.192C601.653 414.785 601.174 414.577 600.613 414.577C600.071 414.577 599.583 414.803 599.375 415.192V414.667H598.128V420.958Z" fill="white"/>
<path d="M494.727 171.66H462.075C459.872 171.66 458.086 173.446 458.086 175.649C458.086 177.852 459.872 179.637 462.075 179.637H494.727C496.929 179.637 498.715 177.852 498.715 175.649C498.715 173.446 496.929 171.66 494.727 171.66Z" fill="#E0E0E0"/>
<path d="M616.909 155H320.181C316.477 155 313.475 158.002 313.475 161.706V223.294C313.475 226.998 316.477 230 320.181 230H616.909C620.613 230 623.615 226.998 623.615 223.294V161.706C623.615 158.002 620.613 155 616.909 155Z" fill="white"/>
<path d="M616.909 239H320.181C316.477 239 313.475 242.002 313.475 245.706V277.294C313.475 280.998 316.477 284 320.181 284H616.909C620.613 284 623.615 280.998 623.615 277.294V245.706C623.615 242.002 620.613 239 616.909 239Z" fill="white"/>
<path d="M616.909 292H320.181C316.477 292 313.475 295.002 313.475 298.706V331.294C313.475 334.998 316.477 338 320.181 338H616.909C620.613 338 623.615 334.998 623.615 331.294V298.706C623.615 295.002 620.613 292 616.909 292Z" fill="white"/>
<path d="M616.909 346H320.181C316.477 346 313.475 349.002 313.475 352.706V384.294C313.475 387.998 316.477 391 320.181 391H616.909C620.613 391 623.615 387.998 623.615 384.294V352.706C623.615 349.002 620.613 346 616.909 346Z" fill="white"/>
<path d="M343.431 177.119C342.928 177.855 342.127 178.346 341.21 178.346C340.474 178.346 339.867 178.075 339.377 177.546C338.886 177.003 338.64 176.345 338.64 175.57C338.64 174.782 338.886 174.124 339.377 173.594C339.867 173.052 340.474 172.781 341.21 172.781C342.127 172.781 342.85 173.168 343.379 173.943L344.916 172.884C344.128 171.735 342.76 170.999 341.21 170.999C339.945 170.999 338.886 171.438 338.021 172.329C337.168 173.22 336.742 174.292 336.742 175.57C336.742 176.835 337.168 177.907 338.021 178.798C338.886 179.689 339.945 180.128 341.21 180.128C342.798 180.128 344.167 179.379 344.955 178.178L343.431 177.119ZM347.863 177.894C347.863 176.293 348.367 175.492 349.361 175.492C349.722 175.492 350.032 175.557 350.278 175.673L350.601 174.059C350.304 173.917 349.968 173.84 349.568 173.84C348.883 173.84 348.16 174.382 347.863 175.428V173.969H346.068V179.999H347.863V177.894ZM355.663 178.01C355.366 178.385 354.927 178.579 354.346 178.579C353.636 178.579 352.951 178.23 352.861 177.571H357.277C357.29 177.365 357.303 177.184 357.303 177.016C357.303 176.074 357.006 175.312 356.412 174.731C355.831 174.137 355.095 173.84 354.217 173.84C353.326 173.84 352.577 174.124 351.97 174.705C351.363 175.286 351.066 176.035 351.066 176.965C351.066 177.894 351.363 178.656 351.97 179.25C352.577 179.831 353.326 180.128 354.217 180.128C355.495 180.128 356.412 179.715 356.967 178.901L355.663 178.01ZM352.887 176.448C353.171 175.066 355.314 175.079 355.495 176.448H352.887ZM364.777 179.999V173.969H362.995V174.64C362.582 174.059 361.807 173.84 361.239 173.84C360.425 173.84 359.715 174.137 359.095 174.718C358.475 175.299 358.165 176.048 358.165 176.977C358.165 177.907 358.475 178.669 359.095 179.25C359.715 179.831 360.425 180.115 361.239 180.115C361.523 180.115 361.846 180.051 362.194 179.909C362.556 179.767 362.827 179.573 362.995 179.315V179.999H364.777ZM361.536 178.411C361.135 178.411 360.787 178.282 360.477 178.01C360.18 177.739 360.025 177.391 360.025 176.977C360.025 176.564 360.18 176.228 360.477 175.957C360.787 175.686 361.135 175.544 361.536 175.544C362.31 175.544 362.995 176.112 362.995 176.977C362.995 177.843 362.31 178.411 361.536 178.411ZM368.784 171.657H367.002V173.969H365.904V175.389H367.002V179.999H368.784V175.389H370.049V173.969H368.784V171.657ZM375.297 178.01C375 178.385 374.561 178.579 373.98 178.579C373.269 178.579 372.585 178.23 372.495 177.571H376.911C376.924 177.365 376.937 177.184 376.937 177.016C376.937 176.074 376.64 175.312 376.046 174.731C375.465 174.137 374.729 173.84 373.851 173.84C372.96 173.84 372.211 174.124 371.604 174.705C370.997 175.286 370.7 176.035 370.7 176.965C370.7 177.894 370.997 178.656 371.604 179.25C372.211 179.831 372.96 180.128 373.851 180.128C375.129 180.128 376.046 179.715 376.601 178.901L375.297 178.01ZM372.521 176.448C372.805 175.066 374.948 175.079 375.129 176.448H372.521ZM384.795 173.969L383.452 177.391L382.122 173.969H380.211L382.535 179.379L381.089 182.956H382.987L386.706 173.969H384.795ZM390.218 178.346C389.456 178.346 388.862 177.791 388.862 176.965C388.862 176.177 389.456 175.596 390.218 175.596C390.98 175.596 391.587 176.177 391.587 176.965C391.587 177.791 390.993 178.346 390.218 178.346ZM392.439 179.237C393.046 178.656 393.356 177.894 393.356 176.965C393.356 176.035 393.046 175.286 392.439 174.705C391.832 174.124 391.096 173.84 390.218 173.84C389.34 173.84 388.604 174.124 387.997 174.705C387.39 175.286 387.093 176.035 387.093 176.965C387.093 177.894 387.39 178.656 387.997 179.237C388.604 179.818 389.34 180.102 390.218 180.102C391.096 180.102 391.832 179.818 392.439 179.237ZM398.529 177.158C398.529 177.998 398.064 178.385 397.444 178.385C396.915 178.385 396.373 178.049 396.373 177.184V173.969H394.578V177.571C394.578 179.224 395.559 180.128 396.967 180.128C397.574 180.128 398.219 179.754 398.529 179.173V179.999H400.324V173.969H398.529V177.158ZM403.776 177.894C403.776 176.293 404.28 175.492 405.274 175.492C405.636 175.492 405.946 175.557 406.191 175.673L406.514 174.059C406.217 173.917 405.881 173.84 405.481 173.84C404.796 173.84 404.073 174.382 403.776 175.428V173.969H401.981V179.999H403.776V177.894ZM416.541 179.999V173.969H414.759V174.64C414.346 174.059 413.571 173.84 413.003 173.84C412.19 173.84 411.479 174.137 410.86 174.718C410.24 175.299 409.93 176.048 409.93 176.977C409.93 177.907 410.24 178.669 410.86 179.25C411.479 179.831 412.19 180.115 413.003 180.115C413.287 180.115 413.61 180.051 413.959 179.909C414.32 179.767 414.591 179.573 414.759 179.315V179.999H416.541ZM413.3 178.411C412.9 178.411 412.551 178.282 412.241 178.01C411.944 177.739 411.789 177.391 411.789 176.977C411.789 176.564 411.944 176.228 412.241 175.957C412.551 175.686 412.9 175.544 413.3 175.544C414.075 175.544 414.759 176.112 414.759 176.977C414.759 177.843 414.075 178.411 413.3 178.411ZM421.116 173.84C420.225 173.84 419.451 174.137 418.805 174.718C418.159 175.299 417.836 176.048 417.836 176.965C417.836 177.881 418.159 178.643 418.805 179.237C419.451 179.831 420.225 180.128 421.116 180.128C422.201 180.128 423.169 179.65 423.738 178.837L422.278 177.804C422.02 178.204 421.633 178.411 421.116 178.411C420.716 178.411 420.367 178.282 420.07 178.01C419.773 177.739 419.618 177.391 419.618 176.965C419.618 176.551 419.773 176.216 420.07 175.957C420.367 175.686 420.716 175.557 421.116 175.557C421.633 175.557 422.02 175.764 422.278 176.164L423.738 175.118C423.157 174.304 422.188 173.84 421.116 173.84ZM427.825 173.84C426.934 173.84 426.159 174.137 425.514 174.718C424.868 175.299 424.545 176.048 424.545 176.965C424.545 177.881 424.868 178.643 425.514 179.237C426.159 179.831 426.934 180.128 427.825 180.128C428.91 180.128 429.878 179.65 430.446 178.837L428.987 177.804C428.729 178.204 428.341 178.411 427.825 178.411C427.425 178.411 427.076 178.282 426.779 178.01C426.482 177.739 426.327 177.391 426.327 176.965C426.327 176.551 426.482 176.216 426.779 175.957C427.076 175.686 427.425 175.557 427.825 175.557C428.341 175.557 428.729 175.764 428.987 176.164L430.446 175.118C429.865 174.304 428.897 173.84 427.825 173.84ZM434.379 178.346C433.617 178.346 433.023 177.791 433.023 176.965C433.023 176.177 433.617 175.596 434.379 175.596C435.14 175.596 435.747 176.177 435.747 176.965C435.747 177.791 435.153 178.346 434.379 178.346ZM436.6 179.237C437.206 178.656 437.516 177.894 437.516 176.965C437.516 176.035 437.206 175.286 436.6 174.705C435.993 174.124 435.257 173.84 434.379 173.84C433.5 173.84 432.764 174.124 432.158 174.705C431.551 175.286 431.254 176.035 431.254 176.965C431.254 177.894 431.551 178.656 432.158 179.237C432.764 179.818 433.5 180.102 434.379 180.102C435.257 180.102 435.993 179.818 436.6 179.237ZM442.69 177.158C442.69 177.998 442.225 178.385 441.605 178.385C441.076 178.385 440.533 178.049 440.533 177.184V173.969H438.738V177.571C438.738 179.224 439.72 180.128 441.127 180.128C441.734 180.128 442.38 179.754 442.69 179.173V179.999H444.485V173.969H442.69V177.158ZM447.937 176.81C447.937 175.996 448.311 175.583 449.047 175.583C449.68 175.583 450.093 176.009 450.093 176.784V179.999H451.888V176.396C451.888 174.705 451.075 173.84 449.68 173.84C448.97 173.84 448.26 174.24 447.937 174.847V173.969H446.142V179.999H447.937V176.81ZM455.831 171.657H454.049V173.969H452.952V175.389H454.049V179.999H455.831V175.389H457.097V173.969H455.831V171.657ZM461.098 173.969V179.999H462.88V173.969H461.098ZM461.989 170.689C461.369 170.689 460.865 171.154 460.865 171.735C460.865 172.316 461.369 172.794 461.989 172.794C462.596 172.794 463.086 172.316 463.086 171.735C463.086 171.154 462.596 170.689 461.989 170.689ZM466.323 176.81C466.323 175.996 466.697 175.583 467.433 175.583C468.066 175.583 468.479 176.009 468.479 176.784V179.999H470.274V176.396C470.274 174.705 469.46 173.84 468.066 173.84C467.356 173.84 466.645 174.24 466.323 174.847V173.969H464.528V179.999H466.323V176.81ZM474.541 183.033C476.181 183.033 476.827 182.104 476.827 180.412V173.969H475.019V180.451C475.032 181.084 474.774 181.406 474.232 181.406H473.444V183.033H474.541ZM475.123 172.484C475.575 172.897 476.285 172.897 476.711 172.484C477.137 172.071 477.137 171.399 476.711 170.999C476.285 170.586 475.575 170.586 475.123 170.999C474.696 171.399 474.696 172.071 475.123 172.484ZM482.361 177.158C482.361 177.998 481.896 178.385 481.276 178.385C480.747 178.385 480.205 178.049 480.205 177.184V173.969H478.41V177.571C478.41 179.224 479.391 180.128 480.799 180.128C481.406 180.128 482.051 179.754 482.361 179.173V179.999H484.156V173.969H482.361V177.158ZM488.164 177.726C488.59 177.843 488.758 177.985 488.758 178.243C488.758 178.54 488.435 178.734 488.022 178.746C487.544 178.746 487.144 178.411 487.131 178.049H485.452C485.465 178.682 485.71 179.198 486.214 179.573C486.717 179.947 487.311 180.128 487.97 180.128C488.667 180.128 489.274 179.96 489.791 179.637C490.32 179.315 490.578 178.85 490.578 178.243C490.578 177.881 490.527 177.546 489.997 177.042C489.739 176.797 489.39 176.603 488.938 176.487L487.918 176.216C487.583 176.125 487.402 175.983 487.389 175.764C487.376 175.492 487.621 175.312 488.022 175.312C488.474 175.312 488.693 175.492 488.706 175.841H490.398C490.385 175.157 490.139 174.653 489.662 174.33C489.184 174.007 488.603 173.84 487.918 173.84C487.286 173.84 486.743 174.02 486.278 174.369C485.814 174.718 485.581 175.105 485.568 175.557C485.555 175.931 485.581 176.138 485.775 176.551C485.981 176.952 486.537 177.3 487.376 177.52L488.164 177.726ZM494.191 171.657H492.409V173.969H491.312V175.389H492.409V179.999H494.191V175.389H495.457V173.969H494.191V171.657ZM501.963 176.332C503.228 176.293 503.138 177.287 503.112 177.455C503.06 177.92 502.518 178.398 501.898 178.359C501.653 178.346 501.408 178.269 501.162 178.101C500.917 177.933 500.736 177.739 500.646 177.546L499.057 178.333C499.522 179.315 500.581 180.038 501.756 180.102C502.595 180.167 503.344 179.96 504.003 179.495C504.662 179.018 505.023 178.424 505.088 177.701C505.126 177.236 505.01 176.784 504.739 176.332C504.468 175.88 504.093 175.57 503.641 175.402C504.3 175.04 504.726 174.421 504.726 173.749C504.739 173.142 504.507 172.6 504.029 172.135C503.551 171.657 502.944 171.412 502.221 171.373C501.098 171.309 500.103 171.812 499.587 172.626L501.046 173.517C501.24 173.207 501.537 173.052 501.937 173.052C502.505 173.052 502.789 173.517 502.789 173.865C502.789 174.472 502.518 174.782 501.963 174.782H501.072V176.332H501.963ZM512.085 177.726C512.511 177.843 512.679 177.985 512.679 178.243C512.679 178.54 512.356 178.734 511.943 178.746C511.465 178.746 511.065 178.411 511.052 178.049H509.373C509.386 178.682 509.632 179.198 510.135 179.573C510.639 179.947 511.233 180.128 511.891 180.128C512.589 180.128 513.196 179.96 513.712 179.637C514.241 179.315 514.5 178.85 514.5 178.243C514.5 177.881 514.448 177.546 513.919 177.042C513.66 176.797 513.312 176.603 512.86 176.487L511.84 176.216C511.504 176.125 511.323 175.983 511.31 175.764C511.297 175.492 511.543 175.312 511.943 175.312C512.395 175.312 512.614 175.492 512.627 175.841H514.319C514.306 175.157 514.061 174.653 513.583 174.33C513.105 174.007 512.524 173.84 511.84 173.84C511.207 173.84 510.665 174.02 510.2 174.369C509.735 174.718 509.502 175.105 509.49 175.557C509.477 175.931 509.502 176.138 509.696 176.551C509.903 176.952 510.458 177.3 511.297 177.52L512.085 177.726ZM518.113 171.657H516.331V173.969H515.233V175.389H516.331V179.999H518.113V175.389H519.378V173.969H518.113V171.657ZM524.626 178.01C524.329 178.385 523.89 178.579 523.309 178.579C522.599 178.579 521.914 178.23 521.824 177.571H526.24C526.253 177.365 526.266 177.184 526.266 177.016C526.266 176.074 525.969 175.312 525.375 174.731C524.794 174.137 524.058 173.84 523.18 173.84C522.289 173.84 521.54 174.124 520.933 174.705C520.326 175.286 520.029 176.035 520.029 176.965C520.029 177.894 520.326 178.656 520.933 179.25C521.54 179.831 522.289 180.128 523.18 180.128C524.458 180.128 525.375 179.715 525.93 178.901L524.626 178.01ZM521.85 176.448C522.134 175.066 524.277 175.079 524.458 176.448H521.85ZM529.311 177.003C529.311 176.164 529.93 175.544 530.705 175.544C531.48 175.544 532.1 176.138 532.1 177.003C532.1 177.843 531.48 178.437 530.705 178.437C529.93 178.437 529.311 177.881 529.311 177.003ZM527.49 182.956H529.272V179.263C529.569 179.792 530.266 180.128 531.041 180.128C531.842 180.128 532.526 179.831 533.094 179.25C533.675 178.669 533.959 177.907 533.959 176.965C533.959 176.048 533.675 175.299 533.094 174.718C532.526 174.137 531.842 173.84 531.041 173.84C530.266 173.84 529.569 174.162 529.272 174.718V173.969H527.49V182.956ZM537.608 177.726C538.034 177.843 538.202 177.985 538.202 178.243C538.202 178.54 537.879 178.734 537.466 178.746C536.988 178.746 536.588 178.411 536.575 178.049H534.896C534.909 178.682 535.155 179.198 535.658 179.573C536.162 179.947 536.756 180.128 537.414 180.128C538.112 180.128 538.718 179.96 539.235 179.637C539.764 179.315 540.023 178.85 540.023 178.243C540.023 177.881 539.971 177.546 539.442 177.042C539.183 176.797 538.835 176.603 538.383 176.487L537.363 176.216C537.027 176.125 536.846 175.983 536.833 175.764C536.82 175.492 537.066 175.312 537.466 175.312C537.918 175.312 538.137 175.492 538.15 175.841H539.842C539.829 175.157 539.584 174.653 539.106 174.33C538.628 174.007 538.047 173.84 537.363 173.84C536.73 173.84 536.188 174.02 535.723 174.369C535.258 174.718 535.025 175.105 535.012 175.557C535 175.931 535.025 176.138 535.219 176.551C535.426 176.952 535.981 177.3 536.82 177.52L537.608 177.726Z" fill="#333333"/>
<path d="M365.757 256.979C365.757 257.609 365.987 258.119 366.447 258.519C366.907 258.909 367.507 259.109 368.257 259.109C369.107 259.109 369.867 258.849 370.357 258.219C370.607 257.899 370.727 257.519 370.737 257.089C370.767 256.079 370.137 255.379 368.847 255.009L368.027 254.749C367.537 254.609 367.287 254.379 367.287 254.049C367.287 253.649 367.657 253.359 368.177 253.359C368.747 253.359 369.067 253.669 369.067 254.139H370.527C370.527 253.489 370.307 252.979 369.867 252.599C369.437 252.219 368.877 252.029 368.197 252.029C367.527 252.029 366.957 252.219 366.507 252.609C366.057 252.989 365.827 253.479 365.827 254.089C365.827 255.039 366.417 255.699 367.607 256.069L368.437 256.299C369.087 256.489 369.277 256.729 369.267 257.079C369.257 257.519 368.857 257.809 368.257 257.809C367.627 257.809 367.257 257.449 367.227 256.979H365.757ZM373.539 252.539H372.159V254.329H371.309V255.429H372.159V258.999H373.539V255.429H374.519V254.329H373.539V252.539ZM378.583 257.459C378.353 257.749 378.013 257.899 377.563 257.899C377.013 257.899 376.483 257.629 376.413 257.119H379.833C379.843 256.959 379.853 256.819 379.853 256.689C379.853 255.959 379.623 255.369 379.163 254.919C378.713 254.459 378.143 254.229 377.463 254.229C376.773 254.229 376.193 254.449 375.723 254.899C375.253 255.349 375.023 255.929 375.023 256.649C375.023 257.369 375.253 257.959 375.723 258.419C376.193 258.869 376.773 259.099 377.463 259.099C378.453 259.099 379.163 258.779 379.593 258.149L378.583 257.459ZM376.433 256.249C376.653 255.179 378.313 255.189 378.453 256.249H376.433ZM382.211 256.679C382.211 256.029 382.691 255.549 383.291 255.549C383.891 255.549 384.371 256.009 384.371 256.679C384.371 257.329 383.891 257.789 383.291 257.789C382.691 257.789 382.211 257.359 382.211 256.679ZM380.801 261.289H382.181V258.429C382.411 258.839 382.951 259.099 383.551 259.099C384.171 259.099 384.701 258.869 385.141 258.419C385.591 257.969 385.811 257.379 385.811 256.649C385.811 255.939 385.591 255.359 385.141 254.909C384.701 254.459 384.171 254.229 383.551 254.229C382.951 254.229 382.411 254.479 382.181 254.909V254.329H380.801V261.289ZM389.008 253.559V254.789L390.128 254.309V258.999H391.528V252.359L389.008 253.559Z" fill="#333333"/>
<path d="M459.19 193H340.202C337.999 193 336.213 194.786 336.213 196.989C336.213 199.191 337.999 200.977 340.202 200.977H459.19C461.393 200.977 463.179 199.191 463.179 196.989C463.179 194.786 461.393 193 459.19 193Z" fill="#F0F0F0"/>
<path d="M397.521 208.156H340.202C337.999 208.156 336.213 209.942 336.213 212.145C336.213 214.348 337.999 216.133 340.202 216.133H397.521C399.724 216.133 401.51 214.348 401.51 212.145C401.51 209.942 399.724 208.156 397.521 208.156Z" fill="#F0F0F0"/>
<path d="M472.776 265H368.817C366.884 265 365.317 266.567 365.317 268.5C365.317 270.433 366.884 272 368.817 272H472.776C474.709 272 476.276 270.433 476.276 268.5C476.276 266.567 474.709 265 472.776 265Z" fill="#F0F0F0"/>
<path d="M460.043 318H368.817C366.884 318 365.317 319.567 365.317 321.5C365.317 323.433 366.884 325 368.817 325H460.043C461.976 325 463.543 323.433 463.543 321.5C463.543 319.567 461.976 318 460.043 318Z" fill="#F0F0F0"/>
<path d="M460.043 372H368.817C366.884 372 365.317 373.567 365.317 375.5C365.317 377.433 366.884 379 368.817 379H460.043C461.976 379 463.543 377.433 463.543 375.5C463.543 373.567 461.976 372 460.043 372Z" fill="#F0F0F0"/>
<path d="M472.776 305H368.817C366.884 305 365.317 306.567 365.317 308.5C365.317 310.433 366.884 312 368.817 312H472.776C474.709 312 476.276 310.433 476.276 308.5C476.276 306.567 474.709 305 472.776 305Z" fill="#F0F0F0"/>
<path d="M472.776 359H368.817C366.884 359 365.317 360.567 365.317 362.5C365.317 364.433 366.884 366 368.817 366H472.776C474.709 366 476.276 364.433 476.276 362.5C476.276 360.567 474.709 359 472.776 359Z" fill="#F0F0F0"/>
<path d="M352.503 251.85H339.785C337.777 251.85 336.149 253.478 336.149 255.486V268.202C336.149 270.21 337.777 271.838 339.785 271.838H352.503C354.511 271.838 356.139 270.21 356.139 268.202V255.486C356.139 253.478 354.511 251.85 352.503 251.85Z" fill="#121212"/>
<mask id="mask0_335_55" style="mask-type:luminance" maskUnits="userSpaceOnUse" x="340" y="256" width="13" height="12">
<path d="M352.121 256.092H340.303V267.91H352.121V256.092Z" fill="white"/>
</mask>
<g mask="url(#mask0_335_55)">
<path d="M350.645 258.062H341.781C341.509 258.062 341.289 258.283 341.289 258.555V265.448C341.289 265.72 341.509 265.94 341.781 265.94H350.645C350.917 265.94 351.137 265.72 351.137 265.448V258.555C351.137 258.283 350.917 258.062 350.645 258.062Z" stroke="white" stroke-width="0.984848" stroke-linejoin="round"/>
<path d="M344.489 262.248C345.033 262.248 345.474 261.807 345.474 261.263C345.474 260.72 345.033 260.279 344.489 260.279C343.945 260.279 343.504 260.72 343.504 261.263C343.504 261.807 343.945 262.248 344.489 262.248Z" stroke="white" stroke-width="0.984848" stroke-linejoin="round"/>
<path d="M345.965 263.725C345.965 262.909 345.304 262.248 344.488 262.248C343.672 262.248 343.011 262.909 343.011 263.725" stroke="white" stroke-width="0.984848" stroke-linecap="round" stroke-linejoin="round"/>
<path d="M347.198 261.016H349.167" stroke="white" stroke-width="0.984848" stroke-linecap="round" stroke-linejoin="round"/>
<path d="M347.689 262.986H349.167" stroke="white" stroke-width="0.984848" stroke-linecap="round" stroke-linejoin="round"/>
</g>
<path d="M352.463 305H339.963C337.892 305 336.213 306.679 336.213 308.75V321.25C336.213 323.321 337.892 325 339.963 325H352.463C354.534 325 356.213 323.321 356.213 321.25V308.75C356.213 306.679 354.534 305 352.463 305Z" fill="#E0E0E0"/>
<path d="M352.463 359H339.963C337.892 359 336.213 360.679 336.213 362.75V375.25C336.213 377.321 337.892 379 339.963 379H352.463C354.534 379 356.213 377.321 356.213 375.25V362.75C356.213 360.679 354.534 359 352.463 359Z" fill="#E0E0E0"/>
<defs>
<filter id="filter0_d_335_55" x="11.5902" y="46.1621" width="354.443" height="323.442" filterUnits="userSpaceOnUse" color-interpolation-filters="sRGB">
<feFlood flood-opacity="0" result="BackgroundImageFix"/>
<feColorMatrix in="SourceAlpha" type="matrix" values="0 0 0 0 0 0 0 0 0 0 0 0 0 0 0 0 0 0 127 0" result="hardAlpha"/>
<feOffset dx="-2.68832" dy="26.8832"/>
<feGaussianBlur stdDeviation="13.4416"/>
<feComposite in2="hardAlpha" operator="out"/>
<feColorMatrix type="matrix" values="0 0 0 0 0 0 0 0 0 0 0 0 0 0 0 0 0 0 0.05 0"/>
<feBlend mode="normal" in2="BackgroundImageFix" result="effect1_dropShadow_335_55"/>
<feBlend mode="normal" in="SourceGraphic" in2="effect1_dropShadow_335_55" result="shape"/>
</filter>
<linearGradient id="paint0_linear_335_55" x1="468.545" y1="122.999" x2="468.545" y2="457.999" gradientUnits="userSpaceOnUse">
<stop stop-color="#E8E8E8"/>
<stop offset="1" stop-color="#F5F5F5" stop-opacity="0.72"/>
</linearGradient>
</defs>
</svg>
