<svg width="713" height="529" viewBox="0 0 713 529" fill="none" xmlns="http://www.w3.org/2000/svg">
<path d="M60 88.7937C60 82.8325 64.8325 78 70.7937 78H573.206C579.167 78 584 82.8325 584 88.7937V387.206C584 393.167 579.167 398 573.206 398H70.7938C64.8325 398 60 393.167 60 387.206V88.7937Z" fill="white"/>
<path d="M61.625 88C61.625 82.8223 65.8223 78.625 71 78.625H574C579.178 78.625 583.375 82.8223 583.375 88V387.464C583.375 392.385 579.385 396.375 574.464 396.375H71C65.8223 396.375 61.625 392.178 61.625 387V88Z" fill="url(#paint0_linear_1331_2467)" stroke="white" stroke-width="1.25"/>
<path d="M107.527 151.108C108.059 150.553 108.705 150.281 109.476 150.281C110.246 150.281 110.892 150.553 111.425 151.108C111.957 151.663 112.229 152.332 112.229 153.113C112.229 153.895 111.957 154.564 111.425 155.119C110.892 155.663 110.246 155.935 109.476 155.935C108.705 155.935 108.059 155.663 107.527 155.119C106.994 154.564 106.734 153.895 106.734 153.113C106.734 152.332 106.994 151.663 107.527 151.108ZM105.533 153.113C105.533 154.224 105.918 155.164 106.677 155.946C107.436 156.728 108.377 157.113 109.476 157.113C110.586 157.113 111.527 156.728 112.286 155.946C113.056 155.164 113.442 154.224 113.442 153.113C113.442 151.992 113.056 151.051 112.286 150.269C111.527 149.487 110.586 149.102 109.476 149.102C108.377 149.102 107.436 149.487 106.677 150.269C105.918 151.051 105.533 151.992 105.533 153.113ZM117.407 157L119.617 151.708H118.371L116.875 155.516L115.357 151.708H114.121L116.331 157H117.407ZM125.498 154.337C125.498 153.51 125.248 152.853 124.75 152.354C124.251 151.844 123.617 151.595 122.846 151.595C122.076 151.595 121.43 151.844 120.909 152.354C120.387 152.853 120.127 153.51 120.127 154.337C120.127 155.164 120.387 155.833 120.909 156.343C121.43 156.853 122.076 157.113 122.846 157.113C123.9 157.113 124.84 156.649 125.294 155.754L124.342 155.334C124.07 155.822 123.503 156.094 122.903 156.094C122.042 156.094 121.384 155.584 121.282 154.768H125.486C125.498 154.688 125.498 154.552 125.498 154.337ZM121.282 153.918C121.384 153.113 122.019 152.615 122.846 152.615C123.651 152.615 124.251 153.102 124.353 153.918H121.282ZM127.897 155.096C127.897 153.612 128.361 152.694 129.313 152.694C129.596 152.694 129.857 152.751 130.095 152.875L130.288 151.799C130.084 151.663 129.766 151.595 129.347 151.595C128.633 151.595 128.157 152.037 127.897 152.921V151.708H126.73V157H127.897V155.096ZM133.873 157L136.083 151.708H134.836L133.34 155.516L131.822 151.708H130.587L132.797 157H133.873ZM138.199 157V151.708H137.043V157H138.199ZM137.621 148.83C137.201 148.83 136.839 149.159 136.839 149.567C136.839 149.975 137.201 150.303 137.621 150.303C138.063 150.303 138.391 149.986 138.391 149.567C138.391 149.148 138.063 148.83 137.621 148.83ZM144.862 154.337C144.862 153.51 144.613 152.853 144.114 152.354C143.616 151.844 142.981 151.595 142.211 151.595C141.44 151.595 140.794 151.844 140.273 152.354C139.752 152.853 139.491 153.51 139.491 154.337C139.491 155.164 139.752 155.833 140.273 156.343C140.794 156.853 141.44 157.113 142.211 157.113C143.265 157.113 144.205 156.649 144.658 155.754L143.707 155.334C143.435 155.822 142.868 156.094 142.267 156.094C141.406 156.094 140.749 155.584 140.647 154.768H144.851C144.862 154.688 144.862 154.552 144.862 154.337ZM140.647 153.918C140.749 153.113 141.384 152.615 142.211 152.615C143.015 152.615 143.616 153.102 143.718 153.918H140.647ZM152.612 151.708L151.377 155.278L150.153 151.708H149.065L147.841 155.278L146.617 151.708H145.371L147.365 157H148.317L149.609 153.249L150.957 157H151.92L153.858 151.708H152.612Z" fill="#89b93f"/>
<path d="M60 88C60 82.4772 64.4772 78 70 78H574C579.523 78 584 82.4772 584 88V118H60V88Z" fill="black"/>
<rect x="105" y="193" width="47" height="8" rx="4" fill="#E0E0E0"/>
<rect x="105" y="275" width="47" height="8" rx="4" fill="#E0E0E0"/>
<rect x="105" y="216" width="61" height="8" rx="4" fill="#E0E0E0"/>
<rect x="105" y="239" width="47" height="8" rx="4" fill="#E0E0E0"/>
<circle cx="554.714" cy="97.7144" r="9.71436" fill="#64666B"/>
<path d="M85.4481 277.442V280.329" stroke="#89b93f" stroke-linecap="round" stroke-linejoin="round"/>
<path d="M81.4774 283.131V280.33H89.4181V283.578" stroke="#89b93f" stroke-linecap="round" stroke-linejoin="round"/>
<path d="M87.975 273.833H82.9219V277.081H87.975V273.833Z" stroke="#333333" stroke-linejoin="round"/>
<path d="M84.0043 283.578H78.9512V286.826H84.0043V283.578Z" stroke="#333333" stroke-linejoin="round"/>
<path d="M91.9446 283.578H86.8915V286.826H91.9446V283.578Z" stroke="#333333" stroke-linejoin="round"/>
<path d="M83.8864 196.127C85.0939 196.127 86.0728 195.148 86.0728 193.941C86.0728 192.733 85.0939 191.754 83.8864 191.754C82.6788 191.754 81.7 192.733 81.7 193.941C81.7 195.148 82.6788 196.127 83.8864 196.127Z" stroke="#333333" stroke-linecap="round" stroke-linejoin="round"/>
<path d="M88.1365 192.066C88.7714 192.449 89.1961 193.145 89.1961 193.94C89.1961 194.736 88.7714 195.432 88.1365 195.815" stroke="#89b93f" stroke-linecap="round" stroke-linejoin="round"/>
<path d="M79.2012 202.623V202.998H88.5715V202.623C88.5715 201.224 88.5715 200.524 88.2992 199.99C88.0596 199.519 87.6773 199.137 87.2071 198.898C86.6726 198.625 85.9729 198.625 84.5735 198.625H83.1992C81.7997 198.625 81.1 198.625 80.5655 198.898C80.0953 199.137 79.7131 199.519 79.4735 199.99C79.2012 200.524 79.2012 201.224 79.2012 202.623Z" stroke="#333333" stroke-linecap="round" stroke-linejoin="round"/>
<path d="M91.6952 202.998V202.624C91.6952 201.224 91.6952 200.524 91.4228 199.99C91.1833 199.52 90.801 199.138 90.3308 198.898" stroke="#89b93f" stroke-linecap="round" stroke-linejoin="round"/>
<g clip-path="url(#clip0_1331_2467)">
<rect x="177" y="160" width="394" height="227" rx="5" fill="white"/>
<path d="M221 308H528" stroke="#EDF1F5"/>
<path d="M221 277H528" stroke="#EDF1F5"/>
<path d="M221 339H528" stroke="#EDF1F5"/>
<path d="M221 370H528" stroke="#EDF1F5"/>
<rect x="197" y="275" width="13" height="5" rx="2.5" fill="#EDF1F5"/>
<rect x="197" y="305" width="13" height="5" rx="2.5" fill="#EDF1F5"/>
<g clip-path="url(#clip1_1331_2467)">
<path opacity="0.5" d="M137.919 342.575C158.19 327.608 189.569 243.302 251.494 296.295C286.557 324.768 314.002 291.666 350.907 289.871C387.813 288.077 419.497 350.893 451.709 350.893C480.034 350.893 487.222 327.153 509.191 313.691C545.054 290.228 566.462 317.66 593.331 344.224C624.988 373.091 656.645 369.895 656.645 369.895" stroke="#3451F7" stroke-linecap="round" stroke-linejoin="round"/>
<path opacity="0.5" d="M137.538 343.257C137.359 343.468 137.384 343.783 137.595 343.962C137.805 344.141 138.121 344.115 138.3 343.905L137.538 343.257ZM165.465 326.039L165.568 325.55L165.465 326.039ZM656.65 302.587C656.926 302.584 657.148 302.358 657.145 302.082C657.142 301.806 656.916 301.585 656.64 301.587L656.65 302.587ZM138.3 343.905C139.808 342.13 141.433 339.929 143.183 337.747C144.948 335.546 146.869 333.322 149.029 331.415C153.338 327.609 158.564 325.087 165.361 326.528L165.568 325.55C158.362 324.022 152.825 326.729 148.367 330.665C146.143 332.629 144.18 334.905 142.403 337.121C140.612 339.356 139.039 341.49 137.538 343.257L138.3 343.905ZM165.361 326.528C169.607 327.428 174.138 330.441 179.046 334.544C183.954 338.647 189.134 343.745 194.74 348.783C205.893 358.804 218.639 368.5 233.436 368.5V367.5C219.06 367.5 206.572 358.071 195.408 348.039C189.856 343.05 184.607 337.89 179.688 333.777C174.769 329.665 170.074 326.505 165.568 325.55L165.361 326.528ZM233.436 368.5C240.877 368.5 248.257 365.132 255.829 360.162C263.4 355.192 271.244 348.562 279.584 341.973C296.306 328.761 315.092 315.661 338.241 315.661V314.661C314.713 314.661 295.683 327.98 278.964 341.188C270.584 347.809 262.803 354.388 255.281 359.326C247.76 364.263 240.581 367.5 233.436 367.5V368.5ZM338.241 315.661C361.452 315.661 373.519 322.435 383.757 328.932C394.026 335.449 402.569 341.781 418.594 340.587L418.519 339.589C402.87 340.756 394.594 334.625 384.293 328.088C373.961 321.531 361.707 314.661 338.241 314.661V315.661ZM418.594 340.587C434.686 339.387 444.009 327.238 453.133 315.72C462.317 304.126 471.292 293.176 486.707 293.507L486.728 292.508C470.746 292.164 461.478 303.574 452.349 315.099C443.16 326.699 434.101 338.428 418.519 339.589L418.594 340.587ZM486.707 293.507C494.379 293.672 501.414 297.752 508.197 303.884C514.979 310.016 521.442 318.137 527.983 326.282C534.51 334.41 541.114 342.56 548.146 348.675C555.179 354.791 562.701 358.924 571.07 358.924V357.924C563.047 357.924 555.753 353.965 548.802 347.921C541.85 341.875 535.301 333.798 528.763 325.656C522.238 317.531 515.722 309.339 508.868 303.143C502.014 296.946 494.754 292.68 486.728 292.508L486.707 293.507ZM571.07 358.924C579.418 358.924 586.834 355.358 593.77 350.067C600.701 344.78 607.199 337.735 613.703 330.722C620.221 323.695 626.746 316.698 633.767 311.432C640.782 306.171 648.251 302.67 656.65 302.587L656.64 301.587C647.952 301.673 640.279 305.298 633.167 310.632C626.061 315.961 619.476 323.028 612.97 330.042C606.45 337.072 600.012 344.048 593.164 349.272C586.321 354.491 579.116 357.924 571.07 357.924V358.924Z" fill="#89b93f"/>
</g>
</g>
<g filter="url(#filter0_d_1331_2467)">
<rect x="498" y="300.112" width="157" height="166.781" rx="7.65854" fill="white"/>
<rect x="498.625" y="300.737" width="155.75" height="165.531" rx="7.03354" stroke="#E0E0E0" stroke-width="1.25"/>
</g>
<mask id="mask0_1331_2467" style="mask-type:alpha" maskUnits="userSpaceOnUse" x="498" y="299" width="157" height="168">
<rect x="498" y="299" width="156.774" height="167.893" rx="8.5995" fill="white"/>
</mask>
<g mask="url(#mask0_1331_2467)">
<path d="M493.128 384.413H658.001" stroke="#F0F0F0" stroke-width="0.696013" stroke-linecap="square" stroke-dasharray="2.62 5.24"/>
<path d="M493.128 355.197H658.001" stroke="#F0F0F0" stroke-width="0.696013" stroke-linecap="square" stroke-dasharray="2.62 5.24"/>
<path d="M493.128 325.982H658.001" stroke="#F0F0F0" stroke-width="0.696013" stroke-linecap="square" stroke-dasharray="2.62 5.24"/>
<path d="M493.128 414.324H658.001" stroke="#F0F0F0" stroke-width="0.696013" stroke-linecap="square" stroke-dasharray="2.62 5.24"/>
<path d="M493.128 443.542H658.001" stroke="#F0F0F0" stroke-width="0.696013" stroke-linecap="square" stroke-dasharray="2.62 5.24"/>
<path d="M456.061 401.655C482.385 386.576 523.134 301.637 603.55 355.027C649.082 383.714 684.723 350.363 732.648 348.555C780.573 346.748 821.718 410.035 863.549 410.035C900.331 410.035 909.665 386.117 938.195 372.554C984.766 348.914 1012.57 376.553 1047.46 403.317C1088.57 432.4 1129.68 429.18 1129.68 429.18" stroke="#3451F7" stroke-width="2.62102" stroke-linecap="round" stroke-linejoin="round"/>
<path d="M455.192 402.459C454.65 402.939 454.6 403.768 455.08 404.309C455.56 404.851 456.388 404.901 456.93 404.421L455.192 402.459ZM491.832 386.285L492.039 384.991L491.832 386.285ZM1129.69 364.172C1130.41 364.166 1130.99 363.575 1130.99 362.851C1130.98 362.128 1130.39 361.545 1129.67 361.551L1129.69 364.172ZM456.93 404.421C465.026 397.246 474.215 384.799 491.626 387.579L492.039 384.991C473.081 381.964 462.731 395.778 455.192 402.459L456.93 404.421ZM491.626 387.579C497.034 388.442 502.838 391.339 509.188 395.337C515.553 399.344 522.23 404.296 529.549 409.249C544.061 419.07 560.732 428.631 580.099 428.631V426.01C561.583 426.01 545.485 416.869 531.018 407.078C523.846 402.226 516.98 397.146 510.584 393.119C504.173 389.082 497.996 385.942 492.039 384.991L491.626 387.579ZM580.099 428.631C589.863 428.631 599.529 425.303 609.404 420.422C619.264 415.547 629.49 409.039 640.295 402.61C661.984 389.706 686.273 376.957 716.199 376.957V374.336C685.511 374.336 660.692 387.425 638.955 400.357C628.048 406.847 617.982 413.257 608.243 418.072C598.518 422.879 589.277 426.01 580.099 426.01V428.631ZM716.199 376.957C746.255 376.957 761.851 383.557 775.089 389.884C788.432 396.26 799.631 402.508 820.57 401.333L820.423 398.716C800.231 399.849 789.589 393.908 776.219 387.519C762.745 381.079 746.758 374.336 716.199 374.336V376.957ZM820.57 401.333C841.676 400.148 853.934 388.112 865.792 376.839C877.692 365.526 889.188 354.971 908.989 355.292L909.032 352.671C888.063 352.332 875.867 363.644 863.986 374.94C852.062 386.275 840.449 397.591 820.423 398.716L820.57 401.333ZM908.989 355.292C918.831 355.451 927.863 359.39 936.602 365.339C945.354 371.298 953.702 379.196 962.208 387.172C970.677 395.115 979.298 403.13 988.49 409.149C997.697 415.179 1007.57 419.267 1018.55 419.267V416.646C1008.25 416.646 998.878 412.819 989.925 406.957C980.957 401.083 972.498 393.229 964.001 385.26C955.539 377.325 947.033 369.27 938.077 363.173C929.106 357.065 919.575 352.842 909.032 352.671L908.989 355.292ZM1018.55 419.267C1040.39 419.267 1057.44 405.209 1074.26 391.55C1091.25 377.76 1108.03 364.332 1129.69 364.172L1129.67 361.551C1106.94 361.719 1089.45 375.839 1072.61 389.515C1055.61 403.321 1039.29 416.646 1018.55 416.646V419.267Z" fill="#89b93f"/>
<path d="M579.04 342.841L579.04 443.693" stroke="#D9D9D9" stroke-width="1.39203"/>
<path d="M576.71 427.577C576.71 426.129 577.884 424.956 579.331 424.956C580.779 424.956 581.952 426.129 581.952 427.577C581.952 429.024 580.779 430.198 579.331 430.198C577.884 430.198 576.71 429.024 576.71 427.577Z" fill="white" stroke="#89b93f" stroke-width="1.31051"/>
<path d="M576.71 342.392C576.71 340.944 577.884 339.771 579.331 339.771C580.779 339.771 581.952 340.944 581.952 342.392C581.952 343.84 580.779 345.013 579.331 345.013C577.884 345.013 576.71 343.84 576.71 342.392Z" fill="white" stroke="#3955F6" stroke-width="1.31051"/>
<g filter="url(#filter1_d_1331_2467)">
<path fill-rule="evenodd" clip-rule="evenodd" d="M579.039 348.737C582.656 348.737 585.588 345.805 585.588 342.188C585.588 338.571 582.656 335.639 579.039 335.639C575.422 335.639 572.49 338.571 572.49 342.188C572.49 345.805 575.422 348.737 579.039 348.737Z" fill="#3451F7"/>
<path d="M584.196 342.188C584.196 345.036 581.887 347.345 579.039 347.345C576.191 347.345 573.882 345.036 573.882 342.188C573.882 339.34 576.191 337.031 579.039 337.031C581.887 337.031 584.196 339.34 584.196 342.188Z" stroke="white" stroke-width="2.78405"/>
</g>
<g filter="url(#filter2_d_1331_2467)">
<path fill-rule="evenodd" clip-rule="evenodd" d="M579.039 433.872C582.656 433.872 585.588 430.94 585.588 427.322C585.588 423.705 582.656 420.773 579.039 420.773C575.422 420.773 572.49 423.705 572.49 427.322C572.49 430.94 575.422 433.872 579.039 433.872Z" fill="#89b93f"/>
<path d="M584.196 427.322C584.196 430.171 581.887 432.48 579.039 432.48C576.191 432.48 573.882 430.171 573.882 427.322C573.882 424.474 576.191 422.165 579.039 422.165C581.887 422.165 584.196 424.474 584.196 427.322Z" stroke="white" stroke-width="2.78405"/>
</g>
</g>
<rect x="105" y="298" width="58" height="8" rx="4" fill="#E0E0E0"/>
<rect x="105" y="321" width="52" height="8" rx="4" fill="#E0E0E0"/>
<path d="M183.731 140.113C183.731 140.759 183.504 141.315 183.051 141.779C182.609 142.244 182.065 142.47 181.419 142.47C180.773 142.47 180.229 142.244 179.787 141.79C179.346 141.326 179.119 140.771 179.119 140.113C179.119 139.456 179.346 138.901 179.787 138.436C180.229 137.972 180.773 137.745 181.419 137.745C182.065 137.745 182.609 137.972 183.051 138.436C183.504 138.901 183.731 139.456 183.731 140.113ZM177.465 140.113C177.465 141.213 177.85 142.164 178.609 142.946C179.38 143.728 180.32 144.113 181.419 144.113C182.518 144.113 183.459 143.728 184.229 142.946C185 142.164 185.385 141.213 185.385 140.113C185.385 139.003 185 138.062 184.229 137.281C183.47 136.499 182.53 136.102 181.419 136.102C180.32 136.102 179.38 136.499 178.609 137.281C177.85 138.062 177.465 139.003 177.465 140.113ZM189.467 144L191.711 138.708H190.022L188.799 141.994L187.563 138.708H185.886L188.119 144H189.467ZM196.07 142.255C195.81 142.584 195.425 142.754 194.915 142.754C194.291 142.754 193.691 142.448 193.612 141.87H197.487C197.498 141.688 197.509 141.53 197.509 141.383C197.509 140.555 197.249 139.887 196.728 139.377C196.218 138.856 195.572 138.595 194.801 138.595C194.019 138.595 193.362 138.844 192.83 139.354C192.297 139.864 192.037 140.521 192.037 141.337C192.037 142.153 192.297 142.822 192.83 143.343C193.362 143.853 194.019 144.113 194.801 144.113C195.923 144.113 196.728 143.751 197.215 143.037L196.07 142.255ZM193.634 140.884C193.884 139.672 195.764 139.683 195.923 140.884H193.634ZM200.159 142.153C200.159 140.748 200.601 140.045 201.473 140.045C201.79 140.045 202.062 140.102 202.278 140.204L202.561 138.788C202.3 138.663 202.006 138.595 201.654 138.595C201.054 138.595 200.419 139.071 200.159 139.989V138.708H198.584V144H200.159V142.153ZM206.265 144L208.508 138.708H206.82L205.596 141.994L204.361 138.708H202.684L204.916 144H206.265ZM209.262 138.708V144H210.826V138.708H209.262ZM210.044 135.83C209.5 135.83 209.058 136.238 209.058 136.748C209.058 137.258 209.5 137.677 210.044 137.677C210.576 137.677 211.007 137.258 211.007 136.748C211.007 136.238 210.576 135.83 210.044 135.83ZM215.988 142.255C215.728 142.584 215.343 142.754 214.833 142.754C214.209 142.754 213.609 142.448 213.53 141.87H217.405C217.416 141.688 217.427 141.53 217.427 141.383C217.427 140.555 217.167 139.887 216.646 139.377C216.136 138.856 215.49 138.595 214.719 138.595C213.937 138.595 213.28 138.844 212.748 139.354C212.215 139.864 211.955 140.521 211.955 141.337C211.955 142.153 212.215 142.822 212.748 143.343C213.28 143.853 213.937 144.113 214.719 144.113C215.841 144.113 216.646 143.751 217.133 143.037L215.988 142.255ZM213.552 140.884C213.801 139.672 215.682 139.683 215.841 140.884H213.552ZM224.565 138.708L223.625 141.858L222.696 138.708H221.347L220.418 141.858L219.478 138.708H217.801L219.716 144H221.03L222.027 140.635L223.07 144H224.384L226.242 138.708H224.565Z" fill="#666666"/>
<rect x="74" y="141" width="22" height="22" rx="4" fill="#F60759"/>
<path d="M76.9515 143.907H92.9435V159.898H76.9515V143.907Z" fill="white" fill-opacity="0.01"/>
<path d="M83.2814 157.9H86.6131M83.2814 157.9H79.9498V149.904L78.2839 151.236L84.9473 145.906L91.6106 151.236L89.9448 149.904V157.9H86.6131H83.2814ZM83.2814 157.9V153.569H86.6131V157.9H83.2814Z" stroke="white" stroke-width="1.33333" stroke-linejoin="round"/>
<path d="M83.3665 154.334H86.6331V153H83.3665V154.334ZM85.9998 153.7V157.334H87.3331V153.7H85.9998ZM83.9998 157.334V153.7H82.6665V157.334H83.9998ZM86.6331 154.334C86.2833 154.334 85.9998 154.05 85.9998 153.7H87.3331C87.3331 153.314 87.0197 153 86.6331 153V154.334ZM83.3665 153C82.9799 153 82.6665 153.314 82.6665 153.7H83.9998C83.9998 154.05 83.7162 154.334 83.3665 154.334V153Z" fill="white"/>
<g clip-path="url(#clip2_1331_2467)">
<rect x="268" y="190" width="104" height="71" rx="5" fill="white"/>
<rect x="266" y="190" width="7" height="80" fill="#3451F7"/>
<path d="M288.221 214V206.193H287.02V214H288.221ZM296.086 209.74C296.766 209.74 297.208 210.238 297.208 211.054V214H298.375V210.952C298.375 209.445 297.639 208.595 296.335 208.595C295.531 208.595 294.942 208.946 294.556 209.649C294.251 208.946 293.695 208.595 292.891 208.595C292.596 208.595 292.279 208.663 291.95 208.81C291.622 208.946 291.384 209.173 291.225 209.502V208.708H290.058V214H291.225V211.156C291.225 210.193 291.803 209.74 292.562 209.74C293.197 209.74 293.627 210.227 293.639 211.031V214H294.806V211.156C294.806 210.306 295.316 209.74 296.086 209.74ZM299.951 208.708V216.572H301.118V213.241C301.435 213.796 302.126 214.113 302.885 214.113C303.622 214.113 304.234 213.864 304.744 213.354C305.254 212.844 305.514 212.187 305.514 211.36C305.514 210.544 305.254 209.875 304.744 209.366C304.234 208.856 303.622 208.595 302.885 208.595C302.16 208.595 301.435 208.935 301.118 209.49V208.708H299.951ZM301.129 211.383C301.129 210.884 301.288 210.487 301.594 210.181C301.911 209.875 302.296 209.728 302.738 209.728C303.18 209.728 303.554 209.887 303.86 210.193C304.166 210.499 304.324 210.895 304.324 211.383C304.324 212.334 303.645 212.992 302.738 212.992C302.307 212.992 301.934 212.844 301.605 212.561C301.288 212.266 301.129 211.87 301.129 211.383ZM307.989 212.096C307.989 210.612 308.454 209.694 309.406 209.694C309.689 209.694 309.95 209.751 310.188 209.875L310.38 208.799C310.176 208.663 309.859 208.595 309.44 208.595C308.726 208.595 308.25 209.037 307.989 209.921V208.708H306.822V214H307.989V212.096ZM316.268 211.337C316.268 210.51 316.019 209.853 315.521 209.354C315.022 208.844 314.388 208.595 313.617 208.595C312.846 208.595 312.201 208.844 311.679 209.354C311.158 209.853 310.898 210.51 310.898 211.337C310.898 212.164 311.158 212.833 311.679 213.343C312.201 213.853 312.846 214.113 313.617 214.113C314.671 214.113 315.611 213.649 316.065 212.754L315.113 212.334C314.841 212.822 314.274 213.094 313.674 213.094C312.812 213.094 312.155 212.584 312.053 211.768H316.257C316.268 211.688 316.268 211.552 316.268 211.337ZM312.053 210.918C312.155 210.113 312.79 209.615 313.617 209.615C314.422 209.615 315.022 210.102 315.124 210.918H312.053ZM319.45 211.881C319.937 211.994 320.186 212.198 320.186 212.504C320.186 212.901 319.789 213.139 319.246 213.139C318.645 213.139 318.26 212.844 318.203 212.38H317.127C317.138 212.912 317.342 213.331 317.75 213.649C318.158 213.955 318.622 214.113 319.155 214.113C320.39 214.113 321.262 213.513 321.262 212.516C321.262 211.711 320.798 211.201 319.88 210.975L319.064 210.771C318.69 210.669 318.475 210.533 318.418 210.363C318.362 210.193 318.373 210.034 318.464 209.887C318.566 209.706 318.906 209.592 319.212 209.592C319.608 209.592 319.937 209.785 319.982 210.159H321.093C321.036 209.105 320.209 208.595 319.166 208.595C318.679 208.595 318.248 208.731 317.874 209.003C317.501 209.264 317.308 209.592 317.274 209.989C317.195 210.861 317.637 211.405 318.736 211.711L319.45 211.881ZM324.484 211.881C324.972 211.994 325.221 212.198 325.221 212.504C325.221 212.901 324.824 213.139 324.28 213.139C323.68 213.139 323.295 212.844 323.238 212.38H322.161C322.173 212.912 322.377 213.331 322.785 213.649C323.193 213.955 323.657 214.113 324.19 214.113C325.425 214.113 326.297 213.513 326.297 212.516C326.297 211.711 325.833 211.201 324.915 210.975L324.099 210.771C323.725 210.669 323.51 210.533 323.453 210.363C323.397 210.193 323.408 210.034 323.499 209.887C323.601 209.706 323.94 209.592 324.246 209.592C324.643 209.592 324.972 209.785 325.017 210.159H326.127C326.071 209.105 325.244 208.595 324.201 208.595C323.714 208.595 323.283 208.731 322.909 209.003C322.535 209.264 322.343 209.592 322.309 209.989C322.229 210.861 322.671 211.405 323.77 211.711L324.484 211.881ZM328.726 214V208.708H327.57V214H328.726ZM328.148 205.83C327.729 205.83 327.366 206.159 327.366 206.567C327.366 206.975 327.729 207.303 328.148 207.303C328.59 207.303 328.919 206.986 328.919 206.567C328.919 206.148 328.59 205.83 328.148 205.83ZM332.772 212.98C332.33 212.98 331.945 212.833 331.639 212.527C331.333 212.221 331.175 211.824 331.175 211.337C331.175 210.861 331.333 210.476 331.639 210.181C331.945 209.887 332.33 209.74 332.772 209.74C333.679 209.74 334.381 210.385 334.381 211.337C334.381 211.824 334.223 212.221 333.917 212.527C333.611 212.833 333.225 212.98 332.772 212.98ZM332.772 208.595C332.002 208.595 331.345 208.844 330.812 209.354C330.279 209.864 330.019 210.521 330.019 211.337C330.019 212.153 330.279 212.822 330.812 213.343C331.345 213.853 332.002 214.113 332.772 214.113C333.543 214.113 334.2 213.853 334.733 213.343C335.276 212.822 335.548 212.153 335.548 211.337C335.548 210.521 335.276 209.864 334.744 209.354C334.211 208.844 333.554 208.595 332.772 208.595ZM338.01 211.156C338.01 210.193 338.599 209.74 339.37 209.74C340.05 209.74 340.48 210.227 340.48 211.054V214H341.648V210.918C341.648 209.422 340.911 208.595 339.631 208.595C338.996 208.595 338.293 208.924 338.01 209.502V208.708H336.843V214H338.01V211.156ZM345.177 211.881C345.664 211.994 345.913 212.198 345.913 212.504C345.913 212.901 345.517 213.139 344.973 213.139C344.372 213.139 343.987 212.844 343.93 212.38H342.854C342.865 212.912 343.069 213.331 343.477 213.649C343.885 213.955 344.35 214.113 344.882 214.113C346.117 214.113 346.99 213.513 346.99 212.516C346.99 211.711 346.525 211.201 345.607 210.975L344.792 210.771C344.418 210.669 344.202 210.533 344.146 210.363C344.089 210.193 344.1 210.034 344.191 209.887C344.293 209.706 344.633 209.592 344.939 209.592C345.336 209.592 345.664 209.785 345.709 210.159H346.82C346.763 209.105 345.936 208.595 344.894 208.595C344.406 208.595 343.976 208.731 343.602 209.003C343.228 209.264 343.035 209.592 343.001 209.989C342.922 210.861 343.364 211.405 344.463 211.711L345.177 211.881Z" fill="#333333"/>
<rect x="286" y="233" width="47" height="8" rx="4" fill="#C1C1C1"/>
</g>
<rect x="268.625" y="190.625" width="102.75" height="69.75" rx="4.375" stroke="#E0E0E0" stroke-width="1.25"/>
<path d="M199.617 179.315V186H200.841V179.315H203.141V178.193H197.317V179.315H199.617ZM204.46 184.096C204.46 182.612 204.925 181.694 205.877 181.694C206.16 181.694 206.421 181.751 206.659 181.875L206.851 180.799C206.647 180.663 206.33 180.595 205.911 180.595C205.197 180.595 204.721 181.037 204.46 181.921V180.708H203.293V186H204.46V184.096ZM212.739 183.337C212.739 182.51 212.49 181.853 211.992 181.354C211.493 180.844 210.858 180.595 210.088 180.595C209.317 180.595 208.672 180.844 208.15 181.354C207.629 181.853 207.368 182.51 207.368 183.337C207.368 184.164 207.629 184.833 208.15 185.343C208.672 185.853 209.317 186.113 210.088 186.113C211.142 186.113 212.082 185.649 212.535 184.754L211.584 184.334C211.312 184.822 210.745 185.094 210.145 185.094C209.283 185.094 208.626 184.584 208.524 183.768H212.728C212.739 183.688 212.739 183.552 212.739 183.337ZM208.524 182.918C208.626 182.113 209.261 181.615 210.088 181.615C210.892 181.615 211.493 182.102 211.595 182.918H208.524ZM215.139 183.156C215.139 182.193 215.728 181.74 216.498 181.74C217.178 181.74 217.609 182.227 217.609 183.054V186H218.776V182.918C218.776 181.422 218.039 180.595 216.759 180.595C216.124 180.595 215.422 180.924 215.139 181.502V180.708H213.972V186H215.139V183.156ZM225.614 186V177.83H224.458V181.468C224.141 180.912 223.438 180.595 222.668 180.595C221.931 180.595 221.297 180.856 220.787 181.366C220.277 181.875 220.028 182.533 220.028 183.36C220.028 184.176 220.288 184.844 220.798 185.354C221.308 185.864 221.931 186.113 222.668 186.113C223.427 186.113 224.141 185.785 224.458 185.229V186H225.614ZM224.436 183.337C224.436 184.334 223.722 184.98 222.815 184.98C222.373 184.98 221.988 184.833 221.682 184.527C221.376 184.221 221.229 183.824 221.229 183.337C221.229 182.385 221.909 181.728 222.815 181.728C223.246 181.728 223.62 181.875 223.948 182.17C224.277 182.453 224.436 182.85 224.436 183.337Z" fill="#333333"/>
<g clip-path="url(#clip3_1331_2467)">
<rect x="387" y="190" width="104" height="71" rx="5" fill="white"/>
<rect x="385" y="190" width="7" height="80" fill="#89b93f"/>
<path d="M411.583 211.938C411.051 212.618 410.348 212.958 409.476 212.958C408.705 212.958 408.059 212.686 407.527 212.13C406.994 211.575 406.734 210.907 406.734 210.113C406.734 209.32 406.994 208.652 407.527 208.096C408.059 207.541 408.705 207.258 409.476 207.258C410.292 207.258 410.983 207.587 411.561 208.232L412.49 207.507C411.776 206.635 410.7 206.102 409.476 206.102C408.377 206.102 407.436 206.499 406.677 207.281C405.918 208.062 405.533 209.003 405.533 210.113C405.533 211.224 405.918 212.164 406.677 212.946C407.436 213.728 408.377 214.113 409.476 214.113C410.734 214.113 411.821 213.581 412.513 212.674L411.583 211.938ZM415.363 207.315V214H416.587V207.315H418.887V206.193H413.063V207.315H415.363ZM423.231 207.303C424.794 207.235 424.817 210.113 423.185 210.034H421.44V207.303H423.231ZM423.639 211.088C424.307 211.009 424.817 210.748 425.146 210.295C425.486 209.841 425.656 209.298 425.656 208.674C425.656 207.983 425.452 207.405 425.055 206.918C424.658 206.431 424.058 206.193 423.276 206.193H420.228V214H421.44V211.133H422.279L424.228 214H425.69L423.639 211.088Z" fill="#333333"/>
<rect x="405" y="233" width="47" height="8" rx="4" fill="#C1C1C1"/>
</g>
<rect x="387.625" y="190.625" width="102.75" height="69.75" rx="4.375" stroke="#E0E0E0" stroke-width="1.25"/>
<rect x="506.625" y="190.625" width="102.75" height="69.75" rx="4.375" fill="white"/>
<path d="M530.583 211.938C530.051 212.618 529.348 212.958 528.476 212.958C527.705 212.958 527.059 212.686 526.527 212.13C525.994 211.575 525.734 210.907 525.734 210.113C525.734 209.32 525.994 208.652 526.527 208.096C527.059 207.541 527.705 207.258 528.476 207.258C529.292 207.258 529.983 207.587 530.561 208.232L531.49 207.507C530.776 206.635 529.7 206.102 528.476 206.102C527.377 206.102 526.436 206.499 525.677 207.281C524.918 208.062 524.533 209.003 524.533 210.113C524.533 211.224 524.918 212.164 525.677 212.946C526.436 213.728 527.377 214.113 528.476 214.113C529.734 214.113 530.821 213.581 531.513 212.674L530.583 211.938ZM533.729 214V205.83H532.562V214H533.729ZM536.517 214V208.708H535.361V214H536.517ZM535.939 205.83C535.52 205.83 535.157 206.159 535.157 206.567C535.157 206.975 535.52 207.303 535.939 207.303C536.381 207.303 536.71 206.986 536.71 206.567C536.71 206.148 536.381 205.83 535.939 205.83ZM540.631 208.595C539.849 208.595 539.181 208.844 538.626 209.354C538.082 209.864 537.81 210.521 537.81 211.337C537.81 212.153 538.082 212.822 538.637 213.343C539.192 213.853 539.849 214.113 540.631 214.113C541.515 214.113 542.218 213.807 542.739 213.184L541.821 212.47C541.515 212.822 541.119 212.992 540.631 212.992C540.178 212.992 539.781 212.833 539.453 212.527C539.124 212.221 538.966 211.824 538.966 211.337C538.966 210.861 539.124 210.476 539.453 210.181C539.781 209.875 540.167 209.728 540.631 209.728C541.13 209.728 541.526 209.898 541.821 210.238L542.728 209.513C542.206 208.901 541.504 208.595 540.631 208.595ZM548.877 214L546.112 211.009L548.367 208.708H546.803L545.126 210.453V205.83H543.97V214H545.126V211.541L547.381 214H548.877ZM551.518 211.881C552.006 211.994 552.255 212.198 552.255 212.504C552.255 212.901 551.858 213.139 551.314 213.139C550.714 213.139 550.329 212.844 550.272 212.38H549.196C549.207 212.912 549.411 213.331 549.819 213.649C550.227 213.955 550.691 214.113 551.224 214.113C552.459 214.113 553.331 213.513 553.331 212.516C553.331 211.711 552.867 211.201 551.949 210.975L551.133 210.771C550.759 210.669 550.544 210.533 550.487 210.363C550.431 210.193 550.442 210.034 550.533 209.887C550.635 209.706 550.974 209.592 551.28 209.592C551.677 209.592 552.006 209.785 552.051 210.159H553.161C553.105 209.105 552.278 208.595 551.235 208.595C550.748 208.595 550.317 208.731 549.943 209.003C549.569 209.264 549.377 209.592 549.343 209.989C549.263 210.861 549.705 211.405 550.805 211.711L551.518 211.881Z" fill="#333333"/>
<rect x="524" y="233" width="47" height="8" rx="4" fill="#C1C1C1"/>
<rect x="506.625" y="190.625" width="102.75" height="69.75" rx="4.375" stroke="#E0E0E0" stroke-width="1.25"/>
<defs>
<filter id="filter0_d_1331_2467" x="478.854" y="300.112" width="179.976" height="189.756" filterUnits="userSpaceOnUse" color-interpolation-filters="sRGB">
<feFlood flood-opacity="0" result="BackgroundImageFix"/>
<feColorMatrix in="SourceAlpha" type="matrix" values="0 0 0 0 0 0 0 0 0 0 0 0 0 0 0 0 0 0 127 0" result="hardAlpha"/>
<feOffset dx="-7.65854" dy="11.4878"/>
<feGaussianBlur stdDeviation="5.7439"/>
<feComposite in2="hardAlpha" operator="out"/>
<feColorMatrix type="matrix" values="0 0 0 0 0 0 0 0 0 0 0 0 0 0 0 0 0 0 0.05 0"/>
<feBlend mode="normal" in2="BackgroundImageFix" result="effect1_dropShadow_1331_2467"/>
<feBlend mode="normal" in="SourceGraphic" in2="effect1_dropShadow_1331_2467" result="shape"/>
</filter>
<filter id="filter1_d_1331_2467" x="565.937" y="330.397" width="26.2036" height="26.2037" filterUnits="userSpaceOnUse" color-interpolation-filters="sRGB">
<feFlood flood-opacity="0" result="BackgroundImageFix"/>
<feColorMatrix in="SourceAlpha" type="matrix" values="0 0 0 0 0 0 0 0 0 0 0 0 0 0 0 0 0 0 127 0" result="hardAlpha"/>
<feOffset dy="1.31051"/>
<feGaussianBlur stdDeviation="3.27627"/>
<feColorMatrix type="matrix" values="0 0 0 0 0.150157 0 0 0 0 0.313287 0 0 0 0 0.392522 0 0 0 0.269422 0"/>
<feBlend mode="normal" in2="BackgroundImageFix" result="effect1_dropShadow_1331_2467"/>
<feBlend mode="normal" in="SourceGraphic" in2="effect1_dropShadow_1331_2467" result="shape"/>
</filter>
<filter id="filter2_d_1331_2467" x="565.937" y="415.531" width="26.2036" height="26.2037" filterUnits="userSpaceOnUse" color-interpolation-filters="sRGB">
<feFlood flood-opacity="0" result="BackgroundImageFix"/>
<feColorMatrix in="SourceAlpha" type="matrix" values="0 0 0 0 0 0 0 0 0 0 0 0 0 0 0 0 0 0 127 0" result="hardAlpha"/>
<feOffset dy="1.31051"/>
<feGaussianBlur stdDeviation="3.27627"/>
<feColorMatrix type="matrix" values="0 0 0 0 0.150157 0 0 0 0 0.313287 0 0 0 0 0.392522 0 0 0 0.269422 0"/>
<feBlend mode="normal" in2="BackgroundImageFix" result="effect1_dropShadow_1331_2467"/>
<feBlend mode="normal" in="SourceGraphic" in2="effect1_dropShadow_1331_2467" result="shape"/>
</filter>
<linearGradient id="paint0_linear_1331_2467" x1="322.5" y1="78" x2="322.5" y2="397" gradientUnits="userSpaceOnUse">
<stop stop-color="#ECECEC"/>
<stop offset="1" stop-color="#F5F5F5" stop-opacity="0"/>
</linearGradient>
<clipPath id="clip0_1331_2467">
<rect width="394" height="227" fill="white" transform="translate(177 160)"/>
</clipPath>
<clipPath id="clip1_1331_2467">
<rect width="327" height="93" fill="white" transform="translate(221 277)"/>
</clipPath>
<clipPath id="clip2_1331_2467">
<rect x="268" y="190" width="104" height="71" rx="5" fill="white"/>
</clipPath>
<clipPath id="clip3_1331_2467">
<rect x="387" y="190" width="104" height="71" rx="5" fill="white"/>
</clipPath>
</defs>
</svg>
